{
.appVersion = "3151";
.formatVersion = 3;
classes = (
{
automatic = 1;
code = "A Aacute Abreve Acircumflex Adieresis Agrave Amacron Aogonek Aring Aringacute Atilde AE AEacute B C Cacute Ccaron Ccedilla Ccircumflex Cdotaccent D Eth Dcaron Dcroat E Eacute Ebreve Ecaron Ecircumflex Edieresis Edotaccent Egrave Emacron Eogonek F G Gbreve Gcircumflex Gdotaccent H Hbar Hcircumflex I IJ Iacute Ibreve Icircumflex Idieresis Idotaccent Igrave Imacron Iogonek Itilde J Jcircumflex K L Lacute Lcaron Ldot Lslash M N Nacute Ncaron Ntilde Eng O Oacute Obreve Ocircumflex Odieresis Ograve Ohungarumlaut Omacron Oslash Oslashacute Otilde OE P Thorn Q R Racute Rcaron S Sacute Scaron Scedilla Scircumflex T Tbar Tcaron U Uacute Ubreve Ucircumflex Udieresis Ugrave Uhungarumlaut Umacron Uogonek Uring Utilde V W Wacute Wcircumflex Wdieresis Wgrave X Y Yacute Ycircumflex Ydieresis Ygrave Z Zacute Zcaron Zdotaccent uni0122 uni0136 uni013B uni0145 uni0156 uni0162 uni0218 uni021A uni0394 uni03A9";
name = Uppercase;
}
);
customParameters = (
{
name = fsType;
value = (
);
},
{
name = "Use Typo Metrics";
value = 1;
}
);
date = "2023-02-17 13:47:15 +0000";
familyName = Unlock;
featurePrefixes = (
{
automatic = 1;
code = "languagesystem DFLT dflt;

languagesystem latn dflt;
languagesystem latn CAT;
";
name = Languagesystems;
}
);
features = (
{
automatic = 1;
code = "feature locl;
feature subs;
feature sinf;
feature sups;
feature frac;
feature ordn;
feature case;
feature salt;
";
tag = aalt;
},
{
automatic = 1;
code = "lookup ccmp_latn_1 {
	sub fi by f i;
	sub fl by f l;
} ccmp_latn_1;

script latn;
lookup ccmp_latn_1;
";
tag = ccmp;
},
{
automatic = 1;
code = "lookup locl_latn_0 {
	script latn;
	language CAT;
	sub  l' periodcentered' l by ldot;
	sub  L' periodcentered' L by Ldot;
} locl_latn_0;
";
tag = locl;
},
{
automatic = 1;
code = "sub zero by zeroinferior;
sub one by oneinferior;
sub two by twoinferior;
sub three by threeinferior;
sub four by fourinferior;
";
tag = subs;
},
{
automatic = 1;

glyphs = (
{
glyphname = A;
lastChange = "2023-02-17 14:09:26 +0000";
layers = (
{
anchors = (
{
name = bottom;
pos = (301,0);
},
{
name = ogonek;
pos = (632,38);
},
{
name = top;
pos = (291,635);
}
);
background = {
shapes = (
{
closed = 1;
nodes = (
(103,597,l),
(16,38,l),
(-25,38,l),
(-25,0,l),
(627,0,l),
(627,38,l),
(585,38,l),
(493,635,l),
(41,635,l),
(41,597,l)
);
},
{
closed = 1;
nodes = (
(285,575,l),
(318,205,l),
(196,205,l),
(196,575,l,{
name = hr01;
})
);
},
{
closed = 1;
nodes = (
(196,150,l),
(323,150,l),
(337,0,l),
(196,0,l)
);
}
);
};
layerId = master01;
shapes = (
{
closed = 1;
nodes = (
(103,597,l),
(16,38,l),
(-25,38,l),
(-25,0,l),
(627,0,l),
(627,38,l),
(585,38,l),
(493,635,l),
(41,635,l),
(41,597,l)
);
},
{
closed = 1;
nodes = (
(285,575,l),
(318,205,l),
(196,205,l),
(196,575,l,{
name = hr01;
})
);
},
{
closed = 1;
nodes = (
(196,150,l),
(323,150,l),
(337,0,l),
(196,0,l)
);
}
);
width = 602;
}
);
unicode = 65;
},
{
glyphname = Aacute;
lastChange = "2023-02-17 14:09:17 +0000";
layers = (
{
background = {
shapes = (
{
closed = 1;
nodes = (
(93,597,l),
(6,38,l),
(-35,38,l),
(-35,0,l),
(617,0,l),
(617,38,l),
(575,38,l),
(483,635,l),
(31,635,l),
(31,597,l)
);
},
{
closed = 1;
nodes = (
(275,575,l),
(308,205,l),
(186,205,l),
(186,575,l,{
name = hr01;
})
);
},
{
closed = 1;
nodes = (
(186,150,l),
(313,150,l),
(327,0,l),
(186,0,l)
);
},
{
closed = 1;
nodes = (
(189,671,l),
(416,730,l),
(367,865,l),
(156,763,l,{
name = hr00;
})
);
}
);
};
layerId = master01;
shapes = (
{
ref = A;
},
{
pos = (110,0);
ref = acutecomb.case;
}
);
width = 602;
}
);
unicode = 193;
},
{
glyphname = Abreve;
lastChange = "2023-02-17 14:09:17 +0000";
layers = (
{
background = {
shapes = (
{
closed = 1;
nodes = (
(103,597,l),
(16,38,l),
(-25,38,l),
(-25,0,l),
(627,0,l),
(627,38,l),
(585,38,l),
(493,635,l),
(41,635,l),
(41,597,l)
);
},
{
closed = 1;
nodes = (
(285,575,l),
(318,205,l),
(196,205,l),
(196,575,l,{
name = hr01;
})
);
},
{
closed = 1;
nodes = (
(196,150,l),
(323,150,l),
(337,0,l),
(196,0,l)
);
},
{
closed = 1;
nodes = (
(264,795,o),
(213,812,o),
(181,834,c),
(166,810,o),
(151,784,o),
(135,759,c),
(172,702,o),
(231,673,o),
(301,673,cs),
(371,673,o),
(430,702,o),
(467,759,c),
(449,788,o),
(440,804,o),
(421,834,c),
(389,812,o),
(338,795,o),
(301,795,cs,{
name = hr00;
})
);
}
);
};
layerId = master01;
shapes = (
{
ref = A;
},
{
pos = (92,0);
ref = brevecomb.case;
}
);
width = 602;
}
);
unicode = 258;
},
{
glyphname = Acircumflex;
lastChange = "2023-02-17 14:09:17 +0000";
layers = (
{
background = {
shapes = (
{
closed = 1;
nodes = (
(93,597,l),
(6,38,l),
(-35,38,l),
(-35,0,l),
(617,0,l),
(617,38,l),
(575,38,l),
(483,635,l),
(31,635,l),
(31,597,l)
);
},
{
closed = 1;
nodes = (
(275,575,l),
(308,205,l),
(186,205,l),
(186,575,l,{
name = hr01;
})
);
},
{
closed = 1;
nodes = (
(186,150,l),
(313,150,l),
(327,0,l),
(186,0,l)
);
},
{
closed = 1;
nodes = (
(243,872,l),
(125,742,l),
(184,671,l),
(291,747,l),
(398,671,l),
(457,742,l),
(339,872,l,{
name = hr00;
})
);
}
);
};
layerId = master01;
shapes = (
{
ref = A;
},
{
pos = (90,0);
ref = circumflexcomb.case;
}
);
width = 602;
}
);
unicode = 194;
},
{
glyphname = Adieresis;
lastChange = "2023-02-17 14:09:17 +0000";
layers = (
{
background = {
shapes = (
{
closed = 1;
nodes = (
(93,597,l),
(6,38,l),
(-35,38,l),
(-35,0,l),
(617,0,l),
(617,38,l),
(575,38,l),
(483,635,l),
(31,635,l),
(31,597,l)
);
},
{
closed = 1;
nodes = (
(275,575,l),
(308,205,l),
(186,205,l),
(186,575,l,{
name = hr01;
})
);
},
{
closed = 1;
nodes = (
(186,150,l),
(313,150,l),
(327,0,l),
(186,0,l)
);
},
{
closed = 1;
nodes = (
(244,842,o),
(232,850,o),
(181,850,cs),
(123,850,o),
(110,842,o),
(110,767,cs),
(110,692,o),
(123,684,o),
(181,684,cs),
(232,684,o),
(244,692,o),
(244,767,cs,{
name = hr00;
})
);
},
{
closed = 1;
nodes = (
(442,842,o),
(430,850,o),
(379,850,cs),
(321,850,o),
(308,842,o),
(308,767,cs),
(308,692,o),
(321,684,o),
(379,684,cs),
(430,684,o),
(442,692,o),
(442,767,cs)
);
}
);
};
layerId = master01;
shapes = (
{
ref = A;
},
{
pos = (75,0);
ref = dieresiscomb.case;
}
);
width = 602;
}
);
unicode = 196;
},
{
glyphname = Agrave;
lastChange = "2023-02-17 14:09:17 +0000";
layers = (
{
background = {
shapes = (
{
closed = 1;
nodes = (
(93,597,l),
(6,38,l),
(-35,38,l),
(-35,0,l),
(617,0,l),
(617,38,l),
(575,38,l),
(483,635,l),
(31,635,l),
(31,597,l)
);
},
{
closed = 1;
nodes = (
(275,575,l),
(308,205,l),
(186,205,l),
(186,575,l,{
name = hr01;
})
);
},
{
closed = 1;
nodes = (
(186,150,l),
(313,150,l),
(327,0,l),
(186,0,l)
);
},
{
closed = 1;
nodes = (
(161,730,l),
(388,671,l),
(421,763,l),
(210,865,l,{
name = hr00;
})
);
}
);
};
layerId = master01;
shapes = (
{
ref = A;
},
{
pos = (161,0);
ref = gravecomb.case;
}
);
width = 602;
}
);
unicode = 192;
},
{
glyphname = Amacron;
lastChange = "2023-02-17 14:09:17 +0000";
layers = (
{
background = {
shapes = (
{
closed = 1;
nodes = (
(103,597,l),
(16,38,l),
(-25,38,l),
(-25,0,l),
(627,0,l),
(627,38,l),
(585,38,l),
(493,635,l),
(41,635,l),
(41,597,l)
);
},
{
closed = 1;
nodes = (
(285,575,l),
(318,205,l),
(196,205,l),
(196,575,l,{
name = hr01;
})
);
},
{
closed = 1;
nodes = (
(196,150,l),
(323,150,l),
(337,0,l),
(196,0,l)
);
},
{
closed = 1;
nodes = (
(447,695,l),
(447,819,l),
(155,819,l),
(155,695,l,{
name = hr00;
})
);
}
);
};
layerId = master01;
shapes = (
{
ref = A;
},
{
pos = (105,0);
ref = macroncomb.case;
}
);
width = 602;
}
);
unicode = 256;
},
{
glyphname = Aogonek;
lastChange = "2023-02-17 14:09:26 +0000";
layers = (
{
background = {
shapes = (
{
closed = 1;
nodes = (
(103,597,l),
(16,38,l),
(-25,38,l),
(-25,0,l),
(627,0,l),
(627,38,l),
(585,38,l),
(493,635,l),
(41,635,l),
(41,597,l)
);
},
{
closed = 1;
nodes = (
(285,575,l),
(318,205,l),
(196,205,l),
(196,575,l,{
name = hr01;
})
);
},
{
closed = 1;
nodes = (
(196,150,l),
(323,150,l),
(337,0,l),
(196,0,l)
);
},
{
closed = 1;
nodes = (
(415,-141,o),
(455,-165,o),
(507,-165,cs),
(554,-165,o),
(606,-137,o),
(632,-110,c),
(622,-53,l),
(606,-63,o),
(581,-72,o),
(560,-72,cs),
(541,-72,o),
(525,-61,o),
(525,-40,cs),
(525,-14,o),
(541,5,o),
(585,11,c),
(585,38,l),
(477,22,o),
(415,-17,o),
(415,-87,cs,{
name = hr00;
})
);
}
);
};
layerId = master01;
shapes = (
{
ref = A;
},
{
pos = (392,0);
ref = ogonekcomb;
}
);
width = 602;
}
);
unicode = 260;
},
{
glyphname = Aring;
lastChange = "2023-02-17 14:09:17 +0000";
layers = (
{
background = {
shapes = (
{
closed = 1;
nodes = (
(93,597,l),
(6,38,l),
(-35,38,l),
(-35,0,l),
(617,0,l),
(617,38,l),
(575,38,l),
(483,635,l),
(31,635,l),
(31,597,l)
);
},
{
closed = 1;
nodes = (
(275,575,l),
(308,205,l),
(186,205,l),
(186,575,l,{
name = hr01;
})
);
},
{
closed = 1;
nodes = (
(186,150,l),
(313,150,l),
(327,0,l),
(186,0,l)
);
},
{
closed = 1;
nodes = (
(165,865,o),
(145,834,o),
(145,750,cs),
(145,666,o),
(165,635,o),
(267,635,cs),
(369,635,o),
(389,666,o),
(389,750,cs),
(389,834,o),
(369,865,o),
(267,865,cs,{
name = hr00;
})
);
},
{
closed = 1;
nodes = (
(302,793,o),
(308,789,o),
(308,750,cs),
(308,709,o),
(302,707,o),
(267,707,cs),
(232,707,o),
(226,709,o),
(226,750,cs),
(226,789,o),
(232,793,o),
(267,793,cs)
);
}
);
};
layerId = master01;
shapes = (
{
ref = A;
},
{
pos = (109,0);
ref = ringcomb.case;
}
);
width = 602;
}
);
unicode = 197;
},
{
glyphname = Aringacute;
lastChange = "2023-02-17 14:09:40 +0000";
layers = (
{
background = {
shapes = (
{
closed = 1;
nodes = (
(93,597,l),
(6,38,l),
(-35,38,l),
(-35,0,l),
(617,0,l),
(617,38,l),
(575,38,l),
(483,635,l),
(31,635,l),
(31,597,l)
);
},
{
closed = 1;
nodes = (
(275,575,l),
(308,205,l),
(186,205,l),
(186,575,l,{
name = hr01;
})
);
},
{
closed = 1;
nodes = (
(186,150,l),
(313,150,l),
(327,0,l),
(186,0,l)
);
},
{
closed = 1;
nodes = (
(171,875,o),
(151,844,o),
(151,760,cs),
(151,676,o),
(171,645,o),
(273,645,cs),
(375,645,o),
(395,676,o),
(395,760,cs),
(395,784,o),
(393,803,o),
(388,819,c),
(452,836,l),
(408,958,l),
(273,875,l,{
name = hr00;
})
);
},
{
closed = 1;
nodes = (
(308,803,o),
(314,799,o),
(314,760,cs),
(314,719,o),
(308,717,o),
(273,717,cs),
(238,717,o),
(232,719,o),
(232,760,cs),
(232,799,o),
(238,803,o),
(273,803,cs)
);
}
);
};
layerId = master01;
shapes = (
{
closed = 1;
nodes = (
(375,645,o),
(395,676,o),
(395,760,cs),
(395,784,o),
(393,803,o),
(388,819,c),
(452,836,l),
(408,958,l),
(273,875,l,{
name = hr00;
}),
(171,875,o),
(151,844,o),
(151,760,cs),
(151,676,o),
(171,645,o),
(273,645,cs)
);
},
{
ref = A;
},
{
closed = 1;
nodes = (
(238,717,o),
(232,719,o),
(232,760,cs),
(232,799,o),
(238,803,o),
(273,803,cs),
(308,803,o),
(314,799,o),
(314,760,cs),
(314,719,o),
(308,717,o),
(273,717,cs)
);
}
);
width = 602;
}
);
unicode = 506;
},
{
glyphname = Atilde;
lastChange = "2023-02-17 14:09:17 +0000";
layers = (
{
background = {
shapes = (
{
closed = 1;
nodes = (
(93,597,l),
(6,38,l),
(-35,38,l),
(-35,0,l),
(617,0,l),
(617,38,l),
(575,38,l),
(483,635,l),
(31,635,l),
(31,597,l)
);
},
{
closed = 1;
nodes = (
(275,575,l),
(308,205,l),
(186,205,l),
(186,575,l,{
name = hr01;
})
);
},
{
closed = 1;
nodes = (
(186,150,l),
(313,150,l),
(327,0,l),
(186,0,l)
);
},
{
closed = 1;
nodes = (
(394,840,l),
(366,788,l),
(354,788,l),
(328,827,o),
(291,850,o),
(241,850,cs),
(184,850,o),
(137,821,o),
(124,748,cs),
(114,691,l),
(186,678,l),
(214,729,l),
(226,729,l),
(252,691,o),
(289,668,o),
(338,668,cs),
(396,668,o),
(442,696,o),
(456,769,cs),
(467,826,l,{
name = hr00;
})
);
}
);
};
layerId = master01;
shapes = (
{
ref = A;
},
{
pos = (89,0);
ref = tildecomb.case;
}
);
width = 602;
}
);
unicode = 195;
},
{
glyphname = AE;
lastChange = "2023-02-17 14:09:49 +0000";
layers = (
{
anchors = (
{
name = bottom;
pos = (443,0);
},
{
name = top;
pos = (524,635);
}
);
background = {
shapes = (
{
closed = 1;
nodes = (
(197,597,l),
(22,38,l),
(-25,38,l),
(-25,0,l),
(196,0,l),
(245,284,l),
(389,284,l),
(389,38,l),
(345,38,l),
(345,0,l),
(851,0,l),
(851,214,l),
(734,214,l),
(693,60,l,{
name = hr01;
}),
(604,60,l),
(604,284,l),
(795,284,l),
(795,339,l),
(604,339,l),
(604,575,l),
(693,575,l),
(734,421,l),
(851,421,l),
(851,635,l,{
name = hr02;
}),
(141,635,l),
(141,597,l)
);
},
{
closed = 1;
nodes = (
(389,575,l),
(389,339,l),
(255,339,l),
(296,575,l,{
name = hr03;
})
);
}
);
};
layerId = master01;
shapes = (
{
closed = 1;
nodes = (
(197,597,l),
(22,38,l),
(-25,38,l),
(-25,0,l),
(196,0,l),
(245,284,l),
(389,284,l),
(389,38,l),
(345,38,l),
(345,0,l),
(851,0,l),
(851,214,l),
(734,214,l),
(693,60,l,{
name = hr01;
}),
(604,60,l),
(604,284,l),
(795,284,l),
(795,339,l),
(604,339,l),
(604,575,l),
(693,575,l),
(734,421,l),
(851,421,l),
(851,635,l,{
name = hr02;
}),
(141,635,l),
(141,597,l)
);
},
{
closed = 1;
nodes = (
(389,575,l),
(389,339,l),
(255,339,l),
(296,575,l,{
name = hr03;
})
);
}
);
width = 886;
}
);
unicode = 198;
},
{
glyphname = AEacute;
lastChange = "2023-02-17 14:09:49 +0000";
layers = (
{
background = {
shapes = (
{
closed = 1;
nodes = (
(197,597,l),
(22,38,l),
(-25,38,l),
(-25,0,l),
(196,0,l),
(245,284,l),
(389,284,l),
(389,38,l),
(345,38,l),
(345,0,l),
(851,0,l),
(851,214,l),
(734,214,l),
(693,60,l,{
name = hr01;
}),
(604,60,l),
(604,284,l),
(795,284,l),
(795,339,l),
(604,339,l),
(604,575,l),
(693,575,l),
(734,421,l),
(851,421,l),
(851,635,l,{
name = hr02;
}),
(141,635,l),
(141,597,l)
);
},
{
closed = 1;
nodes = (
(389,575,l),
(389,339,l),
(255,339,l),
(296,575,l,{
name = hr03;
})
);
},
{
closed = 1;
nodes = (
(426,671,l),
(653,730,l),
(604,865,l),
(393,763,l,{
name = hr00;
})
);
}
);
};
layerId = master01;
shapes = (
{
ref = AE;
},
{
pos = (343,0);
ref = acutecomb.case;
}
);
width = 886;
}
);
unicode = 508;
},
{
glyphname = B;
lastChange = "2023-02-17 14:07:39 +0000";
layers = (
{
anchors = (
{
name = bottom;
pos = (327,0);
},
{
name = center;
pos = (327,318);
},
{
name = top;
pos = (327,635);
}
);
background = {
shapes = (
{
closed = 1;
nodes = (
(639,258,o),
(572,298,o),
(485,314,c),
(485,322,l),
(568,338,o),
(629,378,o),
(629,473,cs),
(629,635,o),
(499,635,o),
(354,635,cs),
(30,635,l),
(30,597,l,{
name = hr01;
}),
(74,597,l),
(74,38,l),
(30,38,l),
(30,0,l),
(364,0,ls),
(509,0,o),
(639,0,o),
(639,162,cs)
);
},
{
closed = 1;
nodes = (
(424,579,l),
(424,345,l),
(289,345,l),
(289,579,l,{
name = hr02;
})
);
},
{
closed = 1;
nodes = (
(289,60,l),
(289,290,l),
(424,290,l),
(424,60,l)
);
}
);
};
layerId = master01;
shapes = (
{
closed = 1;
nodes = (
(639,258,o),
(572,298,o),
(485,314,c),
(485,322,l),
(568,338,o),
(629,378,o),
(629,473,cs),
(629,635,o),
(499,635,o),
(354,635,cs),
(30,635,l),
(30,597,l,{
name = hr01;
}),
(74,597,l),
(74,38,l),
(30,38,l),
(30,0,l),
(364,0,ls),
(509,0,o),
(639,0,o),
(639,162,cs)
);
},
{
closed = 1;
nodes = (
(424,579,l),
(424,345,l),
(289,345,l),
(289,579,l,{
name = hr02;
})
);
},
{
closed = 1;
nodes = (
(289,60,l),
(289,290,l),
(424,290,l),
(424,60,l)
);
}
);
width = 654;
}
);
unicode = 66;
},
{
glyphname = C;
lastChange = "2023-02-17 14:10:00 +0000";
layers = (
{
anchors = (
{
name = bottom;
pos = (292,0);
},
{
name = top;
pos = (305,635);
}
);
background = {
shapes = (
{
closed = 1;
nodes = (
(235,57,l),
(235,579,l),
(365,579,l),
(365,389,l),
(580,389,l),
(580,408,ls),
(580,632,o),
(468,650,o),
(308,650,cs),
(157,650,o),
(20,650,o),
(20,374,cs),
(20,262,ls),
(20,-15,o),
(146,-15,o),
(286,-15,cs),
(458,-15,o),
(580,3,o),
(580,227,cs),
(580,239,l),
(365,239,l),
(365,57,l,{
name = hr00;
})
);
}
);
};
layerId = master01;
shapes = (
{
closed = 1;
nodes = (
(235,57,l),
(235,579,l),
(365,579,l),
(365,389,l),
(580,389,l),
(580,408,ls),
(580,632,o),
(468,650,o),
(308,650,cs),
(157,650,o),
(20,650,o),
(20,374,cs),
(20,262,ls),
(20,-15,o),
(146,-15,o),
(286,-15,cs),
(458,-15,o),
(580,3,o),
(580,227,cs),
(580,239,l),
(365,239,l),
(365,57,l,{
name = hr00;
})
);
}
);
width = 590;
}
);
unicode = 67;
},
{
glyphname = Cacute;
lastChange = "2023-02-17 14:09:57 +0000";
layers = (
{
background = {
shapes = (
{
closed = 1;
nodes = (
(235,57,l),
(235,579,l),
(365,579,l),
(365,389,l),
(580,389,l),
(580,408,ls),
(580,632,o),
(468,650,o),
(308,650,cs),
(157,650,o),
(20,650,o),
(20,374,cs),
(20,262,ls),
(20,-15,o),
(146,-15,o),
(286,-15,cs),
(458,-15,o),
(580,3,o),
(580,227,cs),
(580,239,l),
(365,239,l),
(365,57,l,{
name = hr00;
})
);
},
{
closed = 1;
nodes = (
(218,671,l),
(445,730,l),
(396,865,l),
(185,763,l,{
name = hr00;
})
);
}
);
};
layerId = master01;
shapes = (
{
ref = C;
},
{
pos = (124,0);
ref = acutecomb.case;
}
);
width = 590;
}
);
unicode = 262;
},
{
glyphname = Ccaron;
lastChange = "2023-02-17 14:09:57 +0000";
layers = (
{
background = {
shapes = (
{
closed = 1;
nodes = (
(235,57,l),
(235,579,l),
(365,579,l),
(365,389,l),
(580,389,l),
(580,408,ls),
(580,632,o),
(468,650,o),
(308,650,cs),
(157,650,o),
(20,650,o),
(20,374,cs),
(20,262,ls),
(20,-15,o),
(146,-15,o),
(286,-15,cs),
(458,-15,o),
(580,3,o),
(580,227,cs),
(580,239,l),
(365,239,l),
(365,57,l,{
name = hr00;
})
);
},
{
closed = 1;
nodes = (
(412,873,l),
(305,797,l),
(198,873,l),
(139,802,l),
(257,672,l),
(353,672,l),
(471,802,l,{
name = hr00;
})
);
}
);
};
layerId = master01;
shapes = (
{
ref = C;
},
{
pos = (104,0);
ref = caroncomb.case;
}
);
width = 590;
}
);
unicode = 268;
},
{
glyphname = Ccedilla;
lastChange = "2023-02-17 14:10:00 +0000";
layers = (
{
background = {
shapes = (
{
closed = 1;
nodes = (
(235,57,l),
(235,579,l),
(365,579,l),
(365,389,l),
(580,389,l),
(580,408,ls),
(580,632,o),
(468,650,o),
(308,650,cs),
(157,650,o),
(20,650,o),
(20,374,cs),
(20,262,ls),
(20,-15,o),
(146,-15,o),
(286,-15,cs),
(458,-15,o),
(580,3,o),
(580,227,cs),
(580,239,l),
(365,239,l),
(365,57,l,{
name = hr00;
})
);
},
{
closed = 1;
nodes = (
(402,-4,o),
(342,6,o),
(299,6,c),
(299,-104,l),
(272,-104,l),
(238,-52,l),
(186,-52,l),
(179,-149,l),
(208,-157,o),
(248,-165,o),
(291,-165,cs),
(343,-165,o),
(402,-146,o),
(402,-76,cs,{
name = hr00;
})
);
}
);
};
layerId = master01;
shapes = (
{
ref = C;
},
{
pos = (167,0);
ref = cedillacomb;
}
);
width = 590;
}
);
unicode = 199;
},
{
glyphname = Ccircumflex;
lastChange = "2023-02-17 14:09:57 +0000";
layers = (
{
background = {
shapes = (
{
closed = 1;
nodes = (
(235,57,l),
(235,579,l),
(365,579,l),
(365,389,l),
(580,389,l),
(580,408,ls),
(580,632,o),
(468,650,o),
(308,650,cs),
(157,650,o),
(20,650,o),
(20,374,cs),
(20,262,ls),
(20,-15,o),
(146,-15,o),
(286,-15,cs),
(458,-15,o),
(580,3,o),
(580,227,cs),
(580,239,l),
(365,239,l),
(365,57,l,{
name = hr00;
})
);
},
{
closed = 1;
nodes = (
(247,872,l),
(129,742,l),
(188,671,l),
(295,747,l),
(402,671,l),
(461,742,l),
(343,872,l,{
name = hr00;
})
);
}
);
};
layerId = master01;
shapes = (
{
ref = C;
},
{
pos = (104,0);
ref = circumflexcomb.case;
}
);
width = 590;
}
);
unicode = 264;
},
{
glyphname = Cdotaccent;
lastChange = "2023-02-17 14:09:57 +0000";
layers = (
{
background = {
shapes = (
{
closed = 1;
nodes = (
(235,57,l),
(235,579,l),
(365,579,l),
(365,389,l),
(580,389,l),
(580,408,ls),
(580,632,o),
(468,650,o),
(308,650,cs),
(157,650,o),
(20,650,o),
(20,374,cs),
(20,262,ls),
(20,-15,o),
(146,-15,o),
(286,-15,cs),
(458,-15,o),
(580,3,o),
(580,227,cs),
(580,239,l),
(365,239,l),
(365,57,l,{
name = hr00;
})
);
},
{
closed = 1;
nodes = (
(376,850,o),
(392,827,o),
(392,760,cs),
(392,693,o),
(376,669,o),
(295,669,cs),
(214,669,o),
(198,693,o),
(198,760,cs),
(198,827,o),
(214,850,o),
(295,850,cs,{
name = hr00;
})
);
}
);
};
layerId = master01;
shapes = (
{
ref = C;
},
{
pos = (153,0);
ref = dotaccentcomb.case;
}
);
width = 590;
}
);
unicode = 266;
},
{
glyphname = D;
lastChange = "2023-02-17 14:07:39 +0000";
layers = (
{
anchors = (
{
name = bottom;
pos = (337,0);
},
{
name = center;
pos = (337,318);
},
{
name = top;
pos = (337,635);
}
);
background = {
shapes = (
{
closed = 1;
nodes = (
(524,0,o),
(654,1,o),
(654,277,cs),
(654,359,ls),
(654,635,o),
(524,635,o),
(379,635,cs),
(30,635,l),
(30,597,l,{
name = hr01;
}),
(74,597,l),
(74,38,l),
(30,38,l),
(30,0,l),
(379,0,ls)
);
},
{
closed = 1;
nodes = (
(289,60,l),
(289,579,l),
(439,579,l),
(439,60,l,{
name = hr02;
})
);
}
);
};
layerId = master01;
shapes = (
{
closed = 1;
nodes = (
(524,0,o),
(654,1,o),
(654,277,cs),
(654,359,ls),
(654,635,o),
(524,635,o),
(379,635,cs),
(30,635,l),
(30,597,l,{
name = hr01;
}),
(74,597,l),
(74,38,l),
(30,38,l),
(30,0,l),
(379,0,ls)
);
},
{
closed = 1;
nodes = (
(289,60,l),
(289,579,l),
(439,579,l),
(439,60,l,{
name = hr02;
})
);
}
);
width = 674;
}
);
unicode = 68;
},
{
glyphname = Eth;
lastChange = "2023-02-17 14:10:17 +0000";
layers = (
{
background = {
shapes = (
{
closed = 1;
nodes = (
(363,286,l),
(363,348,l),
(27,348,l),
(27,286,l)
);
},
{
closed = 1;
nodes = (
(363,286,l),
(363,348,l),
(27,348,l),
(27,286,l)
);
},
{
ref = D;
},
{
pos = (26,0);
ref = barra;
}
);
};
layerId = master01;
shapes = (
{
closed = 1;
nodes = (
(363,286,l),
(363,348,l),
(27,348,l),
(27,286,l)
);
},
{
ref = D;
}
);
width = 674;
}
);
unicode = 208;
},
{
glyphname = Dcaron;
lastChange = "2023-02-17 14:08:22 +0000";
layers = (
{
background = {
shapes = (
{
closed = 1;
nodes = (
(524,0,o),
(654,1,o),
(654,277,cs),
(654,359,ls),
(654,635,o),
(524,635,o),
(379,635,cs),
(30,635,l),
(30,597,l,{
name = hr01;
}),
(74,597,l),
(74,38,l),
(30,38,l),
(30,0,l),
(379,0,ls)
);
},
{
closed = 1;
nodes = (
(289,60,l),
(289,579,l),
(439,579,l),
(439,60,l,{
name = hr02;
})
);
},
{
closed = 1;
nodes = (
(444,873,l),
(337,797,l),
(230,873,l),
(171,802,l),
(289,672,l),
(385,672,l),
(503,802,l,{
name = hr00;
})
);
}
);
};
layerId = master01;
shapes = (
{
ref = D;
},
{
pos = (136,0);
ref = caroncomb.case;
}
);
width = 674;
}
);
unicode = 270;
},
{
glyphname = Dcroat;
lastChange = "2023-02-17 14:08:22 +0000";
layers = (
{
background = {
shapes = (
{
closed = 1;
nodes = (
(524,0,o),
(654,1,o),
(654,277,cs),
(654,359,ls),
(654,635,o),
(524,635,o),
(379,635,cs),
(30,635,l),
(30,597,l,{
name = hr01;
}),
(74,597,l),
(74,38,l),
(30,38,l),
(30,0,l),
(379,0,ls)
);
},
{
closed = 1;
nodes = (
(289,60,l),
(289,579,l),
(439,579,l),
(439,60,l,{
name = hr02;
})
);
},
{
closed = 1;
nodes = (
(362,286,l),
(362,348,l),
(26,348,l),
(26,286,l)
);
}
);
};
layerId = master01;
shapes = (
{
ref = Eth;
}
);
width = 674;
}
);
unicode = 272;
},
{
glyphname = E;
lastChange = "2023-02-17 14:10:36 +0000";
layers = (
{
anchors = (
{
name = bottom;
pos = (286,0);
},
{
name = ogonek;
pos = (546,38);
},
{
name = top;
pos = (306,635);
},
{
name = topleft;
pos = (20,635);
}
);
background = {
shapes = (
{
closed = 1;
nodes = (
(536,0,l),
(536,214,l),
(419,214,l),
(378,60,l),
(289,60,l),
(289,284,l),
(480,284,l),
(480,339,l),
(289,339,l),
(289,575,l),
(378,575,l),
(419,421,l),
(536,421,l),
(536,635,l),
(30,635,l),
(30,597,l,{
name = hr01;
}),
(74,597,l),
(74,38,l),
(30,38,l),
(30,0,l)
);
}
);
};
layerId = master01;
shapes = (
{
closed = 1;
nodes = (
(536,0,l),
(536,214,l),
(419,214,l),
(378,60,l),
(289,60,l),
(289,284,l),
(480,284,l),
(480,339,l),
(289,339,l),
(289,575,l),
(378,575,l),
(419,421,l),
(536,421,l),
(536,635,l),
(30,635,l),
(30,597,l,{
name = hr01;
}),
(74,597,l),
(74,38,l),
(30,38,l),
(30,0,l)
);
}
);
width = 571;
}
);
unicode = 69;
},
{
glyphname = Eacute;
lastChange = "2023-02-17 14:10:25 +0000";
layers = (
{
background = {
shapes = (
{
closed = 1;
nodes = (
(536,0,l),
(536,214,l),
(419,214,l),
(378,60,l),
(289,60,l),
(289,284,l),
(480,284,l),
(480,339,l),
(289,339,l),
(289,575,l),
(378,575,l),
(419,421,l),
(536,421,l),
(536,635,l),
(30,635,l),
(30,597,l,{
name = hr01;
}),
(74,597,l),
(74,38,l),
(30,38,l),
(30,0,l)
);
},
{
closed = 1;
nodes = (
(194,671,l),
(421,730,l),
(372,865,l),
(161,763,l,{
name = hr00;
})
);
}
);
};
layerId = master01;
shapes = (
{
ref = E;
},
{
pos = (125,0);
ref = acutecomb.case;
}
);
width = 571;
}
);
unicode = 201;
},
{
glyphname = Ebreve;
lastChange = "2023-02-17 14:10:25 +0000";
layers = (
{
background = {
shapes = (
{
closed = 1;
nodes = (
(536,0,l),
(536,214,l),
(419,214,l),
(378,60,l),
(289,60,l),
(289,284,l),
(480,284,l),
(480,339,l),
(289,339,l),
(289,575,l),
(378,575,l),
(419,421,l),
(536,421,l),
(536,635,l),
(30,635,l),
(30,597,l,{
name = hr01;
}),
(74,597,l),
(74,38,l),
(30,38,l),
(30,0,l)
);
},
{
closed = 1;
nodes = (
(268,795,o),
(217,812,o),
(185,834,c),
(170,810,o),
(155,784,o),
(139,759,c),
(176,702,o),
(235,673,o),
(305,673,cs),
(375,673,o),
(434,702,o),
(471,759,c),
(453,788,o),
(444,804,o),
(425,834,c),
(393,812,o),
(342,795,o),
(305,795,cs,{
name = hr00;
})
);
}
);
};
layerId = master01;
shapes = (
{
ref = E;
},
{
pos = (107,0);
ref = brevecomb.case;
}
);
width = 571;
}
);
unicode = 276;
},
{
glyphname = Ecaron;
lastChange = "2023-02-17 14:10:25 +0000";
layers = (
{
background = {
shapes = (
{
closed = 1;
nodes = (
(536,0,l),
(536,214,l),
(419,214,l),
(378,60,l),
(289,60,l),
(289,284,l),
(480,284,l),
(480,339,l),
(289,339,l),
(289,575,l),
(378,575,l),
(419,421,l),
(536,421,l),
(536,635,l),
(30,635,l),
(30,597,l,{
name = hr01;
}),
(74,597,l),
(74,38,l),
(30,38,l),
(30,0,l)
);
},
{
closed = 1;
nodes = (
(412,873,l),
(305,797,l),
(198,873,l),
(139,802,l),
(257,672,l),
(353,672,l),
(471,802,l,{
name = hr00;
})
);
}
);
};
layerId = master01;
shapes = (
{
ref = E;
},
{
pos = (105,0);
ref = caroncomb.case;
}
);
width = 571;
}
);
unicode = 282;
},
{
glyphname = Ecircumflex;
lastChange = "2023-02-17 14:10:25 +0000";
layers = (
{
background = {
shapes = (
{
closed = 1;
nodes = (
(536,0,l),
(536,214,l),
(419,214,l),
(378,60,l),
(289,60,l),
(289,284,l),
(480,284,l),
(480,339,l),
(289,339,l),
(289,575,l),
(378,575,l),
(419,421,l),
(536,421,l),
(536,635,l),
(30,635,l),
(30,597,l,{
name = hr01;
}),
(74,597,l),
(74,38,l),
(30,38,l),
(30,0,l)
);
},
{
closed = 1;
nodes = (
(247,872,l),
(129,742,l),
(188,671,l),
(295,747,l),
(402,671,l),
(461,742,l),
(343,872,l,{
name = hr00;
})
);
}
);
};
layerId = master01;
shapes = (
{
ref = E;
},
{
pos = (105,0);
ref = circumflexcomb.case;
}
);
width = 571;
}
);
unicode = 202;
},
{
glyphname = Edieresis;
lastChange = "2023-02-17 14:10:25 +0000";
layers = (
{
background = {
shapes = (
{
closed = 1;
nodes = (
(536,0,l),
(536,214,l),
(419,214,l),
(378,60,l),
(289,60,l),
(289,284,l),
(480,284,l),
(480,339,l),
(289,339,l),
(289,575,l),
(378,575,l),
(419,421,l),
(536,421,l),
(536,635,l),
(30,635,l),
(30,597,l,{
name = hr01;
}),
(74,597,l),
(74,38,l),
(30,38,l),
(30,0,l)
);
},
{
closed = 1;
nodes = (
(248,842,o),
(236,850,o),
(185,850,cs),
(127,850,o),
(114,842,o),
(114,767,cs),
(114,692,o),
(127,684,o),
(185,684,cs),
(236,684,o),
(248,692,o),
(248,767,cs,{
name = hr00;
})
);
},
{
closed = 1;
nodes = (
(446,842,o),
(434,850,o),
(383,850,cs),
(325,850,o),
(312,842,o),
(312,767,cs),
(312,692,o),
(325,684,o),
(383,684,cs),
(434,684,o),
(446,692,o),
(446,767,cs)
);
}
);
};
layerId = master01;
shapes = (
{
ref = E;
},
{
pos = (90,0);
ref = dieresiscomb.case;
}
);
width = 571;
}
);
unicode = 203;
},
{
glyphname = Edotaccent;
lastChange = "2023-02-17 14:10:25 +0000";
layers = (
{
background = {
shapes = (
{
closed = 1;
nodes = (
(536,0,l),
(536,214,l),
(419,214,l),
(378,60,l),
(289,60,l),
(289,284,l),
(480,284,l),
(480,339,l),
(289,339,l),
(289,575,l),
(378,575,l),
(419,421,l),
(536,421,l),
(536,635,l),
(30,635,l),
(30,597,l,{
name = hr01;
}),
(74,597,l),
(74,38,l),
(30,38,l),
(30,0,l)
);
},
{
closed = 1;
nodes = (
(386,850,o),
(402,827,o),
(402,760,cs),
(402,693,o),
(386,669,o),
(305,669,cs),
(224,669,o),
(208,693,o),
(208,760,cs),
(208,827,o),
(224,850,o),
(305,850,cs,{
name = hr00;
})
);
}
);
};
layerId = master01;
shapes = (
{
ref = E;
},
{
pos = (154,0);
ref = dotaccentcomb.case;
}
);
width = 571;
}
);
unicode = 278;
},
{
glyphname = Egrave;
lastChange = "2023-02-17 14:10:25 +0000";
layers = (
{
background = {
shapes = (
{
closed = 1;
nodes = (
(536,0,l),
(536,214,l),
(419,214,l),
(378,60,l),
(289,60,l),
(289,284,l),
(480,284,l),
(480,339,l),
(289,339,l),
(289,575,l),
(378,575,l),
(419,421,l),
(536,421,l),
(536,635,l),
(30,635,l),
(30,597,l,{
name = hr01;
}),
(74,597,l),
(74,38,l),
(30,38,l),
(30,0,l)
);
},
{
closed = 1;
nodes = (
(166,730,l),
(393,671,l),
(426,763,l),
(215,865,l,{
name = hr00;
})
);
}
);
};
layerId = master01;
shapes = (
{
ref = E;
},
{
pos = (176,0);
ref = gravecomb.case;
}
);
width = 571;
}
);
unicode = 200;
},
{
glyphname = Emacron;
lastChange = "2023-02-17 14:10:25 +0000";
layers = (
{
background = {
shapes = (
{
closed = 1;
nodes = (
(536,0,l),
(536,214,l),
(419,214,l),
(378,60,l),
(289,60,l),
(289,284,l),
(480,284,l),
(480,339,l),
(289,339,l),
(289,575,l),
(378,575,l),
(419,421,l),
(536,421,l),
(536,635,l),
(30,635,l),
(30,597,l,{
name = hr01;
}),
(74,597,l),
(74,38,l),
(30,38,l),
(30,0,l)
);
},
{
closed = 1;
nodes = (
(451,695,l),
(451,819,l),
(159,819,l),
(159,695,l,{
name = hr00;
})
);
}
);
};
layerId = master01;
shapes = (
{
ref = E;
},
{
pos = (120,0);
ref = macroncomb.case;
}
);
width = 571;
}
);
unicode = 274;
},
{
glyphname = Eogonek;
lastChange = "2023-02-17 14:10:36 +0000";
layers = (
{
background = {
shapes = (
{
closed = 1;
nodes = (
(536,0,l),
(536,214,l),
(419,214,l),
(378,60,l),
(289,60,l),
(289,284,l),
(480,284,l),
(480,339,l),
(289,339,l),
(289,575,l),
(378,575,l),
(419,421,l),
(536,421,l),
(536,635,l),
(30,635,l),
(30,597,l,{
name = hr01;
}),
(74,597,l),
(74,38,l),
(30,38,l),
(30,0,l)
);
},
{
closed = 1;
nodes = (
(329,-141,o),
(369,-165,o),
(421,-165,cs),
(468,-165,o),
(520,-137,o),
(546,-110,c),
(536,-53,l),
(520,-63,o),
(495,-72,o),
(474,-72,cs),
(455,-72,o),
(439,-61,o),
(439,-40,cs),
(439,-14,o),
(455,5,o),
(499,11,c),
(499,38,l),
(391,22,o),
(329,-17,o),
(329,-87,cs,{
name = hr00;
})
);
}
);
};
layerId = master01;
shapes = (
{
ref = E;
},
{
pos = (306,0);
ref = ogonekcomb;
}
);
width = 571;
}
);
unicode = 280;
},
{
glyphname = F;
lastChange = "2023-02-17 14:07:39 +0000";
layers = (
{
anchors = (
{
name = bottom;
pos = (273,0);
},
{
name = top;
pos = (273,635);
}
);
background = {
shapes = (
{
closed = 1;
nodes = (
(470,339,l),
(289,339,l),
(289,575,l),
(368,575,l),
(409,421,l),
(526,421,l),
(526,635,l),
(30,635,l),
(30,597,l,{
name = hr01;
}),
(74,597,l),
(74,38,l),
(30,38,l),
(30,0,l),
(413,0,l),
(413,38,l),
(289,38,l),
(289,284,l),
(470,284,l)
);
}
);
};
layerId = master01;
shapes = (
{
closed = 1;
nodes = (
(470,339,l),
(289,339,l),
(289,575,l),
(368,575,l),
(409,421,l),
(526,421,l),
(526,635,l),
(30,635,l),
(30,597,l,{
name = hr01;
}),
(74,597,l),
(74,38,l),
(30,38,l),
(30,0,l),
(413,0,l),
(413,38,l),
(289,38,l),
(289,284,l),
(470,284,l)
);
}
);
width = 546;
}
);
unicode = 70;
},
{
glyphname = G;
lastChange = "2023-02-17 14:07:39 +0000";
layers = (
{
anchors = (
{
name = bottom;
pos = (310,0);
},
{
name = top;
pos = (310,635);
}
);
background = {
shapes = (
{
closed = 1;
nodes = (
(350,-15,o),
(403,-4,o),
(435,76,c),
(446,76,l),
(475,0,l,{
name = hr01;
}),
(590,0,l),
(590,310,l),
(305,310,l),
(305,255,l),
(375,255,l),
(375,76,l,{
name = hr02;
}),
(235,76,l),
(235,579,l),
(375,579,l),
(375,389,l),
(590,389,l),
(590,408,ls),
(590,632,o),
(474,650,o),
(309,650,cs),
(157,650,o),
(20,650,o),
(20,374,cs),
(20,262,ls),
(20,-15,o),
(146,-15,o),
(286,-15,cs)
);
}
);
};
layerId = master01;
shapes = (
{
closed = 1;
nodes = (
(350,-15,o),
(403,-4,o),
(435,76,c),
(446,76,l),
(475,0,l,{
name = hr01;
}),
(590,0,l),
(590,310,l),
(305,310,l),
(305,255,l),
(375,255,l),
(375,76,l,{
name = hr02;
}),
(235,76,l),
(235,579,l),
(375,579,l),
(375,389,l),
(590,389,l),
(590,408,ls),
(590,632,o),
(474,650,o),
(309,650,cs),
(157,650,o),
(20,650,o),
(20,374,cs),
(20,262,ls),
(20,-15,o),
(146,-15,o),
(286,-15,cs)
);
}
);
width = 620;
}
);
unicode = 71;
},
{
glyphname = Gbreve;
lastChange = "2023-02-17 14:08:22 +0000";
layers = (
{
background = {
shapes = (
{
closed = 1;
nodes = (
(350,-15,o),
(403,-4,o),
(435,76,c),
(446,76,l),
(475,0,l,{
name = hr01;
}),
(590,0,l),
(590,310,l),
(305,310,l),
(305,255,l),
(375,255,l),
(375,76,l,{
name = hr02;
}),
(235,76,l),
(235,579,l),
(375,579,l),
(375,389,l),
(590,389,l),
(590,408,ls),
(590,632,o),
(474,650,o),
(309,650,cs),
(157,650,o),
(20,650,o),
(20,374,cs),
(20,262,ls),
(20,-15,o),
(146,-15,o),
(286,-15,cs)
);
},
{
closed = 1;
nodes = (
(273,795,o),
(222,812,o),
(190,834,c),
(175,810,o),
(160,784,o),
(144,759,c),
(181,702,o),
(240,673,o),
(310,673,cs),
(380,673,o),
(439,702,o),
(476,759,c),
(458,788,o),
(449,804,o),
(430,834,c),
(398,812,o),
(347,795,o),
(310,795,cs,{
name = hr00;
})
);
}
);
};
layerId = master01;
shapes = (
{
ref = G;
},
{
pos = (111,0);
ref = brevecomb.case;
}
);
width = 620;
}
);
unicode = 286;
},
{
glyphname = Gcircumflex;
lastChange = "2023-02-17 14:08:22 +0000";
layers = (
{
background = {
shapes = (
{
closed = 1;
nodes = (
(350,-15,o),
(403,-4,o),
(435,76,c),
(446,76,l),
(475,0,l,{
name = hr01;
}),
(590,0,l),
(590,310,l),
(305,310,l),
(305,255,l),
(375,255,l),
(375,76,l,{
name = hr02;
}),
(235,76,l),
(235,579,l),
(375,579,l),
(375,389,l),
(590,389,l),
(590,408,ls),
(590,632,o),
(474,650,o),
(309,650,cs),
(157,650,o),
(20,650,o),
(20,374,cs),
(20,262,ls),
(20,-15,o),
(146,-15,o),
(286,-15,cs)
);
},
{
closed = 1;
nodes = (
(262,872,l),
(144,742,l),
(203,671,l),
(310,747,l),
(417,671,l),
(476,742,l),
(358,872,l,{
name = hr00;
})
);
}
);
};
layerId = master01;
shapes = (
{
ref = G;
},
{
pos = (109,0);
ref = circumflexcomb.case;
}
);
width = 620;
}
);
unicode = 284;
},
{
glyphname = Gcommaaccent;
lastChange = "2023-02-17 14:08:22 +0000";
layers = (
{
background = {
shapes = (
{
closed = 1;
nodes = (
(350,-15,o),
(403,-4,o),
(435,76,c),
(446,76,l),
(475,0,l,{
name = hr01;
}),
(590,0,l),
(590,310,l),
(305,310,l),
(305,255,l),
(375,255,l),
(375,76,l,{
name = hr02;
}),
(235,76,l),
(235,579,l),
(375,579,l),
(375,389,l),
(590,389,l),
(590,408,ls),
(590,632,o),
(474,650,o),
(309,650,cs),
(157,650,o),
(20,650,o),
(20,374,cs),
(20,262,ls),
(20,-15,o),
(146,-15,o),
(286,-15,cs)
);
},
{
closed = 1;
nodes = (
(390,-47,o),
(376,-40,o),
(318,-40,cs),
(247,-40,o),
(230,-47,o),
(230,-119,cs),
(230,-176,o),
(250,-189,o),
(286,-189,c),
(273,-289,l),
(317,-295,l),
(367,-248,o),
(390,-187,o),
(390,-119,cs,{
name = hr00;
})
);
}
);
};
layerId = master01;
shapes = (
{
ref = G;
},
{
pos = (180,0);
ref = commaaccentcomb;
}
);
width = 620;
}
);
unicode = 290;
},
{
glyphname = Gdotaccent;
lastChange = "2023-02-17 14:08:22 +0000";
layers = (
{
background = {
shapes = (
{
closed = 1;
nodes = (
(350,-15,o),
(403,-4,o),
(435,76,c),
(446,76,l),
(475,0,l,{
name = hr01;
}),
(590,0,l),
(590,310,l),
(305,310,l),
(305,255,l),
(375,255,l),
(375,76,l,{
name = hr02;
}),
(235,76,l),
(235,579,l),
(375,579,l),
(375,389,l),
(590,389,l),
(590,408,ls),
(590,632,o),
(474,650,o),
(309,650,cs),
(157,650,o),
(20,650,o),
(20,374,cs),
(20,262,ls),
(20,-15,o),
(146,-15,o),
(286,-15,cs)
);
},
{
closed = 1;
nodes = (
(391,850,o),
(407,827,o),
(407,760,cs),
(407,693,o),
(391,669,o),
(310,669,cs),
(229,669,o),
(213,693,o),
(213,760,cs),
(213,827,o),
(229,850,o),
(310,850,cs,{
name = hr00;
})
);
}
);
};
layerId = master01;
shapes = (
{
ref = G;
},
{
pos = (158,0);
ref = dotaccentcomb.case;
}
);
width = 620;
}
);
unicode = 288;
},
{
glyphname = H;
lastChange = "2023-02-17 14:07:39 +0000";
layers = (
{
anchors = (
{
name = bottom;
pos = (364,0);
},
{
name = center;
pos = (364,318);
},
{
name = top;
pos = (364,635);
},
{
name = topleft;
pos = (20,635);
}
);
background = {
shapes = (
{
closed = 1;
nodes = (
(289,284,l),
(439,284,l),
(439,0,l),
(698,0,l),
(698,38,l),
(654,38,l),
(654,597,l),
(698,597,l),
(698,635,l),
(439,635,l),
(439,339,l),
(289,339,l),
(289,635,l),
(30,635,l),
(30,597,l),
(74,597,l),
(74,38,l),
(30,38,l),
(30,0,l),
(289,0,l,{
name = hr00;
})
);
}
);
};
layerId = master01;
shapes = (
{
closed = 1;
nodes = (
(289,284,l),
(439,284,l),
(439,0,l),
(698,0,l),
(698,38,l),
(654,38,l),
(654,597,l),
(698,597,l),
(698,635,l),
(439,635,l),
(439,339,l),
(289,339,l),
(289,635,l),
(30,635,l),
(30,597,l),
(74,597,l),
(74,38,l),
(30,38,l),
(30,0,l),
(289,0,l,{
name = hr00;
})
);
}
);
width = 728;
}
);
unicode = 72;
},
{
glyphname = Hbar;
lastChange = "2023-02-17 14:10:51 +0000";
layers = (
{
background = {
shapes = (
{
alignment = -1;
ref = H;
},
{
alignment = -1;
pos = (28,155);
ref = barra;
scale = (2,1);
}
);
};
layerId = master01;
shapes = (
{
closed = 1;
nodes = (
(700,441,l),
(700,503,l),
(28,503,l),
(28,441,l)
);
},
{
alignment = -1;
ref = H;
}
);
width = 728;
}
);
unicode = 294;
},
{
glyphname = Hcircumflex;
lastChange = "2023-02-17 14:08:22 +0000";
layers = (
{
background = {
shapes = (
{
closed = 1;
nodes = (
(289,284,l),
(439,284,l),
(439,0,l),
(698,0,l),
(698,38,l),
(654,38,l),
(654,597,l),
(698,597,l),
(698,635,l),
(439,635,l),
(439,339,l),
(289,339,l),
(289,635,l),
(30,635,l),
(30,597,l),
(74,597,l),
(74,38,l),
(30,38,l),
(30,0,l),
(289,0,l,{
name = hr00;
})
);
},
{
closed = 1;
nodes = (
(316,872,l),
(198,742,l),
(257,671,l),
(364,747,l),
(471,671,l),
(530,742,l),
(412,872,l,{
name = hr00;
})
);
}
);
};
layerId = master01;
shapes = (
{
ref = H;
},
{
pos = (163,0);
ref = circumflexcomb.case;
}
);
width = 728;
}
);
unicode = 292;
},
{
glyphname = I;
lastChange = "2023-02-17 14:11:10 +0000";
layers = (
{
anchors = (
{
name = bottom;
pos = (191,0);
},
{
name = ogonek;
pos = (319,38);
},
{
name = top;
pos = (191,635);
},
{
name = topleft;
pos = (20,635);
}
);
background = {
shapes = (
{
closed = 1;
nodes = (
(342,635,l),
(39,635,l),
(39,597,l),
(83,597,l),
(83,38,l),
(39,38,l),
(39,0,l),
(342,0,l),
(342,38,l),
(298,38,l),
(298,597,l),
(342,597,l,{
name = hr00;
})
);
}
);
};
layerId = master01;
shapes = (
{
closed = 1;
nodes = (
(342,635,l),
(39,635,l),
(39,597,l),
(83,597,l),
(83,38,l),
(39,38,l),
(39,0,l),
(342,0,l),
(342,38,l),
(298,38,l),
(298,597,l),
(342,597,l,{
name = hr00;
})
);
}
);
width = 381;
}
);
unicode = 73;
},
{
glyphname = IJ;
lastChange = "2023-02-17 14:08:22 +0000";
layers = (
{
background = {
shapes = (
{
closed = 1;
nodes = (
(342,635,l),
(39,635,l),
(39,597,l),
(83,597,l),
(83,38,l),
(39,38,l),
(39,0,l),
(342,0,l),
(342,38,l),
(298,38,l),
(298,597,l),
(342,597,l,{
name = hr00;
})
);
},
{
closed = 1;
nodes = (
(500,249,ls),
(516,249,o),
(530,249,o),
(530,223,cs,{
name = hr01;
}),
(530,170,l),
(403,170,l),
(380,0,l),
(402,-6,o),
(433,-15,o),
(499,-15,cs),
(598,-15,o),
(679,23,o),
(679,205,cs),
(679,597,l),
(723,597,l),
(723,635,l),
(400,635,l),
(400,597,l),
(464,597,l,{
name = hr02;
}),
(464,249,l)
);
}
);
};
layerId = master01;
shapes = (
{
ref = I;
},
{
pos = (381,0);
ref = J;
}
);
width = 732;
}
);
unicode = 306;
},
{
glyphname = Iacute;
lastChange = "2023-02-17 14:08:22 +0000";
layers = (
{
background = {
shapes = (
{
closed = 1;
nodes = (
(363,635,l),
(60,635,l),
(60,597,l),
(104,597,l),
(104,38,l),
(60,38,l),
(60,0,l),
(363,0,l),
(363,38,l),
(319,38,l),
(319,597,l),
(363,597,l,{
name = hr00;
})
);
},
{
closed = 1;
nodes = (
(110,671,l),
(337,730,l),
(288,865,l),
(77,763,l,{
name = hr00;
})
);
}
);
};
layerId = master01;
shapes = (
{
ref = I;
},
{
pos = (10,0);
ref = acutecomb.case;
}
);
width = 381;
}
);
unicode = 205;
},
{
glyphname = Ibreve;
lastChange = "2023-02-17 14:08:22 +0000";
layers = (
{
background = {
shapes = (
{
closed = 1;
nodes = (
(342,635,l),
(39,635,l),
(39,597,l),
(83,597,l),
(83,38,l),
(39,38,l),
(39,0,l),
(342,0,l),
(342,38,l),
(298,38,l),
(298,597,l),
(342,597,l,{
name = hr00;
})
);
},
{
closed = 1;
nodes = (
(154,795,o),
(103,812,o),
(71,834,c),
(56,810,o),
(41,784,o),
(25,759,c),
(62,702,o),
(121,673,o),
(191,673,cs),
(261,673,o),
(320,702,o),
(357,759,c),
(339,788,o),
(330,804,o),
(311,834,c),
(279,812,o),
(228,795,o),
(191,795,cs,{
name = hr00;
})
);
}
);
};
layerId = master01;
shapes = (
{
ref = I;
},
{
pos = (-8,0);
ref = brevecomb.case;
}
);
width = 381;
}
);
unicode = 300;
},
{
glyphname = Icircumflex;
lastChange = "2023-02-17 14:08:22 +0000";
layers = (
{
background = {
shapes = (
{
closed = 1;
nodes = (
(363,635,l),
(60,635,l),
(60,597,l),
(104,597,l),
(104,38,l),
(60,38,l),
(60,0,l),
(363,0,l),
(363,38,l),
(319,38,l),
(319,597,l),
(363,597,l,{
name = hr00;
})
);
},
{
closed = 1;
nodes = (
(163,872,l),
(45,742,l),
(104,671,l),
(211,747,l),
(318,671,l),
(377,742,l),
(259,872,l,{
name = hr00;
})
);
}
);
};
layerId = master01;
shapes = (
{
ref = I;
},
{
pos = (-10,0);
ref = circumflexcomb.case;
}
);
width = 381;
}
);
unicode = 206;
},
{
glyphname = Idieresis;
lastChange = "2023-02-17 14:08:22 +0000";
layers = (
{
background = {
shapes = (
{
closed = 1;
nodes = (
(363,635,l),
(60,635,l),
(60,597,l),
(104,597,l),
(104,38,l),
(60,38,l),
(60,0,l),
(363,0,l),
(363,38,l),
(319,38,l),
(319,597,l),
(363,597,l,{
name = hr00;
})
);
},
{
closed = 1;
nodes = (
(179,842,o),
(167,850,o),
(116,850,cs),
(58,850,o),
(45,842,o),
(45,767,cs),
(45,692,o),
(58,684,o),
(116,684,cs),
(167,684,o),
(179,692,o),
(179,767,cs,{
name = hr00;
})
);
},
{
closed = 1;
nodes = (
(377,842,o),
(365,850,o),
(314,850,cs),
(256,850,o),
(243,842,o),
(243,767,cs),
(243,692,o),
(256,684,o),
(314,684,cs),
(365,684,o),
(377,692,o),
(377,767,cs)
);
}
);
};
layerId = master01;
shapes = (
{
ref = I;
},
{
pos = (-25,0);
ref = dieresiscomb.case;
}
);
width = 381;
}
);
unicode = 207;
},
{
glyphname = Idotaccent;
lastChange = "2023-02-17 14:08:22 +0000";
layers = (
{
background = {
shapes = (
{
closed = 1;
nodes = (
(342,635,l),
(39,635,l),
(39,597,l),
(83,597,l),
(83,38,l),
(39,38,l),
(39,0,l),
(342,0,l),
(342,38,l),
(298,38,l),
(298,597,l),
(342,597,l,{
name = hr00;
})
);
},
{
closed = 1;
nodes = (
(271,850,o),
(287,827,o),
(287,760,cs),
(287,693,o),
(271,669,o),
(190,669,cs),
(109,669,o),
(93,693,o),
(93,760,cs),
(93,827,o),
(109,850,o),
(190,850,cs,{
name = hr00;
})
);
}
);
};
layerId = master01;
shapes = (
{
ref = I;
},
{
pos = (39,0);
ref = dotaccentcomb.case;
}
);
width = 381;
}
);
unicode = 304;
},
{
glyphname = Igrave;
lastChange = "2023-02-17 14:08:22 +0000";
layers = (
{
background = {
shapes = (
{
closed = 1;
nodes = (
(363,635,l),
(60,635,l),
(60,597,l),
(104,597,l),
(104,38,l),
(60,38,l),
(60,0,l),
(363,0,l),
(363,38,l),
(319,38,l),
(319,597,l),
(363,597,l,{
name = hr00;
})
);
},
{
closed = 1;
nodes = (
(82,730,l),
(309,671,l),
(342,763,l),
(131,865,l,{
name = hr00;
})
);
}
);
};
layerId = master01;
shapes = (
{
ref = I;
},
{
pos = (61,0);
ref = gravecomb.case;
}
);
width = 381;
}
);
unicode = 204;
},
{
glyphname = Imacron;
lastChange = "2023-02-17 14:08:22 +0000";
layers = (
{
background = {
shapes = (
{
closed = 1;
nodes = (
(342,635,l),
(39,635,l),
(39,597,l),
(83,597,l),
(83,38,l),
(39,38,l),
(39,0,l),
(342,0,l),
(342,38,l),
(298,38,l),
(298,597,l),
(342,597,l,{
name = hr00;
})
);
},
{
closed = 1;
nodes = (
(336,695,l),
(336,819,l),
(44,819,l),
(44,695,l,{
name = hr00;
})
);
}
);
};
layerId = master01;
shapes = (
{
ref = I;
},
{
pos = (5,0);
ref = macroncomb.case;
}
);
width = 381;
}
);
unicode = 298;
},
{
glyphname = Iogonek;
lastChange = "2023-02-17 14:11:10 +0000";
layers = (
{
background = {
shapes = (
{
closed = 1;
nodes = (
(342,635,l),
(39,635,l),
(39,597,l),
(83,597,l),
(83,38,l),
(39,38,l),
(39,0,l),
(342,0,l),
(342,38,l),
(298,38,l),
(298,597,l),
(342,597,l,{
name = hr00;
})
);
},
{
closed = 1;
nodes = (
(102,-141,o),
(142,-165,o),
(194,-165,cs),
(241,-165,o),
(293,-137,o),
(319,-110,c),
(309,-53,l),
(293,-63,o),
(268,-72,o),
(247,-72,cs),
(228,-72,o),
(212,-61,o),
(212,-40,cs),
(212,-14,o),
(228,5,o),
(272,11,c),
(272,38,l),
(164,22,o),
(102,-17,o),
(102,-87,cs,{
name = hr00;
})
);
}
);
};
layerId = master01;
shapes = (
{
ref = I;
},
{
pos = (79,0);
ref = ogonekcomb;
}
);
width = 381;
}
);
unicode = 302;
},
{
glyphname = Itilde;
lastChange = "2023-02-17 14:08:22 +0000";
layers = (
{
background = {
shapes = (
{
closed = 1;
nodes = (
(342,635,l),
(39,635,l),
(39,597,l),
(83,597,l),
(83,38,l),
(39,38,l),
(39,0,l),
(342,0,l),
(342,38,l),
(298,38,l),
(298,597,l),
(342,597,l,{
name = hr00;
})
);
},
{
closed = 1;
nodes = (
(294,840,l),
(266,788,l),
(254,788,l),
(228,827,o),
(191,850,o),
(141,850,cs),
(84,850,o),
(37,821,o),
(24,748,cs),
(14,691,l),
(86,678,l),
(114,729,l),
(126,729,l),
(152,691,o),
(189,668,o),
(238,668,cs),
(296,668,o),
(342,696,o),
(356,769,cs),
(367,826,l,{
name = hr00;
})
);
}
);
};
layerId = master01;
shapes = (
{
ref = I;
},
{
pos = (-11,0);
ref = tildecomb.case;
}
);
width = 381;
}
);
unicode = 296;
},
{
glyphname = J;
lastChange = "2023-02-17 14:07:39 +0000";
layers = (
{
anchors = (
{
name = bottom;
pos = (176,0);
},
{
name = top;
pos = (176,635);
}
);
background = {
shapes = (
{
closed = 1;
nodes = (
(119,249,ls),
(135,249,o),
(149,249,o),
(149,223,cs,{
name = hr01;
}),
(149,170,l),
(22,170,l),
(-1,0,l),
(21,-6,o),
(52,-15,o),
(118,-15,cs),
(217,-15,o),
(298,23,o),
(298,205,cs),
(298,597,l),
(342,597,l),
(342,635,l),
(19,635,l),
(19,597,l),
(83,597,l,{
name = hr02;
}),
(83,249,l)
);
}
);
};
layerId = master01;
shapes = (
{
closed = 1;
nodes = (
(119,249,ls),
(135,249,o),
(149,249,o),
(149,223,cs,{
name = hr01;
}),
(149,170,l),
(22,170,l),
(-1,0,l),
(21,-6,o),
(52,-15,o),
(118,-15,cs),
(217,-15,o),
(298,23,o),
(298,205,cs),
(298,597,l),
(342,597,l),
(342,635,l),
(19,635,l),
(19,597,l),
(83,597,l,{
name = hr02;
}),
(83,249,l)
);
}
);
width = 351;
}
);
unicode = 74;
},
{
glyphname = Jcircumflex;
lastChange = "2023-02-17 14:08:22 +0000";
layers = (
{
background = {
shapes = (
{
closed = 1;
nodes = (
(119,249,ls),
(135,249,o),
(149,249,o),
(149,223,cs,{
name = hr01;
}),
(149,170,l),
(22,170,l),
(-1,0,l),
(21,-6,o),
(52,-15,o),
(118,-15,cs),
(217,-15,o),
(298,23,o),
(298,205,cs),
(298,597,l),
(342,597,l),
(342,635,l),
(19,635,l),
(19,597,l),
(83,597,l,{
name = hr02;
}),
(83,249,l)
);
},
{
closed = 1;
nodes = (
(144,872,l),
(26,742,l),
(85,671,l),
(192,747,l),
(299,671,l),
(358,742,l),
(240,872,l,{
name = hr00;
})
);
}
);
};
layerId = master01;
shapes = (
{
ref = J;
},
{
pos = (-25,0);
ref = circumflexcomb.case;
}
);
width = 351;
}
);
unicode = 308;
},
{
glyphname = K;
lastChange = "2023-02-17 14:07:39 +0000";
layers = (
{
anchors = (
{
name = bottom;
pos = (336,0);
},
{
name = top;
pos = (336,635);
}
);
background = {
shapes = (
{
closed = 1;
nodes = (
(499,326,o),
(527,340,o),
(540,385,cs),
(604,597,l),
(656,597,l),
(656,635,l),
(419,635,l),
(362,339,l),
(289,339,l),
(289,635,l),
(30,635,l),
(30,597,l),
(74,597,l),
(74,38,l),
(30,38,l),
(30,0,l),
(289,0,l),
(289,284,l),
(359,284,l),
(419,0,l),
(666,0,l),
(666,38,l),
(609,38,l),
(569,242,ls),
(560,287,o),
(551,299,o),
(505,299,cs),
(460,299,l),
(460,322,l,{
name = hr00;
})
);
}
);
};
layerId = master01;
shapes = (
{
closed = 1;
nodes = (
(499,326,o),
(527,340,o),
(540,385,cs),
(604,597,l),
(656,597,l),
(656,635,l),
(419,635,l),
(362,339,l),
(289,339,l),
(289,635,l),
(30,635,l),
(30,597,l),
(74,597,l),
(74,38,l),
(30,38,l),
(30,0,l),
(289,0,l),
(289,284,l),
(359,284,l),
(419,0,l),
(666,0,l),
(666,38,l),
(609,38,l),
(569,242,ls),
(560,287,o),
(551,299,o),
(505,299,cs),
(460,299,l),
(460,322,l,{
name = hr00;
})
);
}
);
width = 671;
}
);
unicode = 75;
},
{
glyphname = Kcommaaccent;
lastChange = "2023-02-17 14:08:22 +0000";
layers = (
{
background = {
shapes = (
{
closed = 1;
nodes = (
(499,326,o),
(527,340,o),
(540,385,cs),
(604,597,l),
(656,597,l),
(656,635,l),
(419,635,l),
(362,339,l),
(289,339,l),
(289,635,l),
(30,635,l),
(30,597,l),
(74,597,l),
(74,38,l),
(30,38,l),
(30,0,l),
(289,0,l),
(289,284,l),
(359,284,l),
(419,0,l),
(666,0,l),
(666,38,l),
(609,38,l),
(569,242,ls),
(560,287,o),
(551,299,o),
(505,299,cs),
(460,299,l),
(460,322,l,{
name = hr00;
})
);
},
{
closed = 1;
nodes = (
(415,-47,o),
(401,-40,o),
(343,-40,cs),
(272,-40,o),
(255,-47,o),
(255,-119,cs),
(255,-176,o),
(275,-189,o),
(311,-189,c),
(298,-289,l),
(342,-295,l),
(392,-248,o),
(415,-187,o),
(415,-119,cs,{
name = hr00;
})
);
}
);
};
layerId = master01;
shapes = (
{
ref = K;
},
{
pos = (206,0);
ref = commaaccentcomb;
}
);
width = 671;
}
);
unicode = 310;
},
{
glyphname = L;
lastChange = "2023-02-17 14:11:33 +0000";
layers = (
{
anchors = (
{
name = bottom;
pos = (266,0);
},
{
name = center;
pos = (266,318);
},
{
name = top;
pos = (200,635);
},
{
name = topright;
pos = (345,873);
}
);
background = {
shapes = (
{
closed = 1;
nodes = (
(409,214,l),
(368,60,l),
(289,60,l),
(289,597,l),
(333,597,l),
(333,635,l),
(30,635,l),
(30,597,l),
(74,597,l),
(74,38,l,{
name = hr01;
}),
(30,38,l),
(30,0,l),
(526,0,l),
(526,214,l)
);
}
);
};
layerId = master01;
shapes = (
{
closed = 1;
nodes = (
(409,214,l),
(368,60,l),
(289,60,l),
(289,597,l),
(333,597,l),
(333,635,l),
(30,635,l),
(30,597,l),
(74,597,l),
(74,38,l,{
name = hr01;
}),
(30,38,l),
(30,0,l),
(526,0,l),
(526,214,l)
);
}
);
width = 531;
}
);
unicode = 76;
},
{
glyphname = Lacute;
lastChange = "2023-02-17 14:11:33 +0000";
layers = (
{
background = {
shapes = (
{
closed = 1;
nodes = (
(409,214,l),
(368,60,l),
(289,60,l),
(289,597,l),
(333,597,l),
(333,635,l),
(30,635,l),
(30,597,l),
(74,597,l),
(74,38,l,{
name = hr01;
}),
(30,38,l),
(30,0,l),
(526,0,l),
(526,214,l)
);
},
{
closed = 1;
nodes = (
(103,671,l),
(330,730,l),
(281,865,l),
(70,763,l,{
name = hr00;
})
);
}
);
};
layerId = master01;
shapes = (
{
ref = L;
},
{
pos = (19,0);
ref = acutecomb.case;
}
);
width = 531;
}
);
unicode = 313;
},
{
glyphname = Lcaron;
lastChange = "2023-02-17 14:11:28 +0000";
layers = (
{
background = {
shapes = (
{
closed = 1;
nodes = (
(409,214,l),
(368,60,l),
(289,60,l),
(289,597,l),
(333,597,l),
(333,635,l),
(30,635,l),
(30,597,l),
(74,597,l),
(74,38,l,{
name = hr01;
}),
(30,38,l),
(30,0,l),
(526,0,l),
(526,214,l)
);
},
{
closed = 1;
nodes = (
(525,771,o),
(511,778,o),
(453,778,cs),
(382,778,o),
(365,771,o),
(365,699,cs),
(365,642,o),
(385,629,o),
(421,629,c),
(408,529,l),
(452,523,l),
(502,570,o),
(525,631,o),
(525,699,cs,{
name = hr00;
})
);
}
);
};
layerId = master01;
shapes = (
{
ref = L;
},
{
pos = (330,0);
ref = caroncomb.alt;
}
);
width = 531;
}
);
unicode = 317;
},
{
glyphname = Lcommaaccent;
lastChange = "2023-02-17 14:08:22 +0000";
layers = (
{
background = {
shapes = (
{
closed = 1;
nodes = (
(409,214,l),
(368,60,l),
(289,60,l),
(289,597,l),
(333,597,l),
(333,635,l),
(30,635,l),
(30,597,l),
(74,597,l),
(74,38,l,{
name = hr01;
}),
(30,38,l),
(30,0,l),
(526,0,l),
(526,214,l)
);
},
{
closed = 1;
nodes = (
(345,-47,o),
(331,-40,o),
(273,-40,cs),
(202,-40,o),
(185,-47,o),
(185,-119,cs),
(185,-176,o),
(205,-189,o),
(241,-189,c),
(228,-289,l),
(272,-295,l),
(322,-248,o),
(345,-187,o),
(345,-119,cs,{
name = hr00;
})
);
}
);
};
layerId = master01;
shapes = (
{
ref = L;
},
{
pos = (136,0);
ref = commaaccentcomb;
}
);
width = 531;
}
);
unicode = 315;
},
{
glyphname = Ldot;
lastChange = "2023-02-17 14:11:41 +0000";
layers = (
{
background = {
shapes = (
{
closed = 1;
nodes = (
(409,214,l),
(368,60,l),
(289,60,l),
(289,597,l),
(333,597,l),
(333,635,l),
(30,635,l),
(30,597,l),
(74,597,l),
(74,38,l,{
name = hr01;
}),
(30,38,l),
(30,0,l),
(526,0,l),
(526,214,l)
);
},
{
closed = 1;
nodes = (
(530,464,o),
(512,474,o),
(442,474,cs),
(360,474,o),
(342,464,o),
(342,374,cs),
(342,286,o),
(360,276,o),
(441,276,cs),
(512,276,o),
(530,286,o),
(530,374,cs,{
name = hr00;
})
);
}
);
};
layerId = master01;
shapes = (
{
ref = L;
},
{
pos = (282,100);
ref = periodcentered;
}
);
width = 531;
}
);
unicode = 319;
},
{
glyphname = Lslash;
lastChange = "2023-02-17 14:06:48 +0000";
layers = (
{
background = {
shapes = (
{
closed = 1;
nodes = (
(410,409,l),
(410,471,l),
(17,299,l),
(17,237,l,{
name = hr00;
})
);
},
{
ref = L;
}
);
};
layerId = master01;
shapes = (
{
closed = 1;
nodes = (
(410,409,l),
(410,471,l),
(17,299,l),
(17,237,l,{
name = hr00;
})
);
},
{
ref = L;
}
);
width = 531;
}
);
unicode = 321;
},
{
glyphname = M;
lastChange = "2023-02-17 14:07:39 +0000";
layers = (
{
anchors = (
{
name = bottom;
pos = (423,0);
},
{
name = top;
pos = (423,635);
}
);
background = {
shapes = (
{
closed = 1;
nodes = (
(74,597,l),
(74,38,l),
(30,38,l),
(30,0,l),
(233,0,l),
(152,575,l,{
name = hr01;
}),
(193,575,l),
(322,0,l),
(452,0,l),
(611,575,l),
(652,575,l),
(541,0,l),
(815,0,l),
(815,38,l),
(771,38,l),
(771,597,l,{
name = hr02;
}),
(815,597,l),
(815,635,l),
(547,635,l),
(478,388,l),
(459,388,l),
(404,635,l),
(30,635,l),
(30,597,l)
);
}
);
};
layerId = master01;
shapes = (
{
closed = 1;
nodes = (
(74,597,l),
(74,38,l),
(30,38,l),
(30,0,l),
(233,0,l),
(152,575,l,{
name = hr01;
}),
(193,575,l),
(322,0,l),
(452,0,l),
(611,575,l),
(652,575,l),
(541,0,l),
(815,0,l),
(815,38,l),
(771,38,l),
(771,597,l,{
name = hr02;
}),
(815,597,l),
(815,635,l),
(547,635,l),
(478,388,l),
(459,388,l),
(404,635,l),
(30,635,l),
(30,597,l)
);
}
);
width = 845;
}
);
unicode = 77;
},
{
glyphname = N;
lastChange = "2023-02-17 14:11:59 +0000";
layers = (
{
anchors = (
{
name = bottom;
pos = (383,0);
},
{
name = top;
pos = (364,635);
}
);
background = {
shapes = (
{
closed = 1;
nodes = (
(74,597,l),
(74,38,l),
(30,38,l),
(30,0,l),
(221,0,l),
(152,575,l,{
name = hr01;
}),
(193,575,l),
(322,0,l),
(663,0,l),
(663,597,l,{
name = hr02;
}),
(707,597,l),
(707,635,l),
(516,635,l),
(597,60,l),
(556,60,l),
(415,635,l),
(30,635,l),
(30,597,l)
);
}
);
};
layerId = master01;
shapes = (
{
closed = 1;
nodes = (
(74,597,l),
(74,38,l),
(30,38,l),
(30,0,l),
(221,0,l),
(152,575,l,{
name = hr01;
}),
(193,575,l),
(322,0,l),
(663,0,l),
(663,597,l,{
name = hr02;
}),
(707,597,l),
(707,635,l),
(516,635,l),
(597,60,l),
(556,60,l),
(415,635,l),
(30,635,l),
(30,597,l)
);
}
);
width = 727;
}
);
unicode = 78;
},
{
glyphname = Nacute;
lastChange = "2023-02-17 14:08:22 +0000";
layers = (
{
background = {
shapes = (
{
closed = 1;
nodes = (
(74,597,l),
(74,38,l),
(30,38,l),
(30,0,l),
(221,0,l),
(152,575,l,{
name = hr01;
}),
(193,575,l),
(322,0,l),
(663,0,l),
(663,597,l,{
name = hr02;
}),
(707,597,l),
(707,635,l),
(516,635,l),
(597,60,l),
(556,60,l),
(415,635,l),
(30,635,l),
(30,597,l)
);
},
{
closed = 1;
nodes = (
(296,671,l),
(523,730,l),
(474,865,l),
(263,763,l,{
name = hr00;
})
);
}
);
};
layerId = master01;
shapes = (
{
ref = N;
},
{
pos = (183,0);
ref = acutecomb.case;
}
);
width = 727;
}
);
unicode = 323;
},
{
glyphname = Ncaron;
lastChange = "2023-02-17 14:08:22 +0000";
layers = (
{
background = {
shapes = (
{
closed = 1;
nodes = (
(74,597,l),
(74,38,l),
(30,38,l),
(30,0,l),
(221,0,l),
(152,575,l,{
name = hr01;
}),
(193,575,l),
(322,0,l),
(663,0,l),
(663,597,l,{
name = hr02;
}),
(707,597,l),
(707,635,l),
(516,635,l),
(597,60,l),
(556,60,l),
(415,635,l),
(30,635,l),
(30,597,l)
);
},
{
closed = 1;
nodes = (
(470,873,l),
(363,797,l),
(256,873,l),
(197,802,l),
(315,672,l),
(411,672,l),
(529,802,l,{
name = hr00;
})
);
}
);
};
layerId = master01;
shapes = (
{
ref = N;
},
{
pos = (163,0);
ref = caroncomb.case;
}
);
width = 727;
}
);
unicode = 327;
},
{
glyphname = Ncommaaccent;
lastChange = "2023-02-17 14:11:59 +0000";
layers = (
{
background = {
shapes = (
{
closed = 1;
nodes = (
(74,597,l),
(74,38,l),
(30,38,l),
(30,0,l),
(221,0,l),
(152,575,l,{
name = hr01;
}),
(193,575,l),
(322,0,l),
(663,0,l),
(663,597,l,{
name = hr02;
}),
(707,597,l),
(707,635,l),
(516,635,l),
(597,60,l),
(556,60,l),
(415,635,l),
(30,635,l),
(30,597,l)
);
},
{
closed = 1;
nodes = (
(463,-47,o),
(449,-40,o),
(391,-40,cs),
(320,-40,o),
(303,-47,o),
(303,-119,cs),
(303,-176,o),
(323,-189,o),
(359,-189,c),
(346,-289,l),
(390,-295,l),
(440,-248,o),
(463,-187,o),
(463,-119,cs,{
name = hr00;
})
);
}
);
};
layerId = master01;
shapes = (
{
ref = N;
},
{
pos = (253,0);
ref = commaaccentcomb;
}
);
width = 727;
}
);
unicode = 325;
},
{
glyphname = Ntilde;
lastChange = "2023-02-17 14:08:22 +0000";
layers = (
{
background = {
shapes = (
{
closed = 1;
nodes = (
(74,597,l),
(74,38,l),
(30,38,l),
(30,0,l),
(221,0,l),
(152,575,l,{
name = hr01;
}),
(193,575,l),
(322,0,l),
(663,0,l),
(663,597,l,{
name = hr02;
}),
(707,597,l),
(707,635,l),
(516,635,l),
(597,60,l),
(556,60,l),
(415,635,l),
(30,635,l),
(30,597,l)
);
},
{
closed = 1;
nodes = (
(468,840,l),
(440,788,l),
(428,788,l),
(402,827,o),
(365,850,o),
(315,850,cs),
(258,850,o),
(211,821,o),
(198,748,cs),
(188,691,l),
(260,678,l),
(288,729,l),
(300,729,l),
(326,691,o),
(363,668,o),
(412,668,cs),
(470,668,o),
(516,696,o),
(530,769,cs),
(541,826,l,{
name = hr00;
})
);
}
);
};
layerId = master01;
shapes = (
{
ref = N;
},
{
pos = (162,0);
ref = tildecomb.case;
}
);
width = 727;
}
);
unicode = 209;
},
{
glyphname = Eng;
lastChange = "2023-02-17 14:07:39 +0000";
layers = (
{
anchors = (
{
name = bottom;
pos = (364,0);
},
{
name = top;
pos = (364,635);
}
);
background = {
shapes = (
{
closed = 1;
nodes = (
(74,597,l),
(74,38,l),
(30,38,l),
(30,0,l),
(221,0,l),
(152,575,l,{
name = hr01;
}),
(193,575,l),
(333,0,l),
(509,0,ls),
(525,0,o),
(539,0,o),
(539,-26,cs),
(539,-79,l),
(411,-79,l),
(397,-187,l),
(425,-193,o),
(453,-195,o),
(481,-195,cs),
(600,-195,o),
(663,-146,o),
(663,-29,cs),
(663,597,l,{
name = hr02;
}),
(707,597,l),
(707,635,l),
(516,635,l),
(597,109,l),
(556,109,l),
(415,635,l),
(30,635,l),
(30,597,l)
);
}
);
};
layerId = master01;
shapes = (
{
closed = 1;
nodes = (
(74,597,l),
(74,38,l),
(30,38,l),
(30,0,l),
(221,0,l),
(152,575,l,{
name = hr01;
}),
(193,575,l),
(333,0,l),
(509,0,ls),
(525,0,o),
(539,0,o),
(539,-26,cs),
(539,-79,l),
(411,-79,l),
(397,-187,l),
(425,-193,o),
(453,-195,o),
(481,-195,cs),
(600,-195,o),
(663,-146,o),
(663,-29,cs),
(663,597,l,{
name = hr02;
}),
(707,597,l),
(707,635,l),
(516,635,l),
(597,109,l),
(556,109,l),
(415,635,l),
(30,635,l),
(30,597,l)
);
}
);
width = 727;
}
);
unicode = 330;
},
{
glyphname = O;
lastChange = "2023-02-17 14:07:39 +0000";
layers = (
{
anchors = (
{
name = bottom;
pos = (310,0);
},
{
name = center;
pos = (310,318);
},
{
name = ogonek;
pos = (558,10);
},
{
name = top;
pos = (310,635);
},
{
name = topleft;
pos = (20,635);
},
{
name = topright;
pos = (600,635);
}
);
background = {
shapes = (
{
closed = 1;
nodes = (
(600,650,o),
(470,650,o),
(325,650,cs),
(165,650,o),
(20,650,o),
(20,374,cs),
(20,262,ls),
(20,-15,o),
(150,-15,o),
(295,-15,cs),
(456,-15,o),
(600,-15,o),
(600,262,cs),
(600,374,ls,{
name = hr00;
})
);
},
{
closed = 1;
nodes = (
(235,57,l),
(235,579,l),
(385,579,l),
(385,57,l)
);
}
);
};
layerId = master01;
shapes = (
{
closed = 1;
nodes = (
(600,650,o),
(470,650,o),
(325,650,cs),
(165,650,o),
(20,650,o),
(20,374,cs),
(20,262,ls),
(20,-15,o),
(150,-15,o),
(295,-15,cs),
(456,-15,o),
(600,-15,o),
(600,262,cs),
(600,374,ls,{
name = hr00;
})
);
},
{
closed = 1;
nodes = (
(235,57,l),
(235,579,l),
(385,579,l),
(385,57,l)
);
}
);
width = 620;
}
);
unicode = 79;
},
{
glyphname = Oacute;
lastChange = "2023-02-17 14:08:22 +0000";
layers = (
{
background = {
shapes = (
{
closed = 1;
nodes = (
(600,650,o),
(470,650,o),
(325,650,cs),
(165,650,o),
(20,650,o),
(20,374,cs),
(20,262,ls),
(20,-15,o),
(150,-15,o),
(295,-15,cs),
(456,-15,o),
(600,-15,o),
(600,262,cs),
(600,374,ls,{
name = hr00;
})
);
},
{
closed = 1;
nodes = (
(235,57,l),
(235,579,l),
(385,579,l),
(385,57,l)
);
},
{
closed = 1;
nodes = (
(212,671,l),
(439,730,l),
(390,865,l),
(179,763,l,{
name = hr00;
})
);
}
);
};
layerId = master01;
shapes = (
{
ref = O;
},
{
pos = (129,0);
ref = acutecomb.case;
}
);
width = 620;
}
);
unicode = 211;
},
{
glyphname = Obreve;
lastChange = "2023-02-17 14:08:22 +0000";
layers = (
{
background = {
shapes = (
{
closed = 1;
nodes = (
(600,650,o),
(470,650,o),
(325,650,cs),
(165,650,o),
(20,650,o),
(20,374,cs),
(20,262,ls),
(20,-15,o),
(150,-15,o),
(295,-15,cs),
(456,-15,o),
(600,-15,o),
(600,262,cs),
(600,374,ls,{
name = hr00;
})
);
},
{
closed = 1;
nodes = (
(235,57,l),
(235,579,l),
(385,579,l),
(385,57,l)
);
},
{
closed = 1;
nodes = (
(273,795,o),
(222,812,o),
(190,834,c),
(175,810,o),
(160,784,o),
(144,759,c),
(181,702,o),
(240,673,o),
(310,673,cs),
(380,673,o),
(439,702,o),
(476,759,c),
(458,788,o),
(449,804,o),
(430,834,c),
(398,812,o),
(347,795,o),
(310,795,cs,{
name = hr00;
})
);
}
);
};
layerId = master01;
shapes = (
{
ref = O;
},
{
pos = (111,0);
ref = brevecomb.case;
}
);
width = 620;
}
);
unicode = 334;
},
{
glyphname = Ocircumflex;
lastChange = "2023-02-17 14:08:22 +0000";
layers = (
{
background = {
shapes = (
{
closed = 1;
nodes = (
(600,650,o),
(470,650,o),
(325,650,cs),
(165,650,o),
(20,650,o),
(20,374,cs),
(20,262,ls),
(20,-15,o),
(150,-15,o),
(295,-15,cs),
(456,-15,o),
(600,-15,o),
(600,262,cs),
(600,374,ls,{
name = hr00;
})
);
},
{
closed = 1;
nodes = (
(235,57,l),
(235,579,l),
(385,579,l),
(385,57,l)
);
},
{
closed = 1;
nodes = (
(262,872,l),
(144,742,l),
(203,671,l),
(310,747,l),
(417,671,l),
(476,742,l),
(358,872,l,{
name = hr00;
})
);
}
);
};
layerId = master01;
shapes = (
{
ref = O;
},
{
pos = (109,0);
ref = circumflexcomb.case;
}
);
width = 620;
}
);
unicode = 212;
},
{
glyphname = Odieresis;
lastChange = "2023-02-17 14:08:22 +0000";
layers = (
{
background = {
shapes = (
{
closed = 1;
nodes = (
(600,650,o),
(470,650,o),
(325,650,cs),
(165,650,o),
(20,650,o),
(20,374,cs),
(20,262,ls),
(20,-15,o),
(150,-15,o),
(295,-15,cs),
(456,-15,o),
(600,-15,o),
(600,262,cs),
(600,374,ls,{
name = hr00;
})
);
},
{
closed = 1;
nodes = (
(235,57,l),
(235,579,l),
(385,579,l),
(385,57,l)
);
},
{
closed = 1;
nodes = (
(278,842,o),
(266,850,o),
(215,850,cs),
(157,850,o),
(144,842,o),
(144,767,cs),
(144,692,o),
(157,684,o),
(215,684,cs),
(266,684,o),
(278,692,o),
(278,767,cs,{
name = hr00;
})
);
},
{
closed = 1;
nodes = (
(476,842,o),
(464,850,o),
(413,850,cs),
(355,850,o),
(342,842,o),
(342,767,cs),
(342,692,o),
(355,684,o),
(413,684,cs),
(464,684,o),
(476,692,o),
(476,767,cs)
);
}
);
};
layerId = master01;
shapes = (
{
ref = O;
},
{
pos = (94,0);
ref = dieresiscomb.case;
}
);
width = 620;
}
);
unicode = 214;
},
{
glyphname = Ograve;
lastChange = "2023-02-17 14:08:22 +0000";
layers = (
{
background = {
shapes = (
{
closed = 1;
nodes = (
(600,650,o),
(470,650,o),
(325,650,cs),
(165,650,o),
(20,650,o),
(20,374,cs),
(20,262,ls),
(20,-15,o),
(150,-15,o),
(295,-15,cs),
(456,-15,o),
(600,-15,o),
(600,262,cs),
(600,374,ls,{
name = hr00;
})
);
},
{
closed = 1;
nodes = (
(235,57,l),
(235,579,l),
(385,579,l),
(385,57,l)
);
},
{
closed = 1;
nodes = (
(180,730,l),
(407,671,l),
(440,763,l),
(229,865,l,{
name = hr00;
})
);
}
);
};
layerId = master01;
shapes = (
{
ref = O;
},
{
pos = (180,0);
ref = gravecomb.case;
}
);
width = 620;
}
);
unicode = 210;
},
{
glyphname = Ohungarumlaut;
lastChange = "2023-02-17 14:12:07 +0000";
layers = (
{
background = {
shapes = (
{
closed = 1;
nodes = (
(600,650,o),
(470,650,o),
(325,650,cs),
(165,650,o),
(20,650,o),
(20,374,cs),
(20,262,ls),
(20,-15,o),
(150,-15,o),
(295,-15,cs),
(456,-15,o),
(600,-15,o),
(600,262,cs),
(600,374,ls,{
name = hr00;
})
);
},
{
closed = 1;
nodes = (
(235,57,l),
(235,579,l),
(385,579,l),
(385,57,l)
);
},
{
closed = 1;
nodes = (
(170,665,l),
(325,786,l),
(229,889,l),
(102,735,l,{
name = hr00;
})
);
},
{
closed = 1;
nodes = (
(402,665,l),
(557,786,l),
(461,889,l),
(334,735,l)
);
}
);
};
layerId = master01;
shapes = (
{
ref = O;
},
{
pos = (82,0);
ref = hungarumlautcomb.case;
}
);
width = 620;
}
);
unicode = 336;
},
{
glyphname = Omacron;
lastChange = "2023-02-17 14:08:22 +0000";
layers = (
{
background = {
shapes = (
{
closed = 1;
nodes = (
(600,650,o),
(470,650,o),
(325,650,cs),
(165,650,o),
(20,650,o),
(20,374,cs),
(20,262,ls),
(20,-15,o),
(150,-15,o),
(295,-15,cs),
(456,-15,o),
(600,-15,o),
(600,262,cs),
(600,374,ls,{
name = hr00;
})
);
},
{
closed = 1;
nodes = (
(235,57,l),
(235,579,l),
(385,579,l),
(385,57,l)
);
},
{
closed = 1;
nodes = (
(456,695,l),
(456,819,l),
(164,819,l),
(164,695,l,{
name = hr00;
})
);
}
);
};
layerId = master01;
shapes = (
{
ref = O;
},
{
pos = (124,0);
ref = macroncomb.case;
}
);
width = 620;
}
);
unicode = 332;
},
{
glyphname = Oslash;
lastChange = "2023-02-17 14:12:16 +0000";
layers = (
{
background = {
shapes = (
{
ref = O;
},
{
pos = (191,17);
ref = slash;
}
);
};
layerId = master01;
shapes = (
{
closed = 1;
nodes = (
(224,-112,l,{
name = hr00;
}),
(446,746,l),
(395,746,l),
(174,-112,l)
);
},
{
ref = O;
}
);
width = 620;
}
);
unicode = 216;
},
{
glyphname = Oslashacute;
lastChange = "2023-02-17 14:14:36 +0000";
layers = (
{
background = {
shapes = (
{
closed = 1;
nodes = (
(212,671,l),
(439,730,l),
(390,865,l),
(179,763,l,{
name = hr00;
})
);
},
{
closed = 1;
nodes = (
(446,706,l),
(395,706,l),
(174,-66,l),
(224,-66,l,{
name = hr00;
})
);
},
{
closed = 1;
nodes = (
(600,650,o),
(470,650,o),
(325,650,cs),
(165,650,o),
(20,650,o),
(20,374,cs),
(20,262,ls),
(20,-15,o),
(150,-15,o),
(295,-15,cs),
(456,-15,o),
(600,-15,o),
(600,262,cs),
(600,374,ls,{
name = hr00;
})
);
},
{
closed = 1;
nodes = (
(235,57,l),
(235,579,l),
(385,579,l),
(385,57,l)
);
}
);
};
layerId = master01;
shapes = (
{
closed = 1;
nodes = (
(456,-15,o),
(600,-15,o),
(600,262,cs),
(600,374,ls,{
name = hr00;
}),
(600,650,o),
(470,650,o),
(325,650,cs),
(165,650,o),
(20,650,o),
(20,374,cs),
(20,262,ls),
(20,-15,o),
(150,-15,o),
(295,-15,cs)
);
},
{
closed = 1;
nodes = (
(224,-66,l,{
name = hr00;
}),
(446,706,l),
(395,706,l),
(174,-66,l)
);
},
{
closed = 1;
nodes = (
(235,579,l),
(385,579,l),
(385,57,l),
(235,57,l)
);
},
{
pos = (129,0);
ref = acutecomb.case;
}
);
width = 620;
}
);
unicode = 510;
},
{
glyphname = Otilde;
lastChange = "2023-02-17 14:08:22 +0000";
layers = (
{
background = {
shapes = (
{
closed = 1;
nodes = (
(600,650,o),
(470,650,o),
(325,650,cs),
(165,650,o),
(20,650,o),
(20,374,cs),
(20,262,ls),
(20,-15,o),
(150,-15,o),
(295,-15,cs),
(456,-15,o),
(600,-15,o),
(600,262,cs),
(600,374,ls,{
name = hr00;
})
);
},
{
closed = 1;
nodes = (
(235,57,l),
(235,579,l),
(385,579,l),
(385,57,l)
);
},
{
closed = 1;
nodes = (
(413,840,l),
(385,788,l),
(373,788,l),
(347,827,o),
(310,850,o),
(260,850,cs),
(203,850,o),
(156,821,o),
(143,748,cs),
(133,691,l),
(205,678,l),
(233,729,l),
(245,729,l),
(271,691,o),
(308,668,o),
(357,668,cs),
(415,668,o),
(461,696,o),
(475,769,cs),
(486,826,l,{
name = hr00;
})
);
}
);
};
layerId = master01;
shapes = (
{
ref = O;
},
{
pos = (108,0);
ref = tildecomb.case;
}
);
width = 620;
}
);
unicode = 213;
},
{
glyphname = OE;
lastChange = "2023-02-17 14:07:39 +0000";
layers = (
{
anchors = (
{
name = bottom;
pos = (441,0);
},
{
name = top;
pos = (441,635);
}
);
background = {
shapes = (
{
closed = 1;
nodes = (
(847,214,l),
(730,214,l),
(689,60,l),
(600,60,l),
(600,284,l),
(791,284,l),
(791,339,l),
(600,339,l),
(600,575,l),
(689,575,l),
(730,421,l),
(847,421,l),
(847,635,l),
(325,635,ls),
(165,635,o),
(20,635,o),
(20,374,cs),
(20,262,ls),
(20,0,o),
(150,0,o),
(295,0,cs),
(847,0,l,{
name = hr00;
})
);
},
{
closed = 1;
nodes = (
(235,60,l),
(235,575,l),
(385,575,l),
(385,60,l)
);
}
);
};
layerId = master01;
shapes = (
{
closed = 1;
nodes = (
(847,214,l),
(730,214,l),
(689,60,l),
(600,60,l),
(600,284,l),
(791,284,l),
(791,339,l),
(600,339,l),
(600,575,l),
(689,575,l),
(730,421,l),
(847,421,l),
(847,635,l),
(325,635,ls),
(165,635,o),
(20,635,o),
(20,374,cs),
(20,262,ls),
(20,0,o),
(150,0,o),
(295,0,cs),
(847,0,l,{
name = hr00;
})
);
},
{
closed = 1;
nodes = (
(235,60,l),
(235,575,l),
(385,575,l),
(385,60,l)
);
}
);
width = 882;
}
);
unicode = 338;
},
{
glyphname = P;
lastChange = "2023-02-17 14:07:39 +0000";
layers = (
{
anchors = (
{
name = bottom;
pos = (335,0);
},
{
name = top;
pos = (335,635);
}
);
background = {
shapes = (
{
closed = 1;
nodes = (
(289,215,l),
(289,565,l),
(439,565,l),
(439,215,l)
);
},
{
closed = 1;
nodes = (
(413,38,l),
(289,38,l),
(289,143,l),
(379,143,ls),
(524,143,o),
(654,144,o),
(654,390,cs),
(654,634,o),
(526,635,o),
(382,635,cs),
(30,635,l),
(30,597,l,{
name = hr01;
}),
(74,597,l),
(74,38,l),
(30,38,l),
(30,0,l),
(413,0,l)
);
}
);
};
layerId = master01;
shapes = (
{
closed = 1;
nodes = (
(289,215,l),
(289,565,l),
(439,565,l),
(439,215,l)
);
},
{
closed = 1;
nodes = (
(413,38,l),
(289,38,l),
(289,143,l),
(379,143,ls),
(524,143,o),
(654,144,o),
(654,390,cs),
(654,634,o),
(526,635,o),
(382,635,cs),
(30,635,l),
(30,597,l,{
name = hr01;
}),
(74,597,l),
(74,38,l),
(30,38,l),
(30,0,l),
(413,0,l)
);
}
);
width = 669;
}
);
unicode = 80;
},
{
glyphname = Thorn;
lastChange = "2023-02-17 14:07:39 +0000";
layers = (
{
anchors = (
{
name = bottom;
pos = (335,0);
},
{
name = top;
pos = (335,635);
}
);
background = {
shapes = (
{
closed = 1;
nodes = (
(654,583,o),
(526,584,o),
(382,584,cs),
(289,584,l),
(289,635,l),
(30,635,l),
(30,597,l),
(74,597,l),
(74,38,l),
(30,38,l),
(30,0,l),
(333,0,l),
(333,38,l),
(289,38,l),
(289,92,l),
(379,92,ls),
(524,92,o),
(654,93,o),
(654,339,cs,{
name = hr00;
})
);
},
{
closed = 1;
nodes = (
(289,164,l),
(289,514,l),
(439,514,l),
(439,164,l)
);
}
);
};
layerId = master01;
shapes = (
{
closed = 1;
nodes = (
(654,583,o),
(526,584,o),
(382,584,cs),
(289,584,l),
(289,635,l),
(30,635,l),
(30,597,l),
(74,597,l),
(74,38,l),
(30,38,l),
(30,0,l),
(333,0,l),
(333,38,l),
(289,38,l),
(289,92,l),
(379,92,ls),
(524,92,o),
(654,93,o),
(654,339,cs,{
name = hr00;
})
);
},
{
closed = 1;
nodes = (
(289,164,l),
(289,514,l),
(439,514,l),
(439,164,l)
);
}
);
width = 669;
}
);
unicode = 222;
},
{
glyphname = Q;
lastChange = "2023-02-17 14:07:39 +0000";
layers = (
{
anchors = (
{
name = bottom;
pos = (310,0);
},
{
name = top;
pos = (310,635);
}
);
background = {
shapes = (
{
closed = 1;
nodes = (
(531,-127,l),
(424,-127,l),
(400,-15,ls),
(512,-15,o),
(600,49,o),
(600,257,cs),
(600,374,ls),
(600,650,o),
(470,650,o),
(325,650,cs),
(165,650,o),
(20,650,o),
(20,374,cs),
(20,257,ls),
(20,49,o),
(108,-15,o),
(220,-15,cs),
(252,-165,l),
(531,-165,l,{
name = hr00;
})
);
},
{
closed = 1;
nodes = (
(235,54,l),
(235,579,l),
(385,579,l),
(385,54,l)
);
}
);
};
layerId = master01;
shapes = (
{
closed = 1;
nodes = (
(531,-127,l),
(424,-127,l),
(400,-15,ls),
(512,-15,o),
(600,49,o),
(600,257,cs),
(600,374,ls),
(600,650,o),
(470,650,o),
(325,650,cs),
(165,650,o),
(20,650,o),
(20,374,cs),
(20,257,ls),
(20,49,o),
(108,-15,o),
(220,-15,cs),
(252,-165,l),
(531,-165,l,{
name = hr00;
})
);
},
{
closed = 1;
nodes = (
(235,54,l),
(235,579,l),
(385,579,l),
(385,54,l)
);
}
);
width = 620;
}
);
unicode = 81;
},
{
glyphname = R;
lastChange = "2023-02-17 14:14:50 +0000";
layers = (
{
anchors = (
{
name = bottom;
pos = (368,0);
},
{
name = top;
pos = (368,635);
}
);
background = {
shapes = (
{
closed = 1;
nodes = (
(289,210,l),
(439,210,l),
(439,0,l),
(686,0,l),
(686,38,l),
(633,38,l),
(616,180,ls),
(611,226,o),
(598,240,o),
(552,240,cs),
(507,240,l),
(507,263,l),
(592,276,o),
(654,317,o),
(654,447,cs),
(654,634,o),
(526,635,o),
(382,635,cs),
(30,635,l),
(30,597,l,{
name = hr01;
}),
(74,597,l),
(74,38,l),
(30,38,l),
(30,0,l),
(289,0,l)
);
},
{
closed = 1;
nodes = (
(289,282,l),
(289,565,l,{
name = hr02;
}),
(439,565,l),
(439,282,l)
);
}
);
};
layerId = master01;
shapes = (
{
closed = 1;
nodes = (
(289,210,l),
(439,210,l),
(439,0,l),
(686,0,l),
(686,38,l),
(633,38,l),
(616,180,ls),
(610,226,o),
(598,240,o),
(552,240,cs),
(507,240,l),
(507,263,l),
(592,276,o),
(654,317,o),
(654,447,cs),
(654,634,o),
(526,635,o),
(382,635,cs),
(30,635,l),
(30,597,l,{
name = hr01;
}),
(74,597,l),
(74,38,l),
(30,38,l),
(30,0,l),
(289,0,l)
);
},
{
closed = 1;
nodes = (
(289,282,l),
(289,565,l,{
name = hr02;
}),
(439,565,l),
(439,282,l)
);
}
);
width = 676;
}
);
unicode = 82;
},
{
glyphname = Racute;
lastChange = "2023-02-17 14:14:50 +0000";
layers = (
{
background = {
shapes = (
{
closed = 1;
nodes = (
(289,210,l),
(439,210,l),
(439,0,l),
(686,0,l),
(686,38,l),
(633,38,l),
(616,180,ls),
(611,226,o),
(598,240,o),
(552,240,cs),
(507,240,l),
(507,263,l),
(592,276,o),
(654,317,o),
(654,447,cs),
(654,634,o),
(526,635,o),
(382,635,cs),
(30,635,l),
(30,597,l,{
name = hr01;
}),
(74,597,l),
(74,38,l),
(30,38,l),
(30,0,l),
(289,0,l)
);
},
{
closed = 1;
nodes = (
(289,282,l),
(289,565,l,{
name = hr02;
}),
(439,565,l),
(439,282,l)
);
},
{
closed = 1;
nodes = (
(281,671,l),
(508,730,l),
(459,865,l),
(248,763,l,{
name = hr00;
})
);
}
);
};
layerId = master01;
shapes = (
{
ref = R;
},
{
pos = (187,0);
ref = acutecomb.case;
}
);
width = 676;
}
);
unicode = 340;
},
{
glyphname = Rcaron;
lastChange = "2023-02-17 14:14:50 +0000";
layers = (
{
background = {
shapes = (
{
closed = 1;
nodes = (
(289,210,l),
(439,210,l),
(439,0,l),
(686,0,l),
(686,38,l),
(633,38,l),
(616,180,ls),
(611,226,o),
(598,240,o),
(552,240,cs),
(507,240,l),
(507,263,l),
(592,276,o),
(654,317,o),
(654,447,cs),
(654,634,o),
(526,635,o),
(382,635,cs),
(30,635,l),
(30,597,l,{
name = hr01;
}),
(74,597,l),
(74,38,l),
(30,38,l),
(30,0,l),
(289,0,l)
);
},
{
closed = 1;
nodes = (
(289,282,l),
(289,565,l,{
name = hr02;
}),
(439,565,l),
(439,282,l)
);
},
{
closed = 1;
nodes = (
(475,873,l),
(368,797,l),
(261,873,l),
(202,802,l),
(320,672,l),
(416,672,l),
(534,802,l,{
name = hr00;
})
);
}
);
};
layerId = master01;
shapes = (
{
ref = R;
},
{
pos = (167,0);
ref = caroncomb.case;
}
);
width = 676;
}
);
unicode = 344;
},
{
glyphname = Rcommaaccent;
lastChange = "2023-02-17 14:14:47 +0000";
layers = (
{
background = {
shapes = (
{
closed = 1;
nodes = (
(289,210,l),
(439,210,l),
(439,0,l),
(686,0,l),
(686,38,l),
(633,38,l),
(616,180,ls),
(611,226,o),
(598,240,o),
(552,240,cs),
(507,240,l),
(507,263,l),
(592,276,o),
(654,317,o),
(654,447,cs),
(654,634,o),
(526,635,o),
(382,635,cs),
(30,635,l),
(30,597,l,{
name = hr01;
}),
(74,597,l),
(74,38,l),
(30,38,l),
(30,0,l),
(289,0,l)
);
},
{
closed = 1;
nodes = (
(289,282,l),
(289,565,l,{
name = hr02;
}),
(439,565,l),
(439,282,l)
);
},
{
closed = 1;
nodes = (
(448,-47,o),
(434,-40,o),
(376,-40,cs),
(305,-40,o),
(288,-47,o),
(288,-119,cs),
(288,-176,o),
(308,-189,o),
(344,-189,c),
(331,-289,l),
(375,-295,l),
(425,-248,o),
(448,-187,o),
(448,-119,cs,{
name = hr00;
})
);
}
);
};
layerId = master01;
shapes = (
{
ref = R;
},
{
pos = (238,0);
ref = commaaccentcomb;
}
);
width = 676;
}
);
unicode = 342;
},
{
glyphname = S;
lastChange = "2023-02-17 14:15:08 +0000";
layers = (
{
anchors = (
{
name = bottom;
pos = (253,0);
},
{
name = top;
pos = (288,635);
}
);
background = {
shapes = (
{
closed = 1;
nodes = (
(410,-15,o),
(535,2,o),
(535,157,cs),
(535,250,o),
(505,303,o),
(449,344,cs),
(252,490,l),
(252,565,l),
(352,565,l),
(379,437,l),
(495,437,l),
(522,617,l),
(453,637,o),
(362,651,o),
(293,651,cs),
(153,651,o),
(29,634,o),
(29,479,cs),
(29,386,o),
(59,333,o),
(115,292,cs),
(312,146,l),
(312,71,l),
(201,71,l),
(170,199,l),
(42,199,l),
(15,19,l),
(90,-1,o),
(194,-15,o),
(271,-15,cs,{
name = hr00;
})
);
}
);
};
layerId = master01;
shapes = (
{
closed = 1;
nodes = (
(410,-15,o),
(535,2,o),
(535,157,cs),
(535,250,o),
(505,303,o),
(449,344,cs),
(252,490,l),
(252,565,l),
(352,565,l),
(379,437,l),
(495,437,l),
(522,617,l),
(453,637,o),
(362,651,o),
(293,651,cs),
(153,651,o),
(29,634,o),
(29,479,cs),
(29,386,o),
(59,333,o),
(115,292,cs),
(312,146,l),
(312,71,l),
(201,71,l),
(170,199,l),
(42,199,l),
(15,19,l),
(90,-1,o),
(194,-15,o),
(271,-15,cs,{
name = hr00;
})
);
}
);
width = 555;
}
);
unicode = 83;
},
{
glyphname = Sacute;
lastChange = "2023-02-17 14:15:08 +0000";
layers = (
{
background = {
shapes = (
{
closed = 1;
nodes = (
(410,-15,o),
(535,2,o),
(535,157,cs),
(535,250,o),
(505,303,o),
(449,344,cs),
(252,490,l),
(252,565,l),
(352,565,l),
(379,437,l),
(495,437,l),
(522,617,l),
(453,637,o),
(362,651,o),
(293,651,cs),
(153,651,o),
(29,634,o),
(29,479,cs),
(29,386,o),
(59,333,o),
(115,292,cs),
(312,146,l),
(312,71,l),
(201,71,l),
(170,199,l),
(42,199,l),
(15,19,l),
(90,-1,o),
(194,-15,o),
(271,-15,cs,{
name = hr00;
})
);
},
{
closed = 1;
nodes = (
(200,671,l),
(427,730,l),
(378,865,l),
(167,763,l,{
name = hr00;
})
);
}
);
};
layerId = master01;
shapes = (
{
ref = S;
},
{
pos = (107,0);
ref = acutecomb.case;
}
);
width = 555;
}
);
unicode = 346;
},
{
glyphname = Scaron;
lastChange = "2023-02-17 14:15:08 +0000";
layers = (
{
background = {
shapes = (
{
closed = 1;
nodes = (
(410,-15,o),
(535,2,o),
(535,157,cs),
(535,250,o),
(505,303,o),
(449,344,cs),
(252,490,l),
(252,565,l),
(352,565,l),
(379,437,l),
(495,437,l),
(522,617,l),
(453,637,o),
(362,651,o),
(293,651,cs),
(153,651,o),
(29,634,o),
(29,479,cs),
(29,386,o),
(59,333,o),
(115,292,cs),
(312,146,l),
(312,71,l),
(201,71,l),
(170,199,l),
(42,199,l),
(15,19,l),
(90,-1,o),
(194,-15,o),
(271,-15,cs,{
name = hr00;
})
);
},
{
closed = 1;
nodes = (
(378,873,l),
(271,797,l),
(164,873,l),
(105,802,l),
(223,672,l),
(319,672,l),
(437,802,l,{
name = hr00;
})
);
}
);
};
layerId = master01;
shapes = (
{
ref = S;
},
{
pos = (87,0);
ref = caroncomb.case;
}
);
width = 555;
}
);
unicode = 352;
},
{
glyphname = Scedilla;
lastChange = "2023-02-17 14:15:05 +0000";
layers = (
{
background = {
shapes = (
{
closed = 1;
nodes = (
(410,-15,o),
(535,2,o),
(535,157,cs),
(535,250,o),
(505,303,o),
(449,344,cs),
(252,490,l),
(252,565,l),
(352,565,l),
(379,437,l),
(495,437,l),
(522,617,l),
(453,637,o),
(362,651,o),
(293,651,cs),
(153,651,o),
(29,634,o),
(29,479,cs),
(29,386,o),
(59,333,o),
(115,292,cs),
(312,146,l),
(312,71,l),
(201,71,l),
(170,199,l),
(42,199,l),
(15,19,l),
(90,-1,o),
(194,-15,o),
(271,-15,cs,{
name = hr00;
})
);
},
{
closed = 1;
nodes = (
(364,-4,o),
(304,6,o),
(261,6,c),
(261,-104,l),
(234,-104,l),
(200,-52,l),
(148,-52,l),
(141,-149,l),
(170,-157,o),
(210,-165,o),
(253,-165,cs),
(305,-165,o),
(364,-146,o),
(364,-76,cs,{
name = hr00;
})
);
}
);
};
layerId = master01;
shapes = (
{
ref = S;
},
{
pos = (128,0);
ref = cedillacomb;
}
);
width = 555;
}
);
unicode = 350;
},
{
glyphname = Scircumflex;
lastChange = "2023-02-17 14:15:08 +0000";
layers = (
{
background = {
shapes = (
{
closed = 1;
nodes = (
(410,-15,o),
(535,2,o),
(535,157,cs),
(535,250,o),
(505,303,o),
(449,344,cs),
(252,490,l),
(252,565,l),
(352,565,l),
(379,437,l),
(495,437,l),
(522,617,l),
(453,637,o),
(362,651,o),
(293,651,cs),
(153,651,o),
(29,634,o),
(29,479,cs),
(29,386,o),
(59,333,o),
(115,292,cs),
(312,146,l),
(312,71,l),
(201,71,l),
(170,199,l),
(42,199,l),
(15,19,l),
(90,-1,o),
(194,-15,o),
(271,-15,cs,{
name = hr00;
})
);
},
{
closed = 1;
nodes = (
(249,872,l),
(131,742,l),
(190,671,l),
(297,747,l),
(404,671,l),
(463,742,l),
(345,872,l,{
name = hr00;
})
);
}
);
};
layerId = master01;
shapes = (
{
ref = S;
},
{
pos = (87,0);
ref = circumflexcomb.case;
}
);
width = 555;
}
);
unicode = 348;
},
{
glyphname = Scommaaccent;
lastChange = "2023-02-17 14:15:05 +0000";
layers = (
{
background = {
shapes = (
{
closed = 1;
nodes = (
(410,-15,o),
(535,2,o),
(535,157,cs),
(535,250,o),
(505,303,o),
(449,344,cs),
(252,490,l),
(252,565,l),
(352,565,l),
(379,437,l),
(495,437,l),
(522,617,l),
(453,637,o),
(362,651,o),
(293,651,cs),
(153,651,o),
(29,634,o),
(29,479,cs),
(29,386,o),
(59,333,o),
(115,292,cs),
(312,146,l),
(312,71,l),
(201,71,l),
(170,199,l),
(42,199,l),
(15,19,l),
(90,-1,o),
(194,-15,o),
(271,-15,cs,{
name = hr00;
})
);
},
{
closed = 1;
nodes = (
(357,-47,o),
(343,-40,o),
(285,-40,cs),
(214,-40,o),
(197,-47,o),
(197,-119,cs),
(197,-176,o),
(217,-189,o),
(253,-189,c),
(240,-289,l),
(284,-295,l),
(334,-248,o),
(357,-187,o),
(357,-119,cs,{
name = hr00;
})
);
}
);
};
layerId = master01;
shapes = (
{
ref = S;
},
{
pos = (123,0);
ref = commaaccentcomb;
}
);
width = 555;
}
);
unicode = 536;
},
{
glyphname = T;
lastChange = "2023-02-17 14:07:39 +0000";
layers = (
{
anchors = (
{
name = bottom;
pos = (290,0);
},
{
name = center;
pos = (290,318);
},
{
name = top;
pos = (290,635);
}
);
background = {
shapes = (
{
closed = 1;
nodes = (
(5,635,l),
(5,421,l),
(122,421,l),
(147,565,l),
(204,565,l),
(182,397,l),
(182,38,l),
(98,38,l),
(98,0,l),
(481,0,l),
(481,38,l),
(397,38,l),
(397,397,l),
(375,565,l),
(432,565,l),
(457,427,l),
(574,427,l),
(574,635,l,{
name = hr00;
})
);
}
);
};
layerId = master01;
shapes = (
{
closed = 1;
nodes = (
(5,635,l),
(5,421,l),
(122,421,l),
(147,565,l),
(204,565,l),
(182,397,l),
(182,38,l),
(98,38,l),
(98,0,l),
(481,0,l),
(481,38,l),
(397,38,l),
(397,397,l),
(375,565,l),
(432,565,l),
(457,427,l),
(574,427,l),
(574,635,l,{
name = hr00;
})
);
}
);
width = 579;
}
);
unicode = 84;
},
{
glyphname = Tbar;
lastChange = "2023-02-17 14:14:59 +0000";
layers = (
{
background = {
shapes = (
{
alignment = -1;
ref = T;
},
{
alignment = -1;
pos = (54,-34);
ref = barra;
scale = (1.4,1);
}
);
};
layerId = master01;
shapes = (
{
closed = 1;
nodes = (
(524,252,l),
(524,314,l),
(54,314,l),
(54,252,l)
);
},
{
alignment = -1;
ref = T;
}
);
width = 579;
}
);
unicode = 358;
},
{
glyphname = Tcaron;
lastChange = "2023-02-17 14:08:22 +0000";
layers = (
{
background = {
shapes = (
{
closed = 1;
nodes = (
(5,635,l),
(5,421,l),
(122,421,l),
(147,565,l),
(204,565,l),
(182,397,l),
(182,38,l),
(98,38,l),
(98,0,l),
(481,0,l),
(481,38,l),
(397,38,l),
(397,397,l),
(375,565,l),
(432,565,l),
(457,427,l),
(574,427,l),
(574,635,l,{
name = hr00;
})
);
},
{
closed = 1;
nodes = (
(396,873,l),
(289,797,l),
(182,873,l),
(123,802,l),
(241,672,l),
(337,672,l),
(455,802,l,{
name = hr00;
})
);
}
);
};
layerId = master01;
shapes = (
{
ref = T;
},
{
pos = (89,0);
ref = caroncomb.case;
}
);
width = 579;
}
);
unicode = 356;
},
{
glyphname = Tcedilla;
lastChange = "2023-02-17 14:08:22 +0000";
layers = (
{
background = {
shapes = (
{
closed = 1;
nodes = (
(5,635,l),
(5,421,l),
(122,421,l),
(147,565,l),
(204,565,l),
(182,397,l),
(182,38,l),
(98,38,l),
(98,0,l),
(481,0,l),
(481,38,l),
(397,38,l),
(397,397,l),
(375,565,l),
(432,565,l),
(457,427,l),
(574,427,l),
(574,635,l,{
name = hr00;
})
);
},
{
closed = 1;
nodes = (
(401,-4,o),
(341,6,o),
(298,6,c),
(298,-104,l),
(271,-104,l),
(237,-52,l),
(185,-52,l),
(178,-149,l),
(207,-157,o),
(247,-165,o),
(290,-165,cs),
(342,-165,o),
(401,-146,o),
(401,-76,cs,{
name = hr00;
})
);
}
);
};
layerId = master01;
shapes = (
{
ref = T;
},
{
pos = (165,0);
ref = cedillacomb;
}
);
width = 579;
}
);
unicode = 354;
},
{
glyphname = Tcommaaccent;
lastChange = "2023-02-17 14:08:22 +0000";
layers = (
{
background = {
shapes = (
{
closed = 1;
nodes = (
(5,635,l),
(5,421,l),
(122,421,l),
(147,565,l),
(204,565,l),
(182,397,l),
(182,38,l),
(98,38,l),
(98,0,l),
(481,0,l),
(481,38,l),
(397,38,l),
(397,397,l),
(375,565,l),
(432,565,l),
(457,427,l),
(574,427,l),
(574,635,l,{
name = hr00;
})
);
},
{
closed = 1;
nodes = (
(369,-47,o),
(355,-40,o),
(297,-40,cs),
(226,-40,o),
(209,-47,o),
(209,-119,cs),
(209,-176,o),
(229,-189,o),
(265,-189,c),
(252,-289,l),
(296,-295,l),
(346,-248,o),
(369,-187,o),
(369,-119,cs,{
name = hr00;
})
);
}
);
};
layerId = master01;
shapes = (
{
ref = T;
},
{
pos = (160,0);
ref = commaaccentcomb;
}
);
width = 579;
}
);
unicode = 538;
},
{
glyphname = U;
lastChange = "2023-02-17 14:15:27 +0000";
layers = (
{
anchors = (
{
name = bottom;
pos = (324,0);
},
{
name = ogonek;
pos = (483,38);
},
{
name = top;
pos = (344,635);
},
{
name = topright;
pos = (628,635);
}
);
background = {
shapes = (
{
closed = 1;
nodes = (
(274,635,l),
(10,635,l),
(10,597,l),
(54,597,l),
(54,234,ls),
(54,-15,o),
(187,-15,o),
(334,-15,cs),
(472,-15,o),
(594,-15,o),
(594,234,cs),
(594,597,l),
(638,597,l),
(638,635,l),
(424,635,l),
(424,57,l),
(274,57,l,{
name = hr00;
})
);
}
);
};
layerId = master01;
shapes = (
{
closed = 1;
nodes = (
(274,635,l),
(10,635,l),
(10,597,l),
(54,597,l),
(54,234,ls),
(54,-15,o),
(187,-15,o),
(334,-15,cs),
(472,-15,o),
(594,-15,o),
(594,234,cs),
(594,597,l),
(638,597,l),
(638,635,l),
(424,635,l),
(424,57,l),
(274,57,l,{
name = hr00;
})
);
}
);
width = 648;
}
);
unicode = 85;
},
{
glyphname = Uacute;
lastChange = "2023-02-17 14:15:17 +0000";
layers = (
{
background = {
shapes = (
{
closed = 1;
nodes = (
(274,635,l),
(10,635,l),
(10,597,l),
(54,597,l),
(54,234,ls),
(54,-15,o),
(187,-15,o),
(334,-15,cs),
(472,-15,o),
(594,-15,o),
(594,234,cs),
(594,597,l),
(638,597,l),
(638,635,l),
(424,635,l),
(424,57,l),
(274,57,l,{
name = hr00;
})
);
},
{
closed = 1;
nodes = (
(242,671,l),
(469,730,l),
(420,865,l),
(209,763,l,{
name = hr00;
})
);
}
);
};
layerId = master01;
shapes = (
{
ref = U;
},
{
pos = (163,0);
ref = acutecomb.case;
}
);
width = 648;
}
);
unicode = 218;
},
{
glyphname = Ubreve;
lastChange = "2023-02-17 14:15:17 +0000";
layers = (
{
background = {
shapes = (
{
closed = 1;
nodes = (
(274,635,l),
(10,635,l),
(10,597,l),
(54,597,l),
(54,234,ls),
(54,-15,o),
(187,-15,o),
(334,-15,cs),
(472,-15,o),
(594,-15,o),
(594,234,cs),
(594,597,l),
(638,597,l),
(638,635,l),
(424,635,l),
(424,57,l),
(274,57,l,{
name = hr00;
})
);
},
{
closed = 1;
nodes = (
(287,795,o),
(236,812,o),
(204,834,c),
(189,810,o),
(174,784,o),
(158,759,c),
(195,702,o),
(254,673,o),
(324,673,cs),
(394,673,o),
(453,702,o),
(490,759,c),
(472,788,o),
(463,804,o),
(444,834,c),
(412,812,o),
(361,795,o),
(324,795,cs,{
name = hr00;
})
);
}
);
};
layerId = master01;
shapes = (
{
ref = U;
},
{
pos = (145,0);
ref = brevecomb.case;
}
);
width = 648;
}
);
unicode = 364;
},
{
glyphname = Ucircumflex;
lastChange = "2023-02-17 14:15:17 +0000";
layers = (
{
background = {
shapes = (
{
closed = 1;
nodes = (
(274,635,l),
(10,635,l),
(10,597,l),
(54,597,l),
(54,234,ls),
(54,-15,o),
(187,-15,o),
(334,-15,cs),
(472,-15,o),
(594,-15,o),
(594,234,cs),
(594,597,l),
(638,597,l),
(638,635,l),
(424,635,l),
(424,57,l),
(274,57,l,{
name = hr00;
})
);
},
{
closed = 1;
nodes = (
(296,872,l),
(178,742,l),
(237,671,l),
(344,747,l),
(451,671,l),
(510,742,l),
(392,872,l,{
name = hr00;
})
);
}
);
};
layerId = master01;
shapes = (
{
ref = U;
},
{
pos = (143,0);
ref = circumflexcomb.case;
}
);
width = 648;
}
);
unicode = 219;
},
{
glyphname = Udieresis;
lastChange = "2023-02-17 14:15:17 +0000";
layers = (
{
background = {
shapes = (
{
closed = 1;
nodes = (
(274,635,l),
(10,635,l),
(10,597,l),
(54,597,l),
(54,234,ls),
(54,-15,o),
(187,-15,o),
(334,-15,cs),
(472,-15,o),
(594,-15,o),
(594,234,cs),
(594,597,l),
(638,597,l),
(638,635,l),
(424,635,l),
(424,57,l),
(274,57,l,{
name = hr00;
})
);
},
{
closed = 1;
nodes = (
(297,842,o),
(285,850,o),
(234,850,cs),
(176,850,o),
(163,842,o),
(163,767,cs),
(163,692,o),
(176,684,o),
(234,684,cs),
(285,684,o),
(297,692,o),
(297,767,cs,{
name = hr00;
})
);
},
{
closed = 1;
nodes = (
(495,842,o),
(483,850,o),
(432,850,cs),
(374,850,o),
(361,842,o),
(361,767,cs),
(361,692,o),
(374,684,o),
(432,684,cs),
(483,684,o),
(495,692,o),
(495,767,cs)
);
}
);
};
layerId = master01;
shapes = (
{
ref = U;
},
{
pos = (128,0);
ref = dieresiscomb.case;
}
);
width = 648;
}
);
unicode = 220;
},
{
glyphname = Ugrave;
lastChange = "2023-02-17 14:15:17 +0000";
layers = (
{
background = {
shapes = (
{
closed = 1;
nodes = (
(274,635,l),
(10,635,l),
(10,597,l),
(54,597,l),
(54,234,ls),
(54,-15,o),
(187,-15,o),
(334,-15,cs),
(472,-15,o),
(594,-15,o),
(594,234,cs),
(594,597,l),
(638,597,l),
(638,635,l),
(424,635,l),
(424,57,l),
(274,57,l,{
name = hr00;
})
);
},
{
closed = 1;
nodes = (
(214,730,l),
(441,671,l),
(474,763,l),
(263,865,l,{
name = hr00;
})
);
}
);
};
layerId = master01;
shapes = (
{
ref = U;
},
{
pos = (214,0);
ref = gravecomb.case;
}
);
width = 648;
}
);
unicode = 217;
},
{
glyphname = Uhungarumlaut;
lastChange = "2023-02-17 14:15:17 +0000";
layers = (
{
background = {
shapes = (
{
closed = 1;
nodes = (
(274,635,l),
(10,635,l),
(10,597,l),
(54,597,l),
(54,234,ls),
(54,-15,o),
(187,-15,o),
(334,-15,cs),
(472,-15,o),
(594,-15,o),
(594,234,cs),
(594,597,l),
(638,597,l),
(638,635,l),
(424,635,l),
(424,57,l),
(274,57,l,{
name = hr00;
})
);
},
{
closed = 1;
nodes = (
(194,665,l),
(349,786,l),
(253,889,l),
(126,735,l,{
name = hr00;
})
);
},
{
closed = 1;
nodes = (
(426,665,l),
(581,786,l),
(485,889,l),
(358,735,l)
);
}
);
};
layerId = master01;
shapes = (
{
ref = U;
},
{
pos = (116,0);
ref = hungarumlautcomb.case;
}
);
width = 648;
}
);
unicode = 368;
},
{
glyphname = Umacron;
lastChange = "2023-02-17 14:15:17 +0000";
layers = (
{
background = {
shapes = (
{
closed = 1;
nodes = (
(274,635,l),
(10,635,l),
(10,597,l),
(54,597,l),
(54,234,ls),
(54,-15,o),
(187,-15,o),
(334,-15,cs),
(472,-15,o),
(594,-15,o),
(594,234,cs),
(594,597,l),
(638,597,l),
(638,635,l),
(424,635,l),
(424,57,l),
(274,57,l,{
name = hr00;
})
);
},
{
closed = 1;
nodes = (
(470,695,l),
(470,819,l),
(178,819,l),
(178,695,l,{
name = hr00;
})
);
}
);
};
layerId = master01;
shapes = (
{
ref = U;
},
{
pos = (158,0);
ref = macroncomb.case;
}
);
width = 648;
}
);
unicode = 362;
},
{
glyphname = Uogonek;
lastChange = "2023-02-17 14:15:27 +0000";
layers = (
{
background = {
shapes = (
{
closed = 1;
nodes = (
(274,635,l),
(10,635,l),
(10,597,l),
(54,597,l),
(54,234,ls),
(54,-15,o),
(187,-15,o),
(334,-15,cs),
(472,-15,o),
(594,-15,o),
(594,234,cs),
(594,597,l),
(638,597,l),
(638,635,l),
(424,635,l),
(424,57,l),
(274,57,l,{
name = hr00;
})
);
},
{
closed = 1;
nodes = (
(266,-141,o),
(306,-165,o),
(358,-165,cs),
(405,-165,o),
(457,-137,o),
(483,-110,c),
(473,-53,l),
(457,-63,o),
(432,-72,o),
(411,-72,cs),
(392,-72,o),
(376,-61,o),
(376,-40,cs),
(376,-14,o),
(392,5,o),
(436,11,c),
(436,38,l),
(328,22,o),
(266,-17,o),
(266,-87,cs,{
name = hr00;
})
);
}
);
};
layerId = master01;
shapes = (
{
ref = U;
},
{
pos = (243,0);
ref = ogonekcomb;
}
);
width = 648;
}
);
unicode = 370;
},
{
glyphname = Uring;
lastChange = "2023-02-17 14:15:17 +0000";
layers = (
{
background = {
shapes = (
{
closed = 1;
nodes = (
(274,635,l),
(10,635,l),
(10,597,l),
(54,597,l),
(54,234,ls),
(54,-15,o),
(187,-15,o),
(334,-15,cs),
(472,-15,o),
(594,-15,o),
(594,234,cs),
(594,597,l),
(638,597,l),
(638,635,l),
(424,635,l),
(424,57,l),
(274,57,l,{
name = hr00;
})
);
},
{
closed = 1;
nodes = (
(222,875,o),
(202,844,o),
(202,760,cs),
(202,676,o),
(222,645,o),
(324,645,cs),
(426,645,o),
(446,676,o),
(446,760,cs),
(446,844,o),
(426,875,o),
(324,875,cs,{
name = hr00;
})
);
},
{
closed = 1;
nodes = (
(359,803,o),
(365,799,o),
(365,760,cs),
(365,719,o),
(359,717,o),
(324,717,cs),
(289,717,o),
(283,719,o),
(283,760,cs),
(283,799,o),
(289,803,o),
(324,803,cs)
);
}
);
};
layerId = master01;
shapes = (
{
ref = U;
},
{
pos = (162,0);
ref = ringcomb.case;
}
);
width = 648;
}
);
unicode = 366;
},
{
glyphname = Utilde;
lastChange = "2023-02-17 14:15:17 +0000";
layers = (
{
background = {
shapes = (
{
closed = 1;
nodes = (
(274,635,l),
(10,635,l),
(10,597,l),
(54,597,l),
(54,234,ls),
(54,-15,o),
(187,-15,o),
(334,-15,cs),
(472,-15,o),
(594,-15,o),
(594,234,cs),
(594,597,l),
(638,597,l),
(638,635,l),
(424,635,l),
(424,57,l),
(274,57,l,{
name = hr00;
})
);
},
{
closed = 1;
nodes = (
(427,840,l),
(399,788,l),
(387,788,l),
(361,827,o),
(324,850,o),
(274,850,cs),
(217,850,o),
(170,821,o),
(157,748,cs),
(147,691,l),
(219,678,l),
(247,729,l),
(259,729,l),
(285,691,o),
(322,668,o),
(371,668,cs),
(429,668,o),
(475,696,o),
(489,769,cs),
(500,826,l,{
name = hr00;
})
);
}
);
};
layerId = master01;
shapes = (
{
ref = U;
},
{
pos = (142,0);
ref = tildecomb.case;
}
);
width = 648;
}
);
unicode = 360;
},
{
glyphname = V;
lastChange = "2023-02-17 14:07:39 +0000";
layers = (
{
anchors = (
{
name = bottom;
pos = (326,0);
},
{
name = top;
pos = (326,635);
}
);
background = {
shapes = (
{
closed = 1;
nodes = (
(431,635,l),
(431,60,l),
(342,60,l),
(290,635,l),
(0,635,l),
(0,597,l),
(42,597,l),
(134,0,l),
(496,0,l),
(610,597,l),
(652,597,l),
(652,635,l,{
name = hr00;
})
);
}
);
};
layerId = master01;
shapes = (
{
closed = 1;
nodes = (
(431,635,l),
(431,60,l),
(342,60,l),
(290,635,l),
(0,635,l),
(0,597,l),
(42,597,l),
(134,0,l),
(496,0,l),
(610,597,l),
(652,597,l),
(652,635,l,{
name = hr00;
})
);
}
);
width = 652;
}
);
unicode = 86;
},
{
glyphname = W;
lastChange = "2023-02-17 14:15:33 +0000";
layers = (
{
anchors = (
{
name = bottom;
pos = (478,0);
},
{
name = top;
pos = (508,635);
}
);
background = {
shapes = (
{
closed = 1;
nodes = (
(552,0,l),
(797,0,l),
(912,597,l),
(955,597,l),
(955,635,l),
(717,635,l),
(717,60,l),
(637,60,l),
(584,635,l),
(422,635,l),
(422,60,l),
(342,60,l),
(288,635,l),
(0,635,l),
(0,597,l),
(44,597,l),
(134,0,l),
(473,0,l),
(508,182,l),
(552,182,l,{
name = hr00;
})
);
}
);
};
layerId = master01;
shapes = (
{
closed = 1;
nodes = (
(552,0,l),
(797,0,l),
(912,597,l),
(955,597,l),
(955,635,l),
(717,635,l),
(717,60,l),
(637,60,l),
(584,635,l),
(422,635,l),
(422,60,l),
(342,60,l),
(288,635,l),
(0,635,l),
(0,597,l),
(44,597,l),
(134,0,l),
(473,0,l),
(508,182,l),
(552,182,l,{
name = hr00;
})
);
}
);
width = 955;
}
);
unicode = 87;
},
{
glyphname = Wacute;
lastChange = "2023-02-17 14:15:33 +0000";
layers = (
{
background = {
shapes = (
{
closed = 1;
nodes = (
(552,0,l),
(797,0,l),
(912,597,l),
(955,597,l),
(955,635,l),
(717,635,l),
(717,60,l),
(637,60,l),
(584,635,l),
(422,635,l),
(422,60,l),
(342,60,l),
(288,635,l),
(0,635,l),
(0,597,l),
(44,597,l),
(134,0,l),
(473,0,l),
(508,182,l),
(552,182,l,{
name = hr00;
})
);
},
{
closed = 1;
nodes = (
(410,671,l),
(637,730,l),
(588,865,l),
(377,763,l,{
name = hr00;
})
);
}
);
};
layerId = master01;
shapes = (
{
ref = W;
},
{
pos = (327,0);
ref = acutecomb.case;
}
);
width = 955;
}
);
unicode = 7810;
},
{
glyphname = Wcircumflex;
lastChange = "2023-02-17 14:15:33 +0000";
layers = (
{
background = {
shapes = (
{
closed = 1;
nodes = (
(552,0,l),
(797,0,l),
(912,597,l),
(955,597,l),
(955,635,l),
(717,635,l),
(717,60,l),
(637,60,l),
(584,635,l),
(422,635,l),
(422,60,l),
(342,60,l),
(288,635,l),
(0,635,l),
(0,597,l),
(44,597,l),
(134,0,l),
(473,0,l),
(508,182,l),
(552,182,l,{
name = hr00;
})
);
},
{
closed = 1;
nodes = (
(459,872,l),
(341,742,l),
(400,671,l),
(507,747,l),
(614,671,l),
(673,742,l),
(555,872,l,{
name = hr00;
})
);
}
);
};
layerId = master01;
shapes = (
{
ref = W;
},
{
pos = (307,0);
ref = circumflexcomb.case;
}
);
width = 955;
}
);
unicode = 372;
},
{
glyphname = Wdieresis;
lastChange = "2023-02-17 14:15:33 +0000";
layers = (
{
background = {
shapes = (
{
closed = 1;
nodes = (
(552,0,l),
(797,0,l),
(912,597,l),
(955,597,l),
(955,635,l),
(717,635,l),
(717,60,l),
(637,60,l),
(584,635,l),
(422,635,l),
(422,60,l),
(342,60,l),
(288,635,l),
(0,635,l),
(0,597,l),
(44,597,l),
(134,0,l),
(473,0,l),
(508,182,l),
(552,182,l,{
name = hr00;
})
);
},
{
closed = 1;
nodes = (
(475,842,o),
(463,850,o),
(412,850,cs),
(354,850,o),
(341,842,o),
(341,767,cs),
(341,692,o),
(354,684,o),
(412,684,cs),
(463,684,o),
(475,692,o),
(475,767,cs,{
name = hr00;
})
);
},
{
closed = 1;
nodes = (
(673,842,o),
(661,850,o),
(610,850,cs),
(552,850,o),
(539,842,o),
(539,767,cs),
(539,692,o),
(552,684,o),
(610,684,cs),
(661,684,o),
(673,692,o),
(673,767,cs)
);
}
);
};
layerId = master01;
shapes = (
{
ref = W;
},
{
pos = (292,0);
ref = dieresiscomb.case;
}
);
width = 955;
}
);
unicode = 7812;
},
{
glyphname = Wgrave;
lastChange = "2023-02-17 14:15:33 +0000";
layers = (
{
background = {
shapes = (
{
closed = 1;
nodes = (
(552,0,l),
(797,0,l),
(912,597,l),
(955,597,l),
(955,635,l),
(717,635,l),
(717,60,l),
(637,60,l),
(584,635,l),
(422,635,l),
(422,60,l),
(342,60,l),
(288,635,l),
(0,635,l),
(0,597,l),
(44,597,l),
(134,0,l),
(473,0,l),
(508,182,l),
(552,182,l,{
name = hr00;
})
);
},
{
closed = 1;
nodes = (
(377,730,l),
(604,671,l),
(637,763,l),
(426,865,l,{
name = hr00;
})
);
}
);
};
layerId = master01;
shapes = (
{
ref = W;
},
{
pos = (378,0);
ref = gravecomb.case;
}
);
width = 955;
}
);
unicode = 7808;
},
{
glyphname = X;
lastChange = "2023-02-17 14:07:39 +0000";
layers = (
{
anchors = (
{
name = bottom;
pos = (320,0);
},
{
name = top;
pos = (320,635);
}
);
background = {
shapes = (
{
closed = 1;
nodes = (
(415,376,l),
(356,376,l),
(293,635,l),
(0,635,l),
(0,597,l),
(44,597,l),
(129,324,l),
(11,0,l),
(225,0,l),
(225,260,l),
(284,260,l),
(347,0,l),
(640,0,l),
(640,38,l),
(597,38,l),
(510,313,l),
(629,635,l),
(415,635,l,{
name = hr00;
})
);
}
);
};
layerId = master01;
shapes = (
{
closed = 1;
nodes = (
(415,376,l),
(356,376,l),
(293,635,l),
(0,635,l),
(0,597,l),
(44,597,l),
(129,324,l),
(11,0,l),
(225,0,l),
(225,260,l),
(284,260,l),
(347,0,l),
(640,0,l),
(640,38,l),
(597,38,l),
(510,313,l),
(629,635,l),
(415,635,l,{
name = hr00;
})
);
}
);
width = 640;
}
);
unicode = 88;
},
{
glyphname = Y;
lastChange = "2023-02-17 14:15:38 +0000";
layers = (
{
anchors = (
{
name = bottom;
pos = (313,0);
},
{
name = top;
pos = (323,635);
},
{
name = topleft;
pos = (20,635);
}
);
background = {
shapes = (
{
closed = 1;
nodes = (
(626,635,l),
(405,635,l),
(405,300,l),
(348,300,l),
(266,635,l),
(0,635,l),
(0,597,l),
(43,597,l),
(176,146,l),
(176,38,l),
(92,38,l),
(92,0,l),
(535,0,l),
(535,38,l),
(451,38,l),
(451,146,l),
(584,597,l),
(626,597,l,{
name = hr00;
})
);
}
);
};
layerId = master01;
shapes = (
{
closed = 1;
nodes = (
(626,635,l),
(405,635,l),
(405,300,l),
(348,300,l),
(266,635,l),
(0,635,l),
(0,597,l),
(43,597,l),
(176,146,l),
(176,38,l),
(92,38,l),
(92,0,l),
(535,0,l),
(535,38,l),
(451,38,l),
(451,146,l),
(584,597,l),
(626,597,l,{
name = hr00;
})
);
}
);
width = 626;
}
);
unicode = 89;
},
{
glyphname = Yacute;
lastChange = "2023-02-17 14:15:38 +0000";
layers = (
{
background = {
shapes = (
{
closed = 1;
nodes = (
(626,635,l),
(405,635,l),
(405,300,l),
(348,300,l),
(266,635,l),
(0,635,l),
(0,597,l),
(43,597,l),
(176,146,l),
(176,38,l),
(92,38,l),
(92,0,l),
(535,0,l),
(535,38,l),
(451,38,l),
(451,146,l),
(584,597,l),
(626,597,l,{
name = hr00;
})
);
},
{
closed = 1;
nodes = (
(215,671,l),
(442,730,l),
(393,865,l),
(182,763,l,{
name = hr00;
})
);
}
);
};
layerId = master01;
shapes = (
{
ref = Y;
},
{
pos = (142,0);
ref = acutecomb.case;
}
);
width = 626;
}
);
unicode = 221;
},
{
glyphname = Ycircumflex;
lastChange = "2023-02-17 14:15:38 +0000";
layers = (
{
background = {
shapes = (
{
closed = 1;
nodes = (
(626,635,l),
(405,635,l),
(405,300,l),
(348,300,l),
(266,635,l),
(0,635,l),
(0,597,l),
(43,597,l),
(176,146,l),
(176,38,l),
(92,38,l),
(92,0,l),
(535,0,l),
(535,38,l),
(451,38,l),
(451,146,l),
(584,597,l),
(626,597,l,{
name = hr00;
})
);
},
{
closed = 1;
nodes = (
(275,872,l),
(157,742,l),
(216,671,l),
(323,747,l),
(430,671,l),
(489,742,l),
(371,872,l,{
name = hr00;
})
);
}
);
};
layerId = master01;
shapes = (
{
ref = Y;
},
{
pos = (122,0);
ref = circumflexcomb.case;
}
);
width = 626;
}
);
unicode = 374;
},
{
glyphname = Ydieresis;
lastChange = "2023-02-17 14:15:38 +0000";
layers = (
{
background = {
shapes = (
{
closed = 1;
nodes = (
(626,635,l),
(405,635,l),
(405,300,l),
(348,300,l),
(266,635,l),
(0,635,l),
(0,597,l),
(43,597,l),
(176,146,l),
(176,38,l),
(92,38,l),
(92,0,l),
(535,0,l),
(535,38,l),
(451,38,l),
(451,146,l),
(584,597,l),
(626,597,l,{
name = hr00;
})
);
},
{
closed = 1;
nodes = (
(281,842,o),
(269,850,o),
(218,850,cs),
(160,850,o),
(147,842,o),
(147,767,cs),
(147,692,o),
(160,684,o),
(218,684,cs),
(269,684,o),
(281,692,o),
(281,767,cs,{
name = hr00;
})
);
},
{
closed = 1;
nodes = (
(479,842,o),
(467,850,o),
(416,850,cs),
(358,850,o),
(345,842,o),
(345,767,cs),
(345,692,o),
(358,684,o),
(416,684,cs),
(467,684,o),
(479,692,o),
(479,767,cs)
);
}
);
};
layerId = master01;
shapes = (
{
ref = Y;
},
{
pos = (107,0);
ref = dieresiscomb.case;
}
);
width = 626;
}
);
unicode = 376;
},
{
glyphname = Ygrave;
lastChange = "2023-02-17 14:15:38 +0000";
layers = (
{
background = {
shapes = (
{
closed = 1;
nodes = (
(626,635,l),
(405,635,l),
(405,300,l),
(348,300,l),
(266,635,l),
(0,635,l),
(0,597,l),
(43,597,l),
(176,146,l),
(176,38,l),
(92,38,l),
(92,0,l),
(535,0,l),
(535,38,l),
(451,38,l),
(451,146,l),
(584,597,l),
(626,597,l,{
name = hr00;
})
);
},
{
closed = 1;
nodes = (
(193,730,l),
(420,671,l),
(453,763,l),
(242,865,l,{
name = hr00;
})
);
}
);
};
layerId = master01;
shapes = (
{
ref = Y;
},
{
pos = (193,0);
ref = gravecomb.case;
}
);
width = 626;
}
);
unicode = 7922;
},
{
glyphname = Z;
lastChange = "2023-02-17 14:15:42 +0000";
layers = (
{
anchors = (
{
name = bottom;
pos = (279,0);
},
{
name = center;
pos = (279,318);
},
{
name = top;
pos = (309,635);
}
);
background = {
shapes = (
{
closed = 1;
nodes = (
(269,84,l),
(554,569,l),
(522,636,l),
(35,636,l),
(47,421,l),
(165,421,l),
(195,552,l),
(302,552,l),
(-5,0,l),
(557,0,l),
(544,215,l),
(426,215,l),
(397,84,l,{
name = hr00;
})
);
}
);
};
layerId = master01;
shapes = (
{
closed = 1;
nodes = (
(269,84,l),
(554,569,l),
(522,636,l),
(35,636,l),
(47,421,l),
(165,421,l),
(195,552,l),
(302,552,l),
(-5,0,l),
(557,0,l),
(544,215,l),
(426,215,l),
(397,84,l,{
name = hr00;
})
);
}
);
width = 557;
}
);
unicode = 90;
},
{
glyphname = Zacute;
lastChange = "2023-02-17 14:15:42 +0000";
layers = (
{
background = {
shapes = (
{
closed = 1;
nodes = (
(269,84,l),
(554,569,l),
(522,636,l),
(35,636,l),
(47,421,l),
(165,421,l),
(195,552,l),
(302,552,l),
(-5,0,l),
(557,0,l),
(544,215,l),
(426,215,l),
(397,84,l,{
name = hr00;
})
);
},
{
closed = 1;
nodes = (
(211,671,l),
(438,730,l),
(389,865,l),
(178,763,l,{
name = hr00;
})
);
}
);
};
layerId = master01;
shapes = (
{
ref = Z;
},
{
pos = (128,0);
ref = acutecomb.case;
}
);
width = 557;
}
);
unicode = 377;
},
{
glyphname = Zcaron;
lastChange = "2023-02-17 14:15:42 +0000";
layers = (
{
background = {
shapes = (
{
closed = 1;
nodes = (
(274,84,l),
(559,569,l),
(527,636,l),
(40,636,l),
(52,421,l),
(170,421,l),
(200,552,l),
(307,552,l),
(0,0,l),
(562,0,l),
(549,215,l),
(431,215,l),
(402,84,l,{
name = hr00;
})
);
},
{
closed = 1;
nodes = (
(431,873,l),
(324,797,l),
(217,873,l),
(158,802,l),
(276,672,l),
(372,672,l),
(490,802,l,{
name = hr00;
})
);
}
);
};
layerId = master01;
shapes = (
{
ref = Z;
},
{
pos = (108,0);
ref = caroncomb.case;
}
);
width = 557;
}
);
unicode = 381;
},
{
glyphname = Zdotaccent;
lastChange = "2023-02-17 14:15:42 +0000";
layers = (
{
background = {
shapes = (
{
closed = 1;
nodes = (
(269,84,l),
(554,569,l),
(522,636,l),
(35,636,l),
(47,421,l),
(165,421,l),
(195,552,l),
(302,552,l),
(-5,0,l),
(557,0,l),
(544,215,l),
(426,215,l),
(397,84,l,{
name = hr00;
})
);
},
{
closed = 1;
nodes = (
(389,850,o),
(405,827,o),
(405,760,cs),
(405,693,o),
(389,669,o),
(308,669,cs),
(227,669,o),
(211,693,o),
(211,760,cs),
(211,827,o),
(227,850,o),
(308,850,cs,{
name = hr00;
})
);
}
);
};
layerId = master01;
shapes = (
{
ref = Z;
},
{
pos = (157,0);
ref = dotaccentcomb.case;
}
);
width = 557;
}
);
unicode = 379;
},
{
glyphname = a;
lastChange = "2023-02-17 14:16:27 +0000";
layers = (
{
anchors = (
{
name = bottom;
pos = (309,0);
},
{
name = ogonek;
pos = (619,38);
},
{
name = top;
pos = (309,550);
}
);
background = {
shapes = (
{
closed = 1;
nodes = (
(207,379,l),
(234,490,l),
(348,490,l),
(348,315,l),
(247,315,ls),
(135,315,o),
(35,296,o),
(35,150,cs),
(35,-15,o),
(154,-15,o),
(255,-15,cs),
(343,-15,o),
(374,-4,o),
(402,76,c),
(415,76,l),
(455,0,l,{
name = hr01;
}),
(578,0,l),
(578,38,l),
(538,38,l),
(538,415,ls),
(538,550,o),
(398,565,o),
(295,565,cs),
(226,565,o),
(136,553,o),
(68,535,c),
(92,379,l)
);
},
{
closed = 1;
nodes = (
(211,76,l),
(211,240,l),
(348,240,l),
(348,76,l,{
name = hr02;
})
);
}
);
};
layerId = master01;
shapes = (
{
closed = 1;
nodes = (
(207,379,l),
(234,490,l),
(348,490,l),
(348,315,l),
(247,315,ls),
(135,315,o),
(35,296,o),
(35,150,cs),
(35,-15,o),
(154,-15,o),
(255,-15,cs),
(343,-15,o),
(374,-4,o),
(402,76,c),
(415,76,l),
(455,0,l,{
name = hr01;
}),
(578,0,l),
(578,38,l),
(538,38,l),
(538,415,ls),
(538,550,o),
(398,565,o),
(295,565,cs),
(226,565,o),
(136,553,o),
(68,535,c),
(92,379,l)
);
},
{
closed = 1;
nodes = (
(211,76,l),
(211,240,l),
(348,240,l),
(348,76,l,{
name = hr02;
})
);
}
);
width = 618;
}
);
unicode = 97;
},
{
glyphname = aacute;
lastChange = "2023-02-17 14:08:22 +0000";
layers = (
{
background = {
shapes = (
{
closed = 1;
nodes = (
(207,379,l),
(234,490,l),
(348,490,l),
(348,315,l),
(247,315,ls),
(135,315,o),
(35,296,o),
(35,150,cs),
(35,-15,o),
(154,-15,o),
(255,-15,cs),
(343,-15,o),
(374,-4,o),
(402,76,c),
(415,76,l),
(455,0,l,{
name = hr01;
}),
(578,0,l),
(578,38,l),
(538,38,l),
(538,415,ls),
(538,550,o),
(398,565,o),
(295,565,cs),
(226,565,o),
(136,553,o),
(68,535,c),
(92,379,l)
);
},
{
closed = 1;
nodes = (
(211,76,l),
(211,240,l),
(348,240,l),
(348,76,l,{
name = hr02;
})
);
},
{
closed = 1;
nodes = (
(240,586,l),
(467,645,l),
(418,780,l),
(207,678,l,{
name = hr00;
})
);
}
);
};
layerId = master01;
shapes = (
{
ref = a;
},
{
pos = (128,0);
ref = acutecomb;
}
);
width = 618;
}
);
unicode = 225;
},
{
glyphname = abreve;
lastChange = "2023-02-17 14:08:22 +0000";
layers = (
{
background = {
shapes = (
{
closed = 1;
nodes = (
(207,379,l),
(234,490,l),
(348,490,l),
(348,315,l),
(247,315,ls),
(135,315,o),
(35,296,o),
(35,150,cs),
(35,-15,o),
(154,-15,o),
(255,-15,cs),
(343,-15,o),
(374,-4,o),
(402,76,c),
(415,76,l),
(455,0,l,{
name = hr01;
}),
(578,0,l),
(578,38,l),
(538,38,l),
(538,415,ls),
(538,550,o),
(398,565,o),
(295,565,cs),
(226,565,o),
(136,553,o),
(68,535,c),
(92,379,l)
);
},
{
closed = 1;
nodes = (
(211,76,l),
(211,240,l),
(348,240,l),
(348,76,l,{
name = hr02;
})
);
},
{
closed = 1;
nodes = (
(272,710,o),
(221,727,o),
(189,749,c),
(174,725,o),
(159,699,o),
(143,674,c),
(180,617,o),
(239,588,o),
(309,588,cs),
(379,588,o),
(438,617,o),
(475,674,c),
(457,703,o),
(448,719,o),
(429,749,c),
(397,727,o),
(346,710,o),
(309,710,cs,{
name = hr00;
})
);
}
);
};
layerId = master01;
shapes = (
{
ref = a;
},
{
pos = (110,0);
ref = brevecomb;
}
);
width = 618;
}
);
unicode = 259;
},
{
glyphname = acircumflex;
lastChange = "2023-02-17 14:08:22 +0000";
layers = (
{
background = {
shapes = (
{
closed = 1;
nodes = (
(207,379,l),
(234,490,l),
(348,490,l),
(348,315,l),
(247,315,ls),
(135,315,o),
(35,296,o),
(35,150,cs),
(35,-15,o),
(154,-15,o),
(255,-15,cs),
(343,-15,o),
(374,-4,o),
(402,76,c),
(415,76,l),
(455,0,l,{
name = hr01;
}),
(578,0,l),
(578,38,l),
(538,38,l),
(538,415,ls),
(538,550,o),
(398,565,o),
(295,565,cs),
(226,565,o),
(136,553,o),
(68,535,c),
(92,379,l)
);
},
{
closed = 1;
nodes = (
(211,76,l),
(211,240,l),
(348,240,l),
(348,76,l,{
name = hr02;
})
);
},
{
closed = 1;
nodes = (
(266,787,l),
(148,657,l),
(207,586,l),
(314,662,l),
(421,586,l),
(480,657,l),
(362,787,l,{
name = hr00;
})
);
}
);
};
layerId = master01;
shapes = (
{
ref = a;
},
{
pos = (108,0);
ref = circumflexcomb;
}
);
width = 618;
}
);
unicode = 226;
},
{
glyphname = adieresis;
lastChange = "2023-02-17 14:08:22 +0000";
layers = (
{
background = {
shapes = (
{
closed = 1;
nodes = (
(207,379,l),
(234,490,l),
(348,490,l),
(348,315,l),
(247,315,ls),
(135,315,o),
(35,296,o),
(35,150,cs),
(35,-15,o),
(154,-15,o),
(255,-15,cs),
(343,-15,o),
(374,-4,o),
(402,76,c),
(415,76,l),
(455,0,l,{
name = hr01;
}),
(578,0,l),
(578,38,l),
(538,38,l),
(538,415,ls),
(538,550,o),
(398,565,o),
(295,565,cs),
(226,565,o),
(136,553,o),
(68,535,c),
(92,379,l)
);
},
{
closed = 1;
nodes = (
(211,76,l),
(211,240,l),
(348,240,l),
(348,76,l,{
name = hr02;
})
);
},
{
closed = 1;
nodes = (
(267,757,o),
(255,765,o),
(204,765,cs),
(146,765,o),
(133,757,o),
(133,682,cs),
(133,607,o),
(146,599,o),
(204,599,cs),
(255,599,o),
(267,607,o),
(267,682,cs,{
name = hr00;
})
);
},
{
closed = 1;
nodes = (
(465,757,o),
(453,765,o),
(402,765,cs),
(344,765,o),
(331,757,o),
(331,682,cs),
(331,607,o),
(344,599,o),
(402,599,cs),
(453,599,o),
(465,607,o),
(465,682,cs)
);
}
);
};
layerId = master01;
shapes = (
{
ref = a;
},
{
pos = (93,0);
ref = dieresiscomb;
}
);
width = 618;
}
);
unicode = 228;
},
{
glyphname = agrave;
lastChange = "2023-02-17 14:08:22 +0000";
layers = (
{
background = {
shapes = (
{
closed = 1;
nodes = (
(207,379,l),
(234,490,l),
(348,490,l),
(348,315,l),
(247,315,ls),
(135,315,o),
(35,296,o),
(35,150,cs),
(35,-15,o),
(154,-15,o),
(255,-15,cs),
(343,-15,o),
(374,-4,o),
(402,76,c),
(415,76,l),
(455,0,l,{
name = hr01;
}),
(578,0,l),
(578,38,l),
(538,38,l),
(538,415,ls),
(538,550,o),
(398,565,o),
(295,565,cs),
(226,565,o),
(136,553,o),
(68,535,c),
(92,379,l)
);
},
{
closed = 1;
nodes = (
(211,76,l),
(211,240,l),
(348,240,l),
(348,76,l,{
name = hr02;
})
);
},
{
closed = 1;
nodes = (
(184,645,l),
(411,586,l),
(444,678,l),
(233,780,l,{
name = hr00;
})
);
}
);
};
layerId = master01;
shapes = (
{
ref = a;
},
{
pos = (179,0);
ref = gravecomb;
}
);
width = 618;
}
);
unicode = 224;
},
{
glyphname = amacron;
lastChange = "2023-02-17 14:08:22 +0000";
layers = (
{
background = {
shapes = (
{
closed = 1;
nodes = (
(207,379,l),
(234,490,l),
(348,490,l),
(348,315,l),
(247,315,ls),
(135,315,o),
(35,296,o),
(35,150,cs),
(35,-15,o),
(154,-15,o),
(255,-15,cs),
(343,-15,o),
(374,-4,o),
(402,76,c),
(415,76,l),
(455,0,l,{
name = hr01;
}),
(578,0,l),
(578,38,l),
(538,38,l),
(538,415,ls),
(538,550,o),
(398,565,o),
(295,565,cs),
(226,565,o),
(136,553,o),
(68,535,c),
(92,379,l)
);
},
{
closed = 1;
nodes = (
(211,76,l),
(211,240,l),
(348,240,l),
(348,76,l,{
name = hr02;
})
);
},
{
closed = 1;
nodes = (
(455,610,l),
(455,734,l),
(163,734,l),
(163,610,l,{
name = hr00;
})
);
}
);
};
layerId = master01;
shapes = (
{
ref = a;
},
{
pos = (123,0);
ref = macroncomb;
}
);
width = 618;
}
);
unicode = 257;
},
{
glyphname = aogonek;
lastChange = "2023-02-17 14:16:27 +0000";
layers = (
{
background = {
shapes = (
{
closed = 1;
nodes = (
(207,379,l),
(234,490,l),
(348,490,l),
(348,315,l),
(247,315,ls),
(135,315,o),
(35,296,o),
(35,150,cs),
(35,-15,o),
(154,-15,o),
(255,-15,cs),
(343,-15,o),
(374,-4,o),
(402,76,c),
(415,76,l),
(455,0,l,{
name = hr01;
}),
(578,0,l),
(578,38,l),
(538,38,l),
(538,415,ls),
(538,550,o),
(398,565,o),
(295,565,cs),
(226,565,o),
(136,553,o),
(68,535,c),
(92,379,l)
);
},
{
closed = 1;
nodes = (
(211,76,l),
(211,240,l),
(348,240,l),
(348,76,l,{
name = hr02;
})
);
},
{
closed = 1;
nodes = (
(402,-141,o),
(442,-165,o),
(494,-165,cs),
(541,-165,o),
(593,-137,o),
(619,-110,c),
(609,-53,l),
(593,-63,o),
(568,-72,o),
(547,-72,cs),
(528,-72,o),
(512,-61,o),
(512,-40,cs),
(512,-14,o),
(528,5,o),
(572,11,c),
(572,38,l),
(464,22,o),
(402,-17,o),
(402,-87,cs,{
name = hr00;
})
);
}
);
};
layerId = master01;
shapes = (
{
ref = a;
},
{
pos = (379,0);
ref = ogonekcomb;
}
);
width = 618;
}
);
unicode = 261;
},
{
glyphname = aring;
lastChange = "2023-02-17 14:08:22 +0000";
layers = (
{
background = {
shapes = (
{
closed = 1;
nodes = (
(207,379,l),
(234,490,l),
(348,490,l),
(348,315,l),
(247,315,ls),
(135,315,o),
(35,296,o),
(35,150,cs),
(35,-15,o),
(154,-15,o),
(255,-15,cs),
(343,-15,o),
(374,-4,o),
(402,76,c),
(415,76,l),
(455,0,l,{
name = hr01;
}),
(578,0,l),
(578,38,l),
(538,38,l),
(538,415,ls),
(538,550,o),
(398,565,o),
(295,565,cs),
(226,565,o),
(136,553,o),
(68,535,c),
(92,379,l)
);
},
{
closed = 1;
nodes = (
(211,76,l),
(211,240,l),
(348,240,l),
(348,76,l,{
name = hr02;
})
);
},
{
closed = 1;
nodes = (
(212,790,o),
(192,759,o),
(192,675,cs),
(192,591,o),
(212,560,o),
(314,560,cs),
(416,560,o),
(436,591,o),
(436,675,cs),
(436,759,o),
(416,790,o),
(314,790,cs,{
name = hr00;
})
);
},
{
closed = 1;
nodes = (
(349,718,o),
(355,714,o),
(355,675,cs),
(355,634,o),
(349,632,o),
(314,632,cs),
(279,632,o),
(273,634,o),
(273,675,cs),
(273,714,o),
(279,718,o),
(314,718,cs)
);
}
);
};
layerId = master01;
shapes = (
{
ref = a;
},
{
pos = (127,0);
ref = ringcomb;
}
);
width = 618;
}
);
unicode = 229;
},
{
glyphname = aringacute;
lastChange = "2023-02-17 14:16:40 +0000";
layers = (
{
background = {
shapes = (
{
closed = 1;
nodes = (
(207,379,l),
(234,490,l),
(348,490,l),
(348,315,l),
(247,315,ls),
(135,315,o),
(35,296,o),
(35,150,cs),
(35,-15,o),
(154,-15,o),
(255,-15,cs),
(343,-15,o),
(374,-4,o),
(402,76,c),
(415,76,l),
(455,0,l,{
name = hr01;
}),
(578,0,l),
(578,38,l),
(538,38,l),
(538,415,ls),
(538,550,o),
(398,565,o),
(295,565,cs),
(226,565,o),
(136,553,o),
(68,535,c),
(92,379,l)
);
},
{
closed = 1;
nodes = (
(211,76,l),
(211,240,l),
(348,240,l),
(348,76,l,{
name = hr02;
})
);
},
{
closed = 1;
nodes = (
(212,790,o),
(192,759,o),
(192,675,cs),
(192,591,o),
(212,560,o),
(314,560,cs),
(416,560,o),
(436,591,o),
(436,675,cs),
(436,699,o),
(434,718,o),
(429,734,c),
(493,751,l),
(449,873,l),
(314,790,l,{
name = hr00;
})
);
},
{
closed = 1;
nodes = (
(349,718,o),
(355,714,o),
(355,675,cs),
(355,634,o),
(349,632,o),
(314,632,cs),
(279,632,o),
(273,634,o),
(273,675,cs),
(273,714,o),
(279,718,o),
(314,718,cs)
);
}
);
};
layerId = master01;
shapes = (
{
closed = 1;
nodes = (
(416,560,o),
(436,591,o),
(436,675,cs),
(436,699,o),
(434,718,o),
(429,734,c),
(493,751,l),
(449,873,l),
(314,790,l,{
name = hr00;
}),
(212,790,o),
(192,759,o),
(192,675,cs),
(192,591,o),
(212,560,o),
(314,560,cs)
);
},
{
ref = a;
},
{
closed = 1;
nodes = (
(279,632,o),
(273,634,o),
(273,675,cs),
(273,714,o),
(279,718,o),
(314,718,cs),
(349,718,o),
(355,714,o),
(355,675,cs),
(355,634,o),
(349,632,o),
(314,632,cs)
);
}
);
width = 618;
}
);
unicode = 507;
},
{
glyphname = atilde;
lastChange = "2023-02-17 14:08:22 +0000";
layers = (
{
background = {
shapes = (
{
closed = 1;
nodes = (
(207,379,l),
(234,490,l),
(348,490,l),
(348,315,l),
(247,315,ls),
(135,315,o),
(35,296,o),
(35,150,cs),
(35,-15,o),
(154,-15,o),
(255,-15,cs),
(343,-15,o),
(374,-4,o),
(402,76,c),
(415,76,l),
(455,0,l,{
name = hr01;
}),
(578,0,l),
(578,38,l),
(538,38,l),
(538,415,ls),
(538,550,o),
(398,565,o),
(295,565,cs),
(226,565,o),
(136,553,o),
(68,535,c),
(92,379,l)
);
},
{
closed = 1;
nodes = (
(211,76,l),
(211,240,l),
(348,240,l),
(348,76,l,{
name = hr02;
})
);
},
{
closed = 1;
nodes = (
(416,755,l),
(388,703,l),
(376,703,l),
(350,742,o),
(313,765,o),
(263,765,cs),
(206,765,o),
(159,736,o),
(146,663,cs),
(136,606,l),
(208,593,l),
(236,644,l),
(248,644,l),
(274,606,o),
(311,583,o),
(360,583,cs),
(418,583,o),
(464,611,o),
(478,684,cs),
(489,741,l,{
name = hr00;
})
);
}
);
};
layerId = master01;
shapes = (
{
ref = a;
},
{
pos = (107,0);
ref = tildecomb;
}
);
width = 618;
}
);
unicode = 227;
},
{
glyphname = ae;
lastChange = "2023-02-17 14:17:27 +0000";
layers = (
{
anchors = (
{
name = bottom;
pos = (446,0);
},
{
name = top;
pos = (466,550);
}
);
background = {
shapes = (
{
closed = 1;
nodes = (
(538,235,l),
(619,235,ls),
(732,235,o),
(831,235,o),
(831,400,cs),
(831,565,o),
(732,565,o),
(619,565,cs),
(548,565,o),
(489,565,o),
(449,532,c),
(410,560,o),
(353,565,o),
(295,565,cs),
(226,565,o),
(136,553,o),
(68,535,c),
(92,379,l),
(207,379,l),
(234,490,l),
(348,490,l),
(348,315,l),
(247,315,ls),
(135,315,o),
(35,296,o),
(35,150,cs),
(35,-15,o),
(154,-15,o),
(255,-15,cs),
(343,-15,o),
(374,-4,o),
(402,76,c),
(414,76,l),
(442,-7,o),
(508,-15,o),
(594,-15,cs),
(663,-15,o),
(752,-2,o),
(819,15,c),
(796,171,l),
(689,171,l),
(663,60,l,{
name = hr01;
}),
(538,60,l)
);
},
{
closed = 1;
nodes = (
(675,490,l),
(675,310,l),
(538,310,l),
(538,490,l)
);
},
{
closed = 1;
nodes = (
(211,76,l),
(211,240,l),
(348,240,l),
(348,76,l,{
name = hr02;
})
);
}
);
};
layerId = master01;
shapes = (
{
closed = 1;
nodes = (
(538,235,l),
(619,235,ls),
(732,235,o),
(831,235,o),
(831,400,cs),
(831,565,o),
(732,565,o),
(619,565,cs),
(548,565,o),
(489,565,o),
(449,532,c),
(410,560,o),
(353,565,o),
(295,565,cs),
(226,565,o),
(136,553,o),
(68,535,c),
(92,379,l),
(207,379,l),
(234,490,l),
(348,490,l),
(348,315,l),
(247,315,ls),
(135,315,o),
(35,296,o),
(35,150,cs),
(35,-15,o),
(154,-15,o),
(255,-15,cs),
(343,-15,o),
(374,-4,o),
(402,76,c),
(414,76,l),
(442,-7,o),
(508,-15,o),
(594,-15,cs),
(663,-15,o),
(752,-2,o),
(819,15,c),
(796,171,l),
(689,171,l),
(663,60,l,{
name = hr01;
}),
(538,60,l)
);
},
{
closed = 1;
nodes = (
(675,490,l),
(675,310,l),
(538,310,l),
(538,490,l)
);
},
{
closed = 1;
nodes = (
(211,76,l),
(211,240,l),
(348,240,l),
(348,76,l,{
name = hr02;
})
);
}
);
width = 891;
}
);
unicode = 230;
},
{
glyphname = aeacute;
lastChange = "2023-02-17 14:17:27 +0000";
layers = (
{
background = {
shapes = (
{
closed = 1;
nodes = (
(538,235,l),
(619,235,ls),
(732,235,o),
(831,235,o),
(831,400,cs),
(831,565,o),
(732,565,o),
(619,565,cs),
(548,565,o),
(489,565,o),
(449,532,c),
(410,560,o),
(353,565,o),
(295,565,cs),
(226,565,o),
(136,553,o),
(68,535,c),
(92,379,l),
(207,379,l),
(234,490,l),
(348,490,l),
(348,315,l),
(247,315,ls),
(135,315,o),
(35,296,o),
(35,150,cs),
(35,-15,o),
(154,-15,o),
(255,-15,cs),
(343,-15,o),
(374,-4,o),
(402,76,c),
(414,76,l),
(442,-7,o),
(508,-15,o),
(594,-15,cs),
(663,-15,o),
(752,-2,o),
(819,15,c),
(796,171,l),
(689,171,l),
(663,60,l,{
name = hr01;
}),
(538,60,l)
);
},
{
closed = 1;
nodes = (
(675,490,l),
(675,310,l),
(538,310,l),
(538,490,l)
);
},
{
closed = 1;
nodes = (
(211,76,l),
(211,240,l),
(348,240,l),
(348,76,l,{
name = hr02;
})
);
},
{
closed = 1;
nodes = (
(368,586,l),
(595,645,l),
(546,780,l),
(335,678,l,{
name = hr00;
})
);
}
);
};
layerId = master01;
shapes = (
{
ref = ae;
},
{
pos = (285,0);
ref = acutecomb;
}
);
width = 891;
}
);
unicode = 509;
},
{
glyphname = b;
lastChange = "2023-02-17 14:07:39 +0000";
layers = (
{
anchors = (
{
name = bottom;
pos = (336,0);
},
{
name = center;
pos = (336,275);
},
{
name = top;
pos = (336,550);
}
);
background = {
shapes = (
{
closed = 1;
nodes = (
(208,550,ls),
(208,566,o),
(210,571,o),
(234,580,cs),
(275,595,l,{
name = hr01;
}),
(275,729,l),
(45,729,l),
(45,691,l),
(85,691,l),
(85,0,l),
(113,0,l),
(128,35,l),
(173,11,o),
(267,-15,o),
(343,-15,cs,{
name = hr02;
}),
(480,-15,o),
(612,-15,o),
(612,236,cs),
(612,304,ls),
(612,555,o),
(501,555,o),
(378,555,cs),
(308,555,o),
(256,544,o),
(226,464,c),
(208,464,l)
);
},
{
closed = 1;
nodes = (
(275,60,l,{
name = hr03;
}),
(275,464,l),
(422,464,l),
(422,60,l)
);
}
);
};
layerId = master01;
shapes = (
{
closed = 1;
nodes = (
(208,550,ls),
(208,566,o),
(210,571,o),
(234,580,cs),
(275,595,l,{
name = hr01;
}),
(275,729,l),
(45,729,l),
(45,691,l),
(85,691,l),
(85,0,l),
(113,0,l),
(128,35,l),
(173,11,o),
(267,-15,o),
(343,-15,cs,{
name = hr02;
}),
(480,-15,o),
(612,-15,o),
(612,236,cs),
(612,304,ls),
(612,555,o),
(501,555,o),
(378,555,cs),
(308,555,o),
(256,544,o),
(226,464,c),
(208,464,l)
);
},
{
closed = 1;
nodes = (
(275,60,l,{
name = hr03;
}),
(275,464,l),
(422,464,l),
(422,60,l)
);
}
);
width = 672;
}
);
unicode = 98;
},
{
glyphname = c;
lastChange = "2023-02-17 14:17:32 +0000";
layers = (
{
anchors = (
{
name = bottom;
pos = (278,0);
},
{
name = top;
pos = (318,550);
}
);
background = {
shapes = (
{
closed = 1;
nodes = (
(389,-15,o),
(452,-10,o),
(520,15,c),
(496,171,l),
(381,171,l),
(354,50,l),
(250,50,l),
(250,500,l),
(354,500,l),
(381,379,l),
(496,379,l),
(520,535,l),
(454,554,o),
(389,565,o),
(320,565,cs),
(183,565,o),
(60,565,o),
(60,314,cs),
(60,236,ls),
(60,-15,o),
(183,-15,o),
(320,-15,cs,{
name = hr00;
})
);
}
);
};
layerId = master01;
shapes = (
{
closed = 1;
nodes = (
(389,-15,o),
(452,-10,o),
(520,15,c),
(496,171,l),
(381,171,l),
(354,50,l),
(250,50,l),
(250,500,l),
(354,500,l),
(381,379,l),
(496,379,l),
(520,535,l),
(454,554,o),
(389,565,o),
(320,565,cs),
(183,565,o),
(60,565,o),
(60,314,cs),
(60,236,ls),
(60,-15,o),
(183,-15,o),
(320,-15,cs,{
name = hr00;
})
);
}
);
width = 555;
}
);
unicode = 99;
},
{
glyphname = cacute;
lastChange = "2023-02-17 14:17:32 +0000";
layers = (
{
background = {
shapes = (
{
closed = 1;
nodes = (
(389,-15,o),
(452,-10,o),
(520,15,c),
(496,171,l),
(381,171,l),
(354,50,l),
(250,50,l),
(250,500,l),
(354,500,l),
(381,379,l),
(496,379,l),
(520,535,l),
(454,554,o),
(389,565,o),
(320,565,cs),
(183,565,o),
(60,565,o),
(60,314,cs),
(60,236,ls),
(60,-15,o),
(183,-15,o),
(320,-15,cs,{
name = hr00;
})
);
},
{
closed = 1;
nodes = (
(230,586,l),
(457,645,l),
(408,780,l),
(197,678,l,{
name = hr00;
})
);
}
);
};
layerId = master01;
shapes = (
{
ref = c;
},
{
pos = (137,0);
ref = acutecomb;
}
);
width = 555;
}
);
unicode = 263;
},
{
glyphname = ccaron;
lastChange = "2023-02-17 14:17:32 +0000";
layers = (
{
background = {
shapes = (
{
closed = 1;
nodes = (
(389,-15,o),
(452,-10,o),
(520,15,c),
(496,171,l),
(381,171,l),
(354,50,l),
(250,50,l),
(250,500,l),
(354,500,l),
(381,379,l),
(496,379,l),
(520,535,l),
(454,554,o),
(389,565,o),
(320,565,cs),
(183,565,o),
(60,565,o),
(60,314,cs),
(60,236,ls),
(60,-15,o),
(183,-15,o),
(320,-15,cs,{
name = hr00;
})
);
},
{
closed = 1;
nodes = (
(424,788,l),
(317,712,l),
(210,788,l),
(151,717,l),
(269,587,l),
(365,587,l),
(483,717,l,{
name = hr00;
})
);
}
);
};
layerId = master01;
shapes = (
{
ref = c;
},
{
pos = (117,0);
ref = caroncomb;
}
);
width = 555;
}
);
unicode = 269;
},
{
glyphname = ccedilla;
lastChange = "2023-02-17 14:08:22 +0000";
layers = (
{
background = {
shapes = (
{
closed = 1;
nodes = (
(389,-15,o),
(452,-10,o),
(520,15,c),
(496,171,l),
(381,171,l),
(354,50,l),
(250,50,l),
(250,500,l),
(354,500,l),
(381,379,l),
(496,379,l),
(520,535,l),
(454,554,o),
(389,565,o),
(320,565,cs),
(183,565,o),
(60,565,o),
(60,314,cs),
(60,236,ls),
(60,-15,o),
(183,-15,o),
(320,-15,cs,{
name = hr00;
})
);
},
{
closed = 1;
nodes = (
(388,-4,o),
(328,6,o),
(285,6,c),
(285,-104,l),
(258,-104,l),
(224,-52,l),
(172,-52,l),
(165,-149,l),
(194,-157,o),
(234,-165,o),
(277,-165,cs),
(329,-165,o),
(388,-146,o),
(388,-76,cs,{
name = hr00;
})
);
}
);
};
layerId = master01;
shapes = (
{
ref = c;
},
{
pos = (153,0);
ref = cedillacomb;
}
);
width = 555;
}
);
unicode = 231;
},
{
glyphname = ccircumflex;
lastChange = "2023-02-17 14:17:32 +0000";
layers = (
{
background = {
shapes = (
{
closed = 1;
nodes = (
(389,-15,o),
(452,-10,o),
(520,15,c),
(496,171,l),
(381,171,l),
(354,50,l),
(250,50,l),
(250,500,l),
(354,500,l),
(381,379,l),
(496,379,l),
(520,535,l),
(454,554,o),
(389,565,o),
(320,565,cs),
(183,565,o),
(60,565,o),
(60,314,cs),
(60,236,ls),
(60,-15,o),
(183,-15,o),
(320,-15,cs,{
name = hr00;
})
);
},
{
closed = 1;
nodes = (
(259,787,l),
(141,657,l),
(200,586,l),
(307,662,l),
(414,586,l),
(473,657,l),
(355,787,l,{
name = hr00;
})
);
}
);
};
layerId = master01;
shapes = (
{
ref = c;
},
{
pos = (117,0);
ref = circumflexcomb;
}
);
width = 555;
}
);
unicode = 265;
},
{
glyphname = cdotaccent;
lastChange = "2023-02-17 14:17:32 +0000";
layers = (
{
background = {
shapes = (
{
closed = 1;
nodes = (
(389,-15,o),
(452,-10,o),
(520,15,c),
(496,171,l),
(381,171,l),
(354,50,l),
(250,50,l),
(250,500,l),
(354,500,l),
(381,379,l),
(496,379,l),
(520,535,l),
(454,554,o),
(389,565,o),
(320,565,cs),
(183,565,o),
(60,565,o),
(60,314,cs),
(60,236,ls),
(60,-15,o),
(183,-15,o),
(320,-15,cs,{
name = hr00;
})
);
},
{
closed = 1;
nodes = (
(388,765,o),
(404,742,o),
(404,675,cs),
(404,608,o),
(388,584,o),
(307,584,cs),
(226,584,o),
(210,608,o),
(210,675,cs),
(210,742,o),
(226,765,o),
(307,765,cs,{
name = hr00;
})
);
}
);
};
layerId = master01;
shapes = (
{
ref = c;
},
{
pos = (166,0);
ref = dotaccentcomb;
}
);
width = 555;
}
);
unicode = 267;
},
{
glyphname = d;
lastChange = "2023-02-17 14:17:41 +0000";
layers = (
{
anchors = (
{
name = bottom;
pos = (334,0);
},
{
name = center;
pos = (334,275);
},
{
name = top;
pos = (334,873);
},
{
name = topright;
pos = (628,873);
}
);
background = {
shapes = (
{
closed = 1;
nodes = (
(628,38,l),
(588,38,l),
(588,729,l),
(357,729,l),
(357,691,l),
(397,691,l),
(397,548,l),
(378,549,o),
(356,550,o),
(337,550,cs),
(191,550,o),
(60,550,o),
(60,299,cs),
(60,236,ls),
(60,-13,o),
(178,-15,o),
(298,-15,cs,{
name = hr01;
}),
(380,-15,o),
(412,-4,o),
(452,76,c),
(465,76,l),
(505,0,l,{
name = hr02;
}),
(628,0,l)
);
},
{
closed = 1;
nodes = (
(397,475,l),
(397,76,l,{
name = hr03;
}),
(250,76,l),
(250,475,l)
);
}
);
};
layerId = master01;
shapes = (
{
closed = 1;
nodes = (
(628,38,l),
(588,38,l),
(588,729,l),
(357,729,l),
(357,691,l),
(397,691,l),
(397,548,l),
(378,549,o),
(356,550,o),
(337,550,cs),
(191,550,o),
(60,550,o),
(60,299,cs),
(60,236,ls),
(60,-13,o),
(178,-15,o),
(298,-15,cs,{
name = hr01;
}),
(380,-15,o),
(412,-4,o),
(452,76,c),
(465,76,l),
(505,0,l,{
name = hr02;
}),
(628,0,l)
);
},
{
closed = 1;
nodes = (
(397,475,l),
(397,76,l,{
name = hr03;
}),
(250,76,l),
(250,475,l)
);
}
);
width = 668;
}
);
unicode = 100;
},
{
glyphname = eth;
lastChange = "2023-02-17 14:07:39 +0000";
layers = (
{
anchors = (
{
name = bottom;
pos = (324,0);
},
{
name = top;
pos = (324,873);
}
);
background = {
shapes = (
{
closed = 1;
nodes = (
(191,599,l),
(243,627,o),
(355,649,o),
(397,649,c),
(397,599,l),
(302,558,l),
(302,486,l),
(397,527,l),
(397,444,l),
(377,445,o),
(357,445,o),
(337,445,cs),
(191,445,o),
(60,445,o),
(60,223,cs),
(60,207,ls),
(60,-15,o),
(178,-15,o),
(310,-15,cs),
(456,-15,o),
(587,-15,o),
(587,207,cs),
(587,413,ls),
(587,486,o),
(582,550,o),
(565,601,c),
(647,637,l),
(647,709,l),
(538,661,l),
(504,711,o),
(448,740,o),
(358,740,cs),
(305,740,o),
(237,729,o),
(169,703,c,{
name = hr00;
})
);
},
{
closed = 1;
nodes = (
(250,60,l),
(250,370,l),
(397,370,l),
(397,60,l)
);
}
);
};
layerId = master01;
shapes = (
{
closed = 1;
nodes = (
(191,599,l),
(243,627,o),
(355,649,o),
(397,649,c),
(397,599,l),
(302,558,l),
(302,486,l),
(397,527,l),
(397,444,l),
(377,445,o),
(357,445,o),
(337,445,cs),
(191,445,o),
(60,445,o),
(60,223,cs),
(60,207,ls),
(60,-15,o),
(178,-15,o),
(310,-15,cs),
(456,-15,o),
(587,-15,o),
(587,207,cs),
(587,413,ls),
(587,486,o),
(582,550,o),
(565,601,c),
(647,637,l),
(647,709,l),
(538,661,l),
(504,711,o),
(448,740,o),
(358,740,cs),
(305,740,o),
(237,729,o),
(169,703,c,{
name = hr00;
})
);
},
{
closed = 1;
nodes = (
(250,60,l),
(250,370,l),
(397,370,l),
(397,60,l)
);
}
);
width = 647;
}
);
unicode = 240;
},
{
glyphname = dcaron;
lastChange = "2023-02-17 14:17:41 +0000";
layers = (
{
background = {
shapes = (
{
closed = 1;
nodes = (
(628,38,l),
(588,38,l),
(588,729,l),
(357,729,l),
(357,691,l),
(397,691,l),
(397,548,l),
(378,549,o),
(356,550,o),
(337,550,cs),
(191,550,o),
(60,550,o),
(60,299,cs),
(60,236,ls),
(60,-13,o),
(178,-15,o),
(298,-15,cs,{
name = hr01;
}),
(380,-15,o),
(412,-4,o),
(452,76,c),
(465,76,l),
(505,0,l,{
name = hr02;
}),
(628,0,l)
);
},
{
closed = 1;
nodes = (
(397,475,l),
(397,76,l,{
name = hr03;
}),
(250,76,l),
(250,475,l)
);
},
{
closed = 1;
nodes = (
(808,771,o),
(794,778,o),
(736,778,cs),
(665,778,o),
(648,771,o),
(648,699,cs),
(648,642,o),
(668,629,o),
(704,629,c),
(691,529,l),
(735,523,l),
(785,570,o),
(808,631,o),
(808,699,cs,{
name = hr00;
})
);
}
);
};
layerId = master01;
shapes = (
{
ref = d;
},
{
pos = (613,0);
ref = caroncomb.alt;
}
);
width = 668;
}
);
unicode = 271;
},
{
glyphname = dcroat;
lastChange = "2023-02-17 14:17:45 +0000";
layers = (
{
background = {
shapes = (
{
alignment = -1;
ref = d;
},
{
alignment = -1;
pos = (192,367);
ref = barra;
scale = (1.4,0.8);
}
);
};
layerId = master01;
shapes = (
{
closed = 1;
nodes = (
(662,596,l),
(662,645,l),
(192,645,l),
(192,596,l)
);
},
{
alignment = -1;
ref = d;
}
);
width = 668;
}
);
unicode = 273;
},
{
glyphname = e;
lastChange = "2023-02-17 14:17:58 +0000";
layers = (
{
anchors = (
{
name = bottom;
pos = (297,0);
},
{
name = ogonek;
pos = (543,38);
},
{
name = top;
pos = (317,550);
}
);
background = {
shapes = (
{
closed = 1;
nodes = (
(387,490,l),
(387,310,l),
(250,310,l),
(250,490,l,{
name = hr00;
})
);
},
{
closed = 1;
nodes = (
(250,235,l),
(331,235,ls),
(444,235,o),
(543,235,o),
(543,400,cs),
(543,565,o),
(444,565,o),
(331,565,cs),
(191,565,o),
(60,565,o),
(60,314,cs),
(60,184,ls),
(60,-1,o),
(192,-15,o),
(306,-15,cs),
(375,-15,o),
(464,-2,o),
(531,15,c),
(508,171,l),
(401,171,l),
(375,60,l),
(250,60,l)
);
}
);
};
layerId = master01;
shapes = (
{
closed = 1;
nodes = (
(387,490,l),
(387,310,l),
(250,310,l),
(250,490,l,{
name = hr00;
})
);
},
{
closed = 1;
nodes = (
(250,235,l),
(331,235,ls),
(444,235,o),
(543,235,o),
(543,400,cs),
(543,565,o),
(444,565,o),
(331,565,cs),
(191,565,o),
(60,565,o),
(60,314,cs),
(60,184,ls),
(60,-1,o),
(192,-15,o),
(306,-15,cs),
(375,-15,o),
(464,-2,o),
(531,15,c),
(508,171,l),
(401,171,l),
(375,60,l),
(250,60,l)
);
}
);
width = 593;
}
);
unicode = 101;
},
{
glyphname = eacute;
lastChange = "2023-02-17 14:17:49 +0000";
layers = (
{
background = {
shapes = (
{
closed = 1;
nodes = (
(387,490,l),
(387,310,l),
(250,310,l),
(250,490,l,{
name = hr00;
})
);
},
{
closed = 1;
nodes = (
(250,235,l),
(331,235,ls),
(444,235,o),
(543,235,o),
(543,400,cs),
(543,565,o),
(444,565,o),
(331,565,cs),
(191,565,o),
(60,565,o),
(60,314,cs),
(60,184,ls),
(60,-1,o),
(192,-15,o),
(306,-15,cs),
(375,-15,o),
(464,-2,o),
(531,15,c),
(508,171,l),
(401,171,l),
(375,60,l),
(250,60,l)
);
},
{
closed = 1;
nodes = (
(235,586,l),
(462,645,l),
(413,780,l),
(202,678,l,{
name = hr00;
})
);
}
);
};
layerId = master01;
shapes = (
{
ref = e;
},
{
pos = (136,0);
ref = acutecomb;
}
);
width = 593;
}
);
unicode = 233;
},
{
glyphname = ebreve;
lastChange = "2023-02-17 14:17:49 +0000";
layers = (
{
background = {
shapes = (
{
closed = 1;
nodes = (
(387,490,l),
(387,310,l),
(250,310,l),
(250,490,l,{
name = hr00;
})
);
},
{
closed = 1;
nodes = (
(250,235,l),
(331,235,ls),
(444,235,o),
(543,235,o),
(543,400,cs),
(543,565,o),
(444,565,o),
(331,565,cs),
(191,565,o),
(60,565,o),
(60,314,cs),
(60,184,ls),
(60,-1,o),
(192,-15,o),
(306,-15,cs),
(375,-15,o),
(464,-2,o),
(531,15,c),
(508,171,l),
(401,171,l),
(375,60,l),
(250,60,l)
);
},
{
closed = 1;
nodes = (
(279,710,o),
(228,727,o),
(196,749,c),
(181,725,o),
(166,699,o),
(150,674,c),
(187,617,o),
(246,588,o),
(316,588,cs),
(386,588,o),
(445,617,o),
(482,674,c),
(464,703,o),
(455,719,o),
(436,749,c),
(404,727,o),
(353,710,o),
(316,710,cs,{
name = hr00;
})
);
}
);
};
layerId = master01;
shapes = (
{
ref = e;
},
{
pos = (118,0);
ref = brevecomb;
}
);
width = 593;
}
);
unicode = 277;
},
{
glyphname = ecaron;
lastChange = "2023-02-17 14:17:49 +0000";
layers = (
{
background = {
shapes = (
{
closed = 1;
nodes = (
(387,490,l),
(387,310,l),
(250,310,l),
(250,490,l,{
name = hr00;
})
);
},
{
closed = 1;
nodes = (
(250,235,l),
(331,235,ls),
(444,235,o),
(543,235,o),
(543,400,cs),
(543,565,o),
(444,565,o),
(331,565,cs),
(191,565,o),
(60,565,o),
(60,314,cs),
(60,184,ls),
(60,-1,o),
(192,-15,o),
(306,-15,cs),
(375,-15,o),
(464,-2,o),
(531,15,c),
(508,171,l),
(401,171,l),
(375,60,l),
(250,60,l)
);
},
{
closed = 1;
nodes = (
(423,788,l),
(316,712,l),
(209,788,l),
(150,717,l),
(268,587,l),
(364,587,l),
(482,717,l,{
name = hr00;
})
);
}
);
};
layerId = master01;
shapes = (
{
ref = e;
},
{
pos = (116,0);
ref = caroncomb;
}
);
width = 593;
}
);
unicode = 283;
},
{
glyphname = ecircumflex;
lastChange = "2023-02-17 14:17:49 +0000";
layers = (
{
background = {
shapes = (
{
closed = 1;
nodes = (
(387,490,l),
(387,310,l),
(250,310,l),
(250,490,l,{
name = hr00;
})
);
},
{
closed = 1;
nodes = (
(250,235,l),
(331,235,ls),
(444,235,o),
(543,235,o),
(543,400,cs),
(543,565,o),
(444,565,o),
(331,565,cs),
(191,565,o),
(60,565,o),
(60,314,cs),
(60,184,ls),
(60,-1,o),
(192,-15,o),
(306,-15,cs),
(375,-15,o),
(464,-2,o),
(531,15,c),
(508,171,l),
(401,171,l),
(375,60,l),
(250,60,l)
);
},
{
closed = 1;
nodes = (
(263,787,l),
(145,657,l),
(204,586,l),
(311,662,l),
(418,586,l),
(477,657,l),
(359,787,l,{
name = hr00;
})
);
}
);
};
layerId = master01;
shapes = (
{
ref = e;
},
{
pos = (116,0);
ref = circumflexcomb;
}
);
width = 593;
}
);
unicode = 234;
},
{
glyphname = edieresis;
lastChange = "2023-02-17 14:17:49 +0000";
layers = (
{
background = {
shapes = (
{
closed = 1;
nodes = (
(387,490,l),
(387,310,l),
(250,310,l),
(250,490,l,{
name = hr00;
})
);
},
{
closed = 1;
nodes = (
(250,235,l),
(331,235,ls),
(444,235,o),
(543,235,o),
(543,400,cs),
(543,565,o),
(444,565,o),
(331,565,cs),
(191,565,o),
(60,565,o),
(60,314,cs),
(60,184,ls),
(60,-1,o),
(192,-15,o),
(306,-15,cs),
(375,-15,o),
(464,-2,o),
(531,15,c),
(508,171,l),
(401,171,l),
(375,60,l),
(250,60,l)
);
},
{
closed = 1;
nodes = (
(264,757,o),
(252,765,o),
(201,765,cs),
(143,765,o),
(130,757,o),
(130,682,cs),
(130,607,o),
(143,599,o),
(201,599,cs),
(252,599,o),
(264,607,o),
(264,682,cs,{
name = hr00;
})
);
},
{
closed = 1;
nodes = (
(462,757,o),
(450,765,o),
(399,765,cs),
(341,765,o),
(328,757,o),
(328,682,cs),
(328,607,o),
(341,599,o),
(399,599,cs),
(450,599,o),
(462,607,o),
(462,682,cs)
);
}
);
};
layerId = master01;
shapes = (
{
ref = e;
},
{
pos = (101,0);
ref = dieresiscomb;
}
);
width = 593;
}
);
unicode = 235;
},
{
glyphname = edotaccent;
lastChange = "2023-02-17 14:17:49 +0000";
layers = (
{
background = {
shapes = (
{
closed = 1;
nodes = (
(387,490,l),
(387,310,l),
(250,310,l),
(250,490,l,{
name = hr00;
})
);
},
{
closed = 1;
nodes = (
(250,235,l),
(331,235,ls),
(444,235,o),
(543,235,o),
(543,400,cs),
(543,565,o),
(444,565,o),
(331,565,cs),
(191,565,o),
(60,565,o),
(60,314,cs),
(60,184,ls),
(60,-1,o),
(192,-15,o),
(306,-15,cs),
(375,-15,o),
(464,-2,o),
(531,15,c),
(508,171,l),
(401,171,l),
(375,60,l),
(250,60,l)
);
},
{
closed = 1;
nodes = (
(397,765,o),
(413,742,o),
(413,675,cs),
(413,608,o),
(397,584,o),
(316,584,cs),
(235,584,o),
(219,608,o),
(219,675,cs),
(219,742,o),
(235,765,o),
(316,765,cs,{
name = hr00;
})
);
}
);
};
layerId = master01;
shapes = (
{
ref = e;
},
{
pos = (165,0);
ref = dotaccentcomb;
}
);
width = 593;
}
);
unicode = 279;
},
{
glyphname = egrave;
lastChange = "2023-02-17 14:17:49 +0000";
layers = (
{
background = {
shapes = (
{
closed = 1;
nodes = (
(387,490,l),
(387,310,l),
(250,310,l),
(250,490,l,{
name = hr00;
})
);
},
{
closed = 1;
nodes = (
(250,235,l),
(331,235,ls),
(444,235,o),
(543,235,o),
(543,400,cs),
(543,565,o),
(444,565,o),
(331,565,cs),
(191,565,o),
(60,565,o),
(60,314,cs),
(60,184,ls),
(60,-1,o),
(192,-15,o),
(306,-15,cs),
(375,-15,o),
(464,-2,o),
(531,15,c),
(508,171,l),
(401,171,l),
(375,60,l),
(250,60,l)
);
},
{
closed = 1;
nodes = (
(182,645,l),
(409,586,l),
(442,678,l),
(231,780,l,{
name = hr00;
})
);
}
);
};
layerId = master01;
shapes = (
{
ref = e;
},
{
pos = (187,0);
ref = gravecomb;
}
);
width = 593;
}
);
unicode = 232;
},
{
glyphname = emacron;
lastChange = "2023-02-17 14:17:49 +0000";
layers = (
{
background = {
shapes = (
{
closed = 1;
nodes = (
(387,490,l),
(387,310,l),
(250,310,l),
(250,490,l,{
name = hr00;
})
);
},
{
closed = 1;
nodes = (
(250,235,l),
(331,235,ls),
(444,235,o),
(543,235,o),
(543,400,cs),
(543,565,o),
(444,565,o),
(331,565,cs),
(191,565,o),
(60,565,o),
(60,314,cs),
(60,184,ls),
(60,-1,o),
(192,-15,o),
(306,-15,cs),
(375,-15,o),
(464,-2,o),
(531,15,c),
(508,171,l),
(401,171,l),
(375,60,l),
(250,60,l)
);
},
{
closed = 1;
nodes = (
(462,610,l),
(462,734,l),
(170,734,l),
(170,610,l,{
name = hr00;
})
);
}
);
};
layerId = master01;
shapes = (
{
ref = e;
},
{
pos = (131,0);
ref = macroncomb;
}
);
width = 593;
}
);
unicode = 275;
},
{
glyphname = eogonek;
lastChange = "2023-02-17 14:17:58 +0000";
layers = (
{
background = {
shapes = (
{
closed = 1;
nodes = (
(387,490,l),
(387,310,l),
(250,310,l),
(250,490,l,{
name = hr00;
})
);
},
{
closed = 1;
nodes = (
(250,235,l),
(331,235,ls),
(444,235,o),
(543,235,o),
(543,400,cs),
(543,565,o),
(444,565,o),
(331,565,cs),
(191,565,o),
(60,565,o),
(60,314,cs),
(60,184,ls),
(60,-1,o),
(192,-15,o),
(306,-15,cs),
(375,-15,o),
(464,-2,o),
(531,15,c),
(508,171,l),
(401,171,l),
(375,60,l),
(250,60,l)
);
},
{
closed = 1;
nodes = (
(326,-141,o),
(366,-165,o),
(418,-165,cs),
(465,-165,o),
(517,-137,o),
(543,-110,c),
(533,-53,l),
(517,-63,o),
(492,-72,o),
(471,-72,cs),
(452,-72,o),
(436,-61,o),
(436,-40,cs),
(436,-14,o),
(452,5,o),
(496,11,c),
(496,38,l),
(388,22,o),
(326,-17,o),
(326,-87,cs,{
name = hr00;
})
);
}
);
};
layerId = master01;
shapes = (
{
ref = e;
},
{
pos = (303,0);
ref = ogonekcomb;
}
);
width = 593;
}
);
unicode = 281;
},
{
glyphname = f;
lastChange = "2023-02-17 14:07:39 +0000";
layers = (
{
anchors = (
{
name = bottom;
pos = (180,0);
},
{
name = top;
pos = (180,873);
}
);
background = {
shapes = (
{
closed = 1;
nodes = (
(85,444,l,{
name = hr01;
}),
(85,38,l),
(45,38,l,{
name = hr02;
}),
(45,0,l),
(345,0,l),
(345,38,l),
(275,38,l,{
name = hr03;
}),
(275,444,l),
(352,444,l),
(352,492,l),
(230,492,ls),
(214,492,o),
(200,492,o),
(200,518,cs,{
name = hr04;
}),
(200,578,l),
(352,578,l),
(369,731,l),
(332,739,o),
(299,744,o),
(267,744,cs),
(143,744,o),
(85,692,o),
(85,540,cs,{
name = hr05;
}),
(85,492,l),
(45,492,l,{
name = hr06;
}),
(45,444,l)
);
}
);
};
layerId = master01;
shapes = (
{
closed = 1;
nodes = (
(85,444,l,{
name = hr01;
}),
(85,38,l),
(45,38,l,{
name = hr02;
}),
(45,0,l),
(345,0,l),
(345,38,l),
(275,38,l,{
name = hr03;
}),
(275,444,l),
(352,444,l),
(352,492,l),
(230,492,ls),
(214,492,o),
(200,492,o),
(200,518,cs,{
name = hr04;
}),
(200,578,l),
(352,578,l),
(369,731,l),
(332,739,o),
(299,744,o),
(267,744,cs),
(143,744,o),
(85,692,o),
(85,540,cs,{
name = hr05;
}),
(85,492,l),
(45,492,l,{
name = hr06;
}),
(45,444,l)
);
}
);
width = 360;
}
);
unicode = 102;
},
{
glyphname = g;
lastChange = "2023-02-17 14:18:02 +0000";
layers = (
{
anchors = (
{
name = bottom;
pos = (295,-195);
},
{
name = top;
pos = (282,550);
}
);
background = {
shapes = (
{
closed = 1;
nodes = (
(20,-160,o),
(49,-195,o),
(276,-195,cs),
(492,-195,o),
(547,-156,o),
(547,-18,cs),
(547,104,o),
(467,135,o),
(413,135,cs),
(264,135,ls),
(237,135,o),
(230,151,o),
(230,191,cs,{
name = hr01;
}),
(230,215,l),
(266,215,ls),
(399,215,o),
(519,215,o),
(519,366,cs),
(519,483,ls),
(519,504,o),
(525,511,o),
(538,511,cs),
(549,511,l),
(549,600,l),
(505,600,ls),
(446,600,o),
(433,582,o),
(419,525,cs),
(409,484,l),
(396,484,l),
(396,551,o),
(347,565,o),
(262,565,cs),
(143,565,o),
(37,565,o),
(37,387,cs,{
name = hr02;
}),
(37,366,ls),
(37,284,o),
(73,246,o),
(124,229,c,{
name = hr03;
}),
(124,167,ls),
(124,140,o),
(131,113,o),
(175,104,c),
(175,91,l),
(100,91,ls),
(68,91,o),
(20,61,o),
(20,-41,cs)
);
},
{
closed = 1;
nodes = (
(210,297,l,{
name = hr05;
}),
(210,484,l),
(347,484,l),
(347,297,l)
);
},
{
closed = 1;
nodes = (
(403,-95,l),
(161,-95,l),
(161,10,l),
(403,10,l,{
name = hr06;
})
);
}
);
};
layerId = master01;
shapes = (
{
closed = 1;
nodes = (
(20,-160,o),
(49,-195,o),
(276,-195,cs),
(492,-195,o),
(547,-156,o),
(547,-18,cs),
(547,104,o),
(467,135,o),
(413,135,cs),
(264,135,ls),
(237,135,o),
(230,151,o),
(230,191,cs,{
name = hr01;
}),
(230,215,l),
(266,215,ls),
(399,215,o),
(519,215,o),
(519,366,cs),
(519,483,ls),
(519,504,o),
(525,511,o),
(538,511,cs),
(549,511,l),
(549,600,l),
(505,600,ls),
(446,600,o),
(433,582,o),
(419,525,cs),
(409,484,l),
(396,484,l),
(396,551,o),
(347,565,o),
(262,565,cs),
(143,565,o),
(37,565,o),
(37,387,cs,{
name = hr02;
}),
(37,366,ls),
(37,284,o),
(73,246,o),
(124,229,c,{
name = hr03;
}),
(124,167,ls),
(124,140,o),
(131,113,o),
(175,104,c),
(175,91,l),
(100,91,ls),
(68,91,o),
(20,61,o),
(20,-41,cs)
);
},
{
closed = 1;
nodes = (
(210,297,l,{
name = hr05;
}),
(210,484,l),
(347,484,l),
(347,297,l)
);
},
{
closed = 1;
nodes = (
(403,-95,l),
(161,-95,l),
(161,10,l),
(403,10,l,{
name = hr06;
})
);
}
);
width = 589;
}
);
unicode = 103;
},
{
glyphname = gbreve;
lastChange = "2023-02-17 14:18:02 +0000";
layers = (
{
background = {
shapes = (
{
closed = 1;
nodes = (
(20,-160,o),
(49,-195,o),
(276,-195,cs),
(492,-195,o),
(547,-156,o),
(547,-18,cs),
(547,104,o),
(467,135,o),
(413,135,cs),
(264,135,ls),
(237,135,o),
(230,151,o),
(230,191,cs,{
name = hr01;
}),
(230,215,l),
(266,215,ls),
(399,215,o),
(519,215,o),
(519,366,cs),
(519,483,ls),
(519,504,o),
(525,511,o),
(538,511,cs),
(549,511,l),
(549,600,l),
(505,600,ls),
(446,600,o),
(433,582,o),
(419,525,cs),
(409,484,l),
(396,484,l),
(396,551,o),
(347,565,o),
(262,565,cs),
(143,565,o),
(37,565,o),
(37,387,cs,{
name = hr02;
}),
(37,366,ls),
(37,284,o),
(73,246,o),
(124,229,c,{
name = hr03;
}),
(124,167,ls),
(124,140,o),
(131,113,o),
(175,104,c),
(175,91,l),
(100,91,ls),
(68,91,o),
(20,61,o),
(20,-41,cs)
);
},
{
closed = 1;
nodes = (
(210,297,l,{
name = hr05;
}),
(210,484,l),
(347,484,l),
(347,297,l)
);
},
{
closed = 1;
nodes = (
(403,-95,l),
(161,-95,l),
(161,10,l),
(403,10,l,{
name = hr06;
})
);
},
{
closed = 1;
nodes = (
(244,710,o),
(193,727,o),
(161,749,c),
(146,725,o),
(131,699,o),
(115,674,c),
(152,617,o),
(211,588,o),
(281,588,cs),
(351,588,o),
(410,617,o),
(447,674,c),
(429,703,o),
(420,719,o),
(401,749,c),
(369,727,o),
(318,710,o),
(281,710,cs,{
name = hr00;
})
);
}
);
};
layerId = master01;
shapes = (
{
ref = g;
},
{
pos = (83,0);
ref = brevecomb;
}
);
width = 589;
}
);
unicode = 287;
},
{
glyphname = gcircumflex;
lastChange = "2023-02-17 14:18:02 +0000";
layers = (
{
background = {
shapes = (
{
closed = 1;
nodes = (
(20,-160,o),
(49,-195,o),
(276,-195,cs),
(492,-195,o),
(547,-156,o),
(547,-18,cs),
(547,104,o),
(467,135,o),
(413,135,cs),
(264,135,ls),
(237,135,o),
(230,151,o),
(230,191,cs,{
name = hr01;
}),
(230,215,l),
(266,215,ls),
(399,215,o),
(519,215,o),
(519,366,cs),
(519,483,ls),
(519,504,o),
(525,511,o),
(538,511,cs),
(549,511,l),
(549,600,l),
(505,600,ls),
(446,600,o),
(433,582,o),
(419,525,cs),
(409,484,l),
(396,484,l),
(396,551,o),
(347,565,o),
(262,565,cs),
(143,565,o),
(37,565,o),
(37,387,cs,{
name = hr02;
}),
(37,366,ls),
(37,284,o),
(73,246,o),
(124,229,c,{
name = hr03;
}),
(124,167,ls),
(124,140,o),
(131,113,o),
(175,104,c),
(175,91,l),
(100,91,ls),
(68,91,o),
(20,61,o),
(20,-41,cs)
);
},
{
closed = 1;
nodes = (
(210,297,l,{
name = hr05;
}),
(210,484,l),
(347,484,l),
(347,297,l)
);
},
{
closed = 1;
nodes = (
(403,-95,l),
(161,-95,l),
(161,10,l),
(403,10,l,{
name = hr06;
})
);
},
{
closed = 1;
nodes = (
(232,787,l),
(114,657,l),
(173,586,l),
(280,662,l),
(387,586,l),
(446,657,l),
(328,787,l,{
name = hr00;
})
);
}
);
};
layerId = master01;
shapes = (
{
ref = g;
},
{
pos = (81,0);
ref = circumflexcomb;
}
);
width = 589;
}
);
unicode = 285;
},
{
glyphname = gcommaaccent;
lastChange = "2023-02-17 14:18:02 +0000";
layers = (
{
background = {
shapes = (
{
closed = 1;
nodes = (
(20,-160,o),
(49,-195,o),
(276,-195,cs),
(492,-195,o),
(547,-156,o),
(547,-18,cs),
(547,104,o),
(467,135,o),
(413,135,cs),
(264,135,ls),
(237,135,o),
(230,151,o),
(230,191,cs,{
name = hr01;
}),
(230,215,l),
(266,215,ls),
(399,215,o),
(519,215,o),
(519,366,cs),
(519,483,ls),
(519,504,o),
(525,511,o),
(538,511,cs),
(549,511,l),
(549,600,l),
(505,600,ls),
(446,600,o),
(433,582,o),
(419,525,cs),
(409,484,l),
(396,484,l),
(396,551,o),
(347,565,o),
(262,565,cs),
(143,565,o),
(37,565,o),
(37,387,cs,{
name = hr02;
}),
(37,366,ls),
(37,284,o),
(73,246,o),
(124,229,c,{
name = hr03;
}),
(124,167,ls),
(124,140,o),
(131,113,o),
(175,104,c),
(175,91,l),
(100,91,ls),
(68,91,o),
(20,61,o),
(20,-41,cs)
);
},
{
closed = 1;
nodes = (
(210,297,l,{
name = hr05;
}),
(210,484,l),
(347,484,l),
(347,297,l)
);
},
{
closed = 1;
nodes = (
(403,-95,l),
(161,-95,l),
(161,10,l),
(403,10,l,{
name = hr06;
})
);
},
{
closed = 1;
nodes = (
(201,591,o),
(215,584,o),
(273,584,cs),
(344,584,o),
(361,591,o),
(361,663,cs),
(361,720,o),
(341,733,o),
(305,733,c),
(318,833,l),
(274,839,l),
(224,792,o),
(201,731,o),
(201,663,cs,{
name = hr00;
})
);
}
);
};
layerId = master01;
shapes = (
{
ref = g;
},
{
pos = (152,0);
ref = commaturnedabovecomb;
}
);
width = 589;
}
);
unicode = 291;
},
{
glyphname = gdotaccent;
lastChange = "2023-02-17 14:18:02 +0000";
layers = (
{
background = {
shapes = (
{
closed = 1;
nodes = (
(20,-160,o),
(49,-195,o),
(276,-195,cs),
(492,-195,o),
(547,-156,o),
(547,-18,cs),
(547,104,o),
(467,135,o),
(413,135,cs),
(264,135,ls),
(237,135,o),
(230,151,o),
(230,191,cs,{
name = hr01;
}),
(230,215,l),
(266,215,ls),
(399,215,o),
(519,215,o),
(519,366,cs),
(519,483,ls),
(519,504,o),
(525,511,o),
(538,511,cs),
(549,511,l),
(549,600,l),
(505,600,ls),
(446,600,o),
(433,582,o),
(419,525,cs),
(409,484,l),
(396,484,l),
(396,551,o),
(347,565,o),
(262,565,cs),
(143,565,o),
(37,565,o),
(37,387,cs,{
name = hr02;
}),
(37,366,ls),
(37,284,o),
(73,246,o),
(124,229,c,{
name = hr03;
}),
(124,167,ls),
(124,140,o),
(131,113,o),
(175,104,c),
(175,91,l),
(100,91,ls),
(68,91,o),
(20,61,o),
(20,-41,cs)
);
},
{
closed = 1;
nodes = (
(210,297,l,{
name = hr05;
}),
(210,484,l),
(347,484,l),
(347,297,l)
);
},
{
closed = 1;
nodes = (
(403,-95,l),
(161,-95,l),
(161,10,l),
(403,10,l,{
name = hr06;
})
);
},
{
closed = 1;
nodes = (
(362,765,o),
(378,742,o),
(378,675,cs),
(378,608,o),
(362,584,o),
(281,584,cs),
(200,584,o),
(184,608,o),
(184,675,cs),
(184,742,o),
(200,765,o),
(281,765,cs,{
name = hr00;
})
);
}
);
};
layerId = master01;
shapes = (
{
ref = g;
},
{
pos = (130,0);
ref = dotaccentcomb;
}
);
width = 589;
}
);
unicode = 289;
},
{
glyphname = h;
lastChange = "2023-02-17 14:18:10 +0000";
layers = (
{
anchors = (
{
name = bottom;
pos = (346,0);
},
{
name = center;
pos = (346,437);
},
{
name = top;
pos = (178,715);
}
);
background = {
shapes = (
{
closed = 1;
nodes = (
(652,38,l),
(612,38,l),
(612,405,ls),
(612,522,o),
(536,555,o),
(415,555,cs),
(315,555,o),
(256,544,o),
(226,464,c),
(208,464,l),
(208,550,ls),
(208,566,o),
(210,571,o),
(234,580,cs),
(275,595,l,{
name = hr01;
}),
(275,729,l),
(45,729,l),
(45,691,l),
(85,691,l),
(85,38,l),
(45,38,l),
(45,0,l),
(275,0,l),
(275,464,l),
(422,464,l),
(422,0,l),
(652,0,l)
);
}
);
};
layerId = master01;
shapes = (
{
closed = 1;
nodes = (
(652,38,l),
(612,38,l),
(612,405,ls),
(612,522,o),
(536,555,o),
(415,555,cs),
(315,555,o),
(256,544,o),
(226,464,c),
(208,464,l),
(208,550,ls),
(208,566,o),
(210,571,o),
(234,580,cs),
(275,595,l,{
name = hr01;
}),
(275,729,l),
(45,729,l),
(45,691,l),
(85,691,l),
(85,38,l),
(45,38,l),
(45,0,l),
(275,0,l),
(275,464,l),
(422,464,l),
(422,0,l),
(652,0,l)
);
}
);
width = 692;
}
);
unicode = 104;
},
{
glyphname = hbar;
lastChange = "2023-02-17 14:18:14 +0000";
layers = (
{
background = {
shapes = (
{
alignment = -1;
ref = h;
},
{
alignment = -1;
pos = (10,367);
ref = barra;
scale = (1.4,0.8);
}
);
};
layerId = master01;
shapes = (
{
closed = 1;
nodes = (
(480,596,l),
(480,645,l),
(10,645,l),
(10,596,l)
);
},
{
alignment = -1;
ref = h;
}
);
width = 692;
}
);
unicode = 295;
},
{
glyphname = hcircumflex;
lastChange = "2023-02-17 14:18:10 +0000";
layers = (
{
background = {
shapes = (
{
closed = 1;
nodes = (
(652,38,l),
(612,38,l),
(612,405,ls),
(612,522,o),
(536,555,o),
(415,555,cs),
(315,555,o),
(256,544,o),
(226,464,c),
(208,464,l),
(208,550,ls),
(208,566,o),
(210,571,o),
(234,580,cs),
(275,595,l,{
name = hr01;
}),
(275,729,l),
(45,729,l),
(45,691,l),
(85,691,l),
(85,38,l),
(45,38,l),
(45,0,l),
(275,0,l),
(275,464,l),
(422,464,l),
(422,0,l),
(652,0,l)
);
},
{
closed = 1;
nodes = (
(129,952,l),
(11,822,l),
(70,751,l),
(177,827,l),
(284,751,l),
(343,822,l),
(225,952,l,{
name = hr00;
})
);
}
);
};
layerId = master01;
shapes = (
{
ref = h;
},
{
pos = (-23,80);
ref = circumflexcomb.case;
}
);
width = 692;
}
);
unicode = 293;
},
{
glyphname = i;
lastChange = "2023-02-17 14:18:23 +0000";
layers = (
{
anchors = (
{
name = bottom;
pos = (178,0);
}
);
background = {
shapes = (
{
closed = 1;
nodes = (
(315,38,l),
(275,38,l),
(275,550,l),
(45,550,l),
(45,512,l),
(85,512,l),
(85,38,l),
(45,38,l),
(45,0,l),
(315,0,l,{
name = hr00;
})
);
},
{
closed = 1;
nodes = (
(284,757,o),
(266,765,o),
(186,765,cs),
(95,765,o),
(75,757,o),
(75,682,cs),
(75,607,o),
(95,599,o),
(186,599,cs),
(266,599,o),
(284,607,o),
(284,682,cs)
);
}
);
};
layerId = master01;
shapes = (
{
closed = 1;
nodes = (
(266,599,o),
(284,607,o),
(284,682,cs),
(284,757,o),
(266,765,o),
(186,765,cs),
(95,765,o),
(75,757,o),
(75,682,cs),
(75,607,o),
(95,599,o),
(186,599,cs)
);
},
{
ref = idotless;
}
);
width = 355;
}
);
unicode = 105;
},
{
glyphname = idotless;
lastChange = "2023-02-17 14:18:35 +0000";
layers = (
{
anchors = (
{
name = bottom;
pos = (178,0);
},
{
name = ogonek;
pos = (306,38);
},
{
name = top;
pos = (178,550);
}
);
background = {
shapes = (
{
closed = 1;
nodes = (
(315,38,l),
(275,38,l),
(275,550,l),
(45,550,l),
(45,512,l),
(85,512,l),
(85,38,l),
(45,38,l),
(45,0,l),
(315,0,l,{
name = hr00;
})
);
}
);
};
layerId = master01;
shapes = (
{
closed = 1;
nodes = (
(315,38,l),
(275,38,l),
(275,550,l),
(45,550,l),
(45,512,l),
(85,512,l),
(85,38,l),
(45,38,l),
(45,0,l),
(315,0,l,{
name = hr00;
})
);
}
);
width = 355;
}
);
unicode = 305;
},
{
glyphname = iacute;
lastChange = "2023-02-17 14:08:22 +0000";
layers = (
{
background = {
shapes = (
{
closed = 1;
nodes = (
(315,38,l),
(275,38,l),
(275,550,l),
(45,550,l),
(45,512,l),
(85,512,l),
(85,38,l),
(45,38,l),
(45,0,l),
(315,0,l,{
name = hr00;
})
);
},
{
closed = 1;
nodes = (
(80,586,l),
(307,645,l),
(258,780,l),
(47,678,l,{
name = hr00;
})
);
}
);
};
layerId = master01;
shapes = (
{
ref = idotless;
},
{
pos = (-3,0);
ref = acutecomb;
}
);
width = 355;
}
);
unicode = 237;
},
{
glyphname = ibreve;
lastChange = "2023-02-17 14:08:22 +0000";
layers = (
{
background = {
shapes = (
{
closed = 1;
nodes = (
(315,38,l),
(275,38,l),
(275,550,l),
(45,550,l),
(45,512,l),
(85,512,l),
(85,38,l),
(45,38,l),
(45,0,l),
(315,0,l,{
name = hr00;
})
);
},
{
closed = 1;
nodes = (
(141,710,o),
(90,727,o),
(58,749,c),
(43,725,o),
(28,699,o),
(12,674,c),
(49,617,o),
(108,588,o),
(178,588,cs),
(248,588,o),
(307,617,o),
(344,674,c),
(326,703,o),
(317,719,o),
(298,749,c),
(266,727,o),
(215,710,o),
(178,710,cs,{
name = hr00;
})
);
}
);
};
layerId = master01;
shapes = (
{
ref = idotless;
},
{
pos = (-21,0);
ref = brevecomb;
}
);
width = 355;
}
);
unicode = 301;
},
{
glyphname = icircumflex;
lastChange = "2023-02-17 14:08:22 +0000";
layers = (
{
background = {
shapes = (
{
closed = 1;
nodes = (
(315,38,l),
(275,38,l),
(275,550,l),
(45,550,l),
(45,512,l),
(85,512,l),
(85,38,l),
(45,38,l),
(45,0,l),
(315,0,l,{
name = hr00;
})
);
},
{
closed = 1;
nodes = (
(130,787,l),
(12,657,l),
(71,586,l),
(178,662,l),
(285,586,l),
(344,657,l),
(226,787,l,{
name = hr00;
})
);
}
);
};
layerId = master01;
shapes = (
{
ref = idotless;
},
{
pos = (-23,0);
ref = circumflexcomb;
}
);
width = 355;
}
);
unicode = 238;
},
{
glyphname = idieresis;
lastChange = "2023-02-17 14:08:22 +0000";
layers = (
{
background = {
shapes = (
{
closed = 1;
nodes = (
(315,38,l),
(275,38,l),
(275,550,l),
(45,550,l),
(45,512,l),
(85,512,l),
(85,38,l),
(45,38,l),
(45,0,l),
(315,0,l,{
name = hr00;
})
);
},
{
closed = 1;
nodes = (
(131,757,o),
(119,765,o),
(68,765,cs),
(10,765,o),
(-3,757,o),
(-3,682,cs),
(-3,607,o),
(10,599,o),
(68,599,cs),
(119,599,o),
(131,607,o),
(131,682,cs,{
name = hr00;
})
);
},
{
closed = 1;
nodes = (
(329,757,o),
(317,765,o),
(266,765,cs),
(208,765,o),
(195,757,o),
(195,682,cs),
(195,607,o),
(208,599,o),
(266,599,cs),
(317,599,o),
(329,607,o),
(329,682,cs)
);
}
);
};
layerId = master01;
shapes = (
{
ref = idotless;
},
{
pos = (-38,0);
ref = dieresiscomb;
}
);
width = 355;
}
);
unicode = 239;
},
{
color = 9;
glyphname = idotaccent;
lastChange = "2023-02-17 14:08:22 +0000";
layers = (
{
background = {
shapes = (
{
closed = 1;
nodes = (
(315,38,l),
(275,38,l),
(275,550,l),
(45,550,l),
(45,512,l),
(85,512,l),
(85,38,l),
(45,38,l),
(45,0,l),
(315,0,l,{
name = hr00;
})
);
},
{
closed = 1;
nodes = (
(233,765,o),
(249,742,o),
(249,675,cs),
(249,608,o),
(233,584,o),
(152,584,cs),
(71,584,o),
(55,608,o),
(55,675,cs),
(55,742,o),
(71,765,o),
(152,765,cs,{
name = hr00;
})
);
}
);
};
layerId = master01;
shapes = (
{
ref = idotless;
},
{
pos = (26,0);
ref = dotaccentcomb;
}
);
width = 355;
}
);
},
{
glyphname = igrave;
lastChange = "2023-02-17 14:08:22 +0000";
layers = (
{
background = {
shapes = (
{
closed = 1;
nodes = (
(315,38,l),
(275,38,l),
(275,550,l),
(45,550,l),
(45,512,l),
(85,512,l),
(85,38,l),
(45,38,l),
(45,0,l),
(315,0,l,{
name = hr00;
})
);
},
{
closed = 1;
nodes = (
(48,645,l),
(275,586,l),
(308,678,l),
(97,780,l,{
name = hr00;
})
);
}
);
};
layerId = master01;
shapes = (
{
ref = idotless;
},
{
pos = (48,0);
ref = gravecomb;
}
);
width = 355;
}
);
unicode = 236;
},
{
glyphname = ij;
lastChange = "2023-02-17 14:08:22 +0000";
layers = (
{
background = {
shapes = (
{
closed = 1;
nodes = (
(315,38,l),
(275,38,l),
(275,550,l),
(45,550,l),
(45,512,l),
(85,512,l),
(85,38,l),
(45,38,l),
(45,0,l),
(315,0,l,{
name = hr00;
})
);
},
{
closed = 1;
nodes = (
(284,757,o),
(266,765,o),
(186,765,cs),
(95,765,o),
(75,757,o),
(75,682,cs),
(75,607,o),
(95,599,o),
(186,599,cs),
(266,599,o),
(284,607,o),
(284,682,cs)
);
},
{
closed = 1;
nodes = (
(572,-195,o),
(635,-132,o),
(635,20,cs),
(635,550,l),
(405,550,l),
(405,512,l),
(445,512,l),
(445,49,l),
(481,49,ls),
(497,49,o),
(511,49,o),
(511,23,cs,{
name = hr01;
}),
(511,-30,l),
(389,-30,l),
(369,-187,l),
(397,-193,o),
(425,-195,o),
(453,-195,cs)
);
},
{
closed = 1;
nodes = (
(644,757,o),
(626,765,o),
(546,765,cs),
(455,765,o),
(435,757,o),
(435,682,cs),
(435,607,o),
(455,599,o),
(546,599,cs),
(626,599,o),
(644,607,o),
(644,682,cs)
);
}
);
};
layerId = master01;
shapes = (
{
ref = i;
},
{
pos = (355,0);
ref = j;
}
);
width = 715;
}
);
unicode = 307;
},
{
glyphname = imacron;
lastChange = "2023-02-17 14:08:22 +0000";
layers = (
{
background = {
shapes = (
{
closed = 1;
nodes = (
(315,38,l),
(275,38,l),
(275,550,l),
(45,550,l),
(45,512,l),
(85,512,l),
(85,38,l),
(45,38,l),
(45,0,l),
(315,0,l,{
name = hr00;
})
);
},
{
closed = 1;
nodes = (
(324,610,l),
(324,734,l),
(32,734,l),
(32,610,l,{
name = hr00;
})
);
}
);
};
layerId = master01;
shapes = (
{
ref = idotless;
},
{
pos = (-8,0);
ref = macroncomb;
}
);
width = 355;
}
);
unicode = 299;
},
{
glyphname = iogonek;
lastChange = "2023-02-17 14:18:42 +0000";
layers = (
{
background = {
shapes = (
{
closed = 1;
nodes = (
(315,38,l),
(275,38,l),
(275,550,l),
(45,550,l),
(45,512,l),
(85,512,l),
(85,38,l),
(45,38,l),
(45,0,l),
(315,0,l,{
name = hr00;
})
);
},
{
closed = 1;
nodes = (
(284,757,o),
(266,765,o),
(186,765,cs),
(95,765,o),
(75,757,o),
(75,682,cs),
(75,607,o),
(95,599,o),
(186,599,cs),
(266,599,o),
(284,607,o),
(284,682,cs)
);
},
{
closed = 1;
nodes = (
(89,-141,o),
(129,-165,o),
(181,-165,cs),
(228,-165,o),
(280,-137,o),
(306,-110,c),
(296,-53,l),
(280,-63,o),
(255,-72,o),
(234,-72,cs),
(215,-72,o),
(199,-61,o),
(199,-40,cs),
(199,-14,o),
(215,5,o),
(259,11,c),
(259,38,l),
(151,22,o),
(89,-17,o),
(89,-87,cs,{
name = hr00;
})
);
}
);
};
layerId = master01;
shapes = (
{
closed = 1;
nodes = (
(266,599,o),
(284,607,o),
(284,682,cs),
(284,757,o),
(266,765,o),
(186,765,cs),
(95,765,o),
(75,757,o),
(75,682,cs),
(75,607,o),
(95,599,o),
(186,599,cs)
);
},
{
pos = (66,0);
ref = ogonekcomb;
},
{
ref = idotless;
}
);
width = 355;
}
);
unicode = 303;
},
{
glyphname = itilde;
lastChange = "2023-02-17 14:08:22 +0000";
layers = (
{
background = {
shapes = (
{
closed = 1;
nodes = (
(315,38,l),
(275,38,l),
(275,550,l),
(45,550,l),
(45,512,l),
(85,512,l),
(85,38,l),
(45,38,l),
(45,0,l),
(315,0,l,{
name = hr00;
})
);
},
{
closed = 1;
nodes = (
(281,755,l),
(253,703,l),
(241,703,l),
(215,742,o),
(178,765,o),
(128,765,cs),
(71,765,o),
(24,736,o),
(11,663,cs),
(1,606,l),
(73,593,l),
(101,644,l),
(113,644,l),
(139,606,o),
(176,583,o),
(225,583,cs),
(283,583,o),
(329,611,o),
(343,684,cs),
(354,741,l,{
name = hr00;
})
);
}
);
};
layerId = master01;
shapes = (
{
ref = idotless;
},
{
pos = (-24,0);
ref = tildecomb;
}
);
width = 355;
}
);
unicode = 297;
},
{
glyphname = j;
lastChange = "2023-02-17 14:18:49 +0000";
layers = (
{
background = {
shapes = (
{
closed = 1;
nodes = (
(217,-195,o),
(280,-132,o),
(280,20,cs),
(280,550,l),
(50,550,l),
(50,512,l),
(90,512,l),
(90,49,l),
(126,49,ls),
(142,49,o),
(156,49,o),
(156,23,cs,{
name = hr01;
}),
(156,-30,l),
(34,-30,l),
(14,-187,l),
(42,-193,o),
(70,-195,o),
(98,-195,cs)
);
},
{
closed = 1;
nodes = (
(289,757,o),
(271,765,o),
(191,765,cs),
(100,765,o),
(80,757,o),
(80,682,cs),
(80,607,o),
(100,599,o),
(191,599,cs),
(271,599,o),
(289,607,o),
(289,682,cs)
);
}
);
};
layerId = master01;
shapes = (
{
closed = 1;
nodes = (
(271,599,o),
(289,607,o),
(289,682,cs),
(289,757,o),
(271,765,o),
(191,765,cs),
(100,765,o),
(80,757,o),
(80,682,cs),
(80,607,o),
(100,599,o),
(191,599,cs)
);
},
{
ref = jdotless;
}
);
width = 360;
}
);
unicode = 106;
},
{
glyphname = jdotless;
lastChange = "2023-02-17 14:07:39 +0000";
layers = (
{
anchors = (
{
name = bottom;
pos = (180,-195);
},
{
name = top;
pos = (180,550);
}
);
background = {
shapes = (
{
closed = 1;
nodes = (
(217,-195,o),
(280,-132,o),
(280,20,cs),
(280,550,l),
(50,550,l),
(50,512,l),
(90,512,l),
(90,49,l),
(126,49,ls),
(142,49,o),
(156,49,o),
(156,23,cs,{
name = hr01;
}),
(156,-30,l),
(34,-30,l),
(14,-187,l),
(42,-193,o),
(70,-195,o),
(98,-195,cs)
);
}
);
};
layerId = master01;
shapes = (
{
closed = 1;
nodes = (
(217,-195,o),
(280,-132,o),
(280,20,cs),
(280,550,l),
(50,550,l),
(50,512,l),
(90,512,l),
(90,49,l),
(126,49,ls),
(142,49,o),
(156,49,o),
(156,23,cs,{
name = hr01;
}),
(156,-30,l),
(34,-30,l),
(14,-187,l),
(42,-193,o),
(70,-195,o),
(98,-195,cs)
);
}
);
width = 360;
}
);
unicode = 567;
},
{
glyphname = jcircumflex;
lastChange = "2023-02-17 14:08:22 +0000";
layers = (
{
background = {
shapes = (
{
closed = 1;
nodes = (
(217,-195,o),
(280,-132,o),
(280,20,cs),
(280,550,l),
(50,550,l),
(50,512,l),
(90,512,l),
(90,49,l),
(126,49,ls),
(142,49,o),
(156,49,o),
(156,23,cs,{
name = hr01;
}),
(156,-30,l),
(34,-30,l),
(14,-187,l),
(42,-193,o),
(70,-195,o),
(98,-195,cs)
);
},
{
closed = 1;
nodes = (
(132,787,l),
(14,657,l),
(73,586,l),
(180,662,l),
(287,586,l),
(346,657,l),
(228,787,l,{
name = hr00;
})
);
}
);
};
layerId = master01;
shapes = (
{
ref = jdotless;
},
{
pos = (-21,0);
ref = circumflexcomb;
}
);
width = 360;
}
);
unicode = 309;
},
{
glyphname = k;
lastChange = "2023-02-17 14:07:39 +0000";
layers = (
{
anchors = (
{
name = bottom;
pos = (321,0);
},
{
name = top;
pos = (321,873);
}
);
background = {
shapes = (
{
closed = 1;
nodes = (
(362,559,o),
(314,510,o),
(270,359,c),
(252,359,l,{
name = hr01;
}),
(252,543,ls),
(252,559,o),
(254,564,o),
(278,573,cs),
(297,580,l,{
name = hr02;
}),
(297,729,l),
(40,729,l),
(40,691,l),
(80,691,l),
(80,38,l),
(40,38,l),
(40,0,l),
(632,0,l),
(632,38,l),
(593,38,l),
(527,315,l),
(442,315,ls),
(426,315,o),
(412,315,o),
(412,341,cs),
(412,394,l),
(534,394,l),
(554,551,l),
(526,557,o),
(477,559,o),
(449,559,cs)
);
},
{
closed = 1;
nodes = (
(270,268,l),
(343,268,l),
(391,0,l),
(270,0,l)
);
}
);
};
layerId = master01;
shapes = (
{
closed = 1;
nodes = (
(362,559,o),
(314,510,o),
(270,359,c),
(252,359,l,{
name = hr01;
}),
(252,543,ls),
(252,559,o),
(254,564,o),
(278,573,cs),
(297,580,l,{
name = hr02;
}),
(297,729,l),
(40,729,l),
(40,691,l),
(80,691,l),
(80,38,l),
(40,38,l),
(40,0,l),
(632,0,l),
(632,38,l),
(593,38,l),
(527,315,l),
(442,315,ls),
(426,315,o),
(412,315,o),
(412,341,cs),
(412,394,l),
(534,394,l),
(554,551,l),
(526,557,o),
(477,559,o),
(449,559,cs)
);
},
{
closed = 1;
nodes = (
(270,268,l),
(343,268,l),
(391,0,l),
(270,0,l)
);
}
);
width = 642;
}
);
unicode = 107;
},
{
glyphname = kcommaaccent;
lastChange = "2023-02-17 14:08:22 +0000";
layers = (
{
background = {
shapes = (
{
closed = 1;
nodes = (
(362,559,o),
(314,510,o),
(270,359,c),
(252,359,l,{
name = hr01;
}),
(252,543,ls),
(252,559,o),
(254,564,o),
(278,573,cs),
(297,580,l,{
name = hr02;
}),
(297,729,l),
(40,729,l),
(40,691,l),
(80,691,l),
(80,38,l),
(40,38,l),
(40,0,l),
(632,0,l),
(632,38,l),
(593,38,l),
(527,315,l),
(442,315,ls),
(426,315,o),
(412,315,o),
(412,341,cs),
(412,394,l),
(534,394,l),
(554,551,l),
(526,557,o),
(477,559,o),
(449,559,cs)
);
},
{
closed = 1;
nodes = (
(270,268,l),
(343,268,l),
(391,0,l),
(270,0,l)
);
},
{
closed = 1;
nodes = (
(401,-47,o),
(387,-40,o),
(329,-40,cs),
(258,-40,o),
(241,-47,o),
(241,-119,cs),
(241,-176,o),
(261,-189,o),
(297,-189,c),
(284,-289,l),
(328,-295,l),
(378,-248,o),
(401,-187,o),
(401,-119,cs,{
name = hr00;
})
);
}
);
};
layerId = master01;
shapes = (
{
ref = k;
},
{
pos = (191,0);
ref = commaaccentcomb;
}
);
width = 642;
}
);
unicode = 311;
},
{
glyphname = kgreenlandic;
lastChange = "2023-02-17 14:07:39 +0000";
layers = (
{
anchors = (
{
name = bottom;
pos = (316,0);
},
{
name = top;
pos = (316,550);
}
);
background = {
shapes = (
{
closed = 1;
nodes = (
(465,284,o),
(493,298,o),
(506,343,cs),
(570,512,l),
(622,512,l),
(622,550,l),
(385,550,l),
(328,297,l),
(275,297,l),
(275,550,l),
(45,550,l),
(45,512,l),
(85,512,l),
(85,38,l),
(45,38,l),
(45,0,l),
(275,0,l),
(275,242,l),
(325,242,l),
(385,0,l),
(632,0,l),
(632,38,l),
(575,38,l),
(535,200,ls),
(526,245,o),
(517,257,o),
(471,257,cs),
(426,257,l),
(426,280,l,{
name = hr00;
})
);
}
);
};
layerId = master01;
shapes = (
{
closed = 1;
nodes = (
(465,284,o),
(493,298,o),
(506,343,cs),
(570,512,l),
(622,512,l),
(622,550,l),
(385,550,l),
(328,297,l),
(275,297,l),
(275,550,l),
(45,550,l),
(45,512,l),
(85,512,l),
(85,38,l),
(45,38,l),
(45,0,l),
(275,0,l),
(275,242,l),
(325,242,l),
(385,0,l),
(632,0,l),
(632,38,l),
(575,38,l),
(535,200,ls),
(526,245,o),
(517,257,o),
(471,257,cs),
(426,257,l),
(426,280,l,{
name = hr00;
})
);
}
);
width = 632;
}
);
unicode = 312;
},
{
glyphname = l;
lastChange = "2023-02-17 14:19:06 +0000";
layers = (
{
anchors = (
{
name = bottom;
pos = (178,0);
},
{
name = center;
pos = (178,437);
},
{
name = top;
pos = (187,715);
},
{
name = topright;
pos = (315,873);
}
);
background = {
shapes = (
{
closed = 1;
nodes = (
(45,691,l),
(85,691,l),
(85,38,l),
(45,38,l),
(45,0,l),
(315,0,l),
(315,38,l),
(275,38,l),
(275,729,l),
(45,729,l,{
name = hr00;
})
);
}
);
};
layerId = master01;
shapes = (
{
closed = 1;
nodes = (
(45,691,l),
(85,691,l),
(85,38,l),
(45,38,l),
(45,0,l),
(315,0,l),
(315,38,l),
(275,38,l),
(275,729,l),
(45,729,l,{
name = hr00;
})
);
}
);
width = 355;
}
);
unicode = 108;
},
{
glyphname = lacute;
lastChange = "2023-02-17 14:19:01 +0000";
layers = (
{
background = {
shapes = (
{
closed = 1;
nodes = (
(45,691,l),
(85,691,l),
(85,38,l),
(45,38,l),
(45,0,l),
(315,0,l),
(315,38,l),
(275,38,l),
(275,729,l),
(45,729,l,{
name = hr00;
})
);
},
{
closed = 1;
nodes = (
(90,751,l),
(317,810,l),
(268,945,l),
(57,843,l,{
name = hr00;
})
);
}
);
};
layerId = master01;
shapes = (
{
ref = l;
},
{
pos = (6,80);
ref = acutecomb.case;
}
);
width = 355;
}
);
unicode = 314;
},
{
glyphname = lcaron;
lastChange = "2023-02-17 14:19:06 +0000";
layers = (
{
background = {
shapes = (
{
closed = 1;
nodes = (
(45,691,l),
(85,691,l),
(85,38,l),
(45,38,l),
(45,0,l),
(315,0,l),
(315,38,l),
(275,38,l),
(275,729,l),
(45,729,l,{
name = hr00;
})
);
},
{
closed = 1;
nodes = (
(495,771,o),
(481,778,o),
(423,778,cs),
(352,778,o),
(335,771,o),
(335,699,cs),
(335,642,o),
(355,629,o),
(391,629,c),
(378,529,l),
(422,523,l),
(472,570,o),
(495,631,o),
(495,699,cs,{
name = hr00;
})
);
}
);
};
layerId = master01;
shapes = (
{
ref = l;
},
{
pos = (300,0);
ref = caroncomb.alt;
}
);
width = 355;
}
);
unicode = 318;
},
{
glyphname = lcommaaccent;
lastChange = "2023-02-17 14:08:22 +0000";
layers = (
{
background = {
shapes = (
{
closed = 1;
nodes = (
(45,691,l),
(85,691,l),
(85,38,l),
(45,38,l),
(45,0,l),
(315,0,l),
(315,38,l),
(275,38,l),
(275,729,l),
(45,729,l,{
name = hr00;
})
);
},
{
closed = 1;
nodes = (
(257,-47,o),
(243,-40,o),
(185,-40,cs),
(114,-40,o),
(97,-47,o),
(97,-119,cs),
(97,-176,o),
(117,-189,o),
(153,-189,c),
(140,-289,l),
(184,-295,l),
(234,-248,o),
(257,-187,o),
(257,-119,cs,{
name = hr00;
})
);
}
);
};
layerId = master01;
shapes = (
{
ref = l;
},
{
pos = (48,0);
ref = commaaccentcomb;
}
);
width = 355;
}
);
unicode = 316;
},
{
glyphname = ldot;
lastChange = "2023-02-17 14:19:48 +0000";
layers = (
{
background = {
shapes = (
{
closed = 1;
nodes = (
(45,691,l),
(85,691,l),
(85,38,l),
(45,38,l),
(45,0,l),
(315,0,l),
(315,38,l),
(275,38,l),
(275,729,l),
(45,729,l,{
name = hr00;
})
);
},
{
closed = 1;
nodes = (
(504,464,o),
(486,474,o),
(416,474,cs),
(334,474,o),
(316,464,o),
(316,374,cs),
(316,286,o),
(334,276,o),
(415,276,cs),
(486,276,o),
(504,286,o),
(504,374,cs,{
name = hr00;
})
);
}
);
};
layerId = master01;
shapes = (
{
alignment = -1;
ref = l;
},
{
alignment = -1;
pos = (256,100);
ref = periodcentered;
}
);
width = 462;
}
);
unicode = 320;
},
{
glyphname = lslash;
lastChange = "2023-02-17 14:06:48 +0000";
layers = (
{
background = {
shapes = (
{
closed = 1;
nodes = (
(350,408,l),
(350,470,l),
(5,319,l),
(5,257,l,{
name = hr00;
})
);
},
{
ref = l;
}
);
};
layerId = master01;
shapes = (
{
closed = 1;
nodes = (
(350,408,l),
(350,470,l),
(5,319,l),
(5,257,l,{
name = hr00;
})
);
},
{
ref = l;
}
);
width = 355;
}
);
unicode = 322;
},
{
glyphname = m;
lastChange = "2023-02-17 14:07:39 +0000";
layers = (
{
anchors = (
{
name = bottom;
pos = (485,0);
},
{
name = top;
pos = (485,550);
}
);
background = {
shapes = (
{
closed = 1;
nodes = (
(392,474,l),
(392,0,l),
(582,0,l),
(582,474,l),
(699,474,l),
(699,0,l),
(929,0,l),
(929,38,l),
(889,38,l),
(889,415,ls),
(889,532,o),
(813,565,o),
(693,565,cs),
(624,565,o),
(576,558,o),
(544,514,c),
(515,552,o),
(463,565,o),
(396,565,cs),
(310,565,o),
(256,554,o),
(226,474,c),
(213,474,l),
(178,550,l,{
name = hr01;
}),
(45,550,l),
(45,512,l),
(85,512,l),
(85,38,l),
(45,38,l),
(45,0,l,{
name = hr02;
}),
(275,0,l),
(275,474,l)
);
}
);
};
layerId = master01;
shapes = (
{
closed = 1;
nodes = (
(392,474,l),
(392,0,l),
(582,0,l),
(582,474,l),
(699,474,l),
(699,0,l),
(929,0,l),
(929,38,l),
(889,38,l),
(889,415,ls),
(889,532,o),
(813,565,o),
(693,565,cs),
(624,565,o),
(576,558,o),
(544,514,c),
(515,552,o),
(463,565,o),
(396,565,cs),
(310,565,o),
(256,554,o),
(226,474,c),
(213,474,l),
(178,550,l,{
name = hr01;
}),
(45,550,l),
(45,512,l),
(85,512,l),
(85,38,l),
(45,38,l),
(45,0,l,{
name = hr02;
}),
(275,0,l),
(275,474,l)
);
}
);
width = 969;
}
);
unicode = 109;
},
{
glyphname = n;
lastChange = "2023-02-17 14:19:58 +0000";
layers = (
{
anchors = (
{
name = bottom;
pos = (346,0);
},
{
name = top;
pos = (346,550);
}
);
background = {
shapes = (
{
closed = 1;
nodes = (
(652,38,l),
(612,38,l),
(612,415,ls),
(612,532,o),
(536,565,o),
(415,565,cs),
(315,565,o),
(256,554,o),
(226,474,c),
(213,474,l),
(178,550,l,{
name = hr01;
}),
(45,550,l),
(45,512,l),
(85,512,l),
(85,38,l),
(45,38,l),
(45,0,l),
(275,0,l),
(275,474,l,{
name = hr02;
}),
(422,474,l),
(422,0,l),
(652,0,l)
);
}
);
};
layerId = master01;
shapes = (
{
closed = 1;
nodes = (
(652,38,l),
(612,38,l),
(612,415,ls),
(612,532,o),
(536,565,o),
(415,565,cs),
(315,565,o),
(256,554,o),
(226,474,c),
(213,474,l),
(178,550,l,{
name = hr01;
}),
(45,550,l),
(45,512,l),
(85,512,l),
(85,38,l),
(45,38,l),
(45,0,l),
(275,0,l),
(275,474,l,{
name = hr02;
}),
(422,474,l),
(422,0,l),
(652,0,l)
);
}
);
width = 692;
}
);
unicode = 110;
},
{
glyphname = nacute;
lastChange = "2023-02-17 14:19:58 +0000";
layers = (
{
background = {
shapes = (
{
closed = 1;
nodes = (
(652,38,l),
(612,38,l),
(612,415,ls),
(612,532,o),
(536,565,o),
(415,565,cs),
(315,565,o),
(256,554,o),
(226,474,c),
(213,474,l),
(178,550,l,{
name = hr01;
}),
(45,550,l),
(45,512,l),
(85,512,l),
(85,38,l),
(45,38,l),
(45,0,l),
(275,0,l),
(275,474,l,{
name = hr02;
}),
(422,474,l),
(422,0,l),
(652,0,l)
);
},
{
closed = 1;
nodes = (
(279,586,l),
(506,645,l),
(457,780,l),
(246,678,l,{
name = hr00;
})
);
}
);
};
layerId = master01;
shapes = (
{
ref = n;
},
{
pos = (165,0);
ref = acutecomb;
}
);
width = 692;
}
);
unicode = 324;
},
{
glyphname = ncaron;
lastChange = "2023-02-17 14:19:58 +0000";
layers = (
{
background = {
shapes = (
{
closed = 1;
nodes = (
(652,38,l),
(612,38,l),
(612,415,ls),
(612,532,o),
(536,565,o),
(415,565,cs),
(315,565,o),
(256,554,o),
(226,474,c),
(213,474,l),
(178,550,l,{
name = hr01;
}),
(45,550,l),
(45,512,l),
(85,512,l),
(85,38,l),
(45,38,l),
(45,0,l),
(275,0,l),
(275,474,l,{
name = hr02;
}),
(422,474,l),
(422,0,l),
(652,0,l)
);
},
{
closed = 1;
nodes = (
(453,788,l),
(346,712,l),
(239,788,l),
(180,717,l),
(298,587,l),
(394,587,l),
(512,717,l,{
name = hr00;
})
);
}
);
};
layerId = master01;
shapes = (
{
ref = n;
},
{
pos = (145,0);
ref = caroncomb;
}
);
width = 692;
}
);
unicode = 328;
},
{
glyphname = ncommaaccent;
lastChange = "2023-02-17 14:08:22 +0000";
layers = (
{
background = {
shapes = (
{
closed = 1;
nodes = (
(652,38,l),
(612,38,l),
(612,415,ls),
(612,532,o),
(536,565,o),
(415,565,cs),
(315,565,o),
(256,554,o),
(226,474,c),
(213,474,l),
(178,550,l,{
name = hr01;
}),
(45,550,l),
(45,512,l),
(85,512,l),
(85,38,l),
(45,38,l),
(45,0,l),
(275,0,l),
(275,474,l,{
name = hr02;
}),
(422,474,l),
(422,0,l),
(652,0,l)
);
},
{
closed = 1;
nodes = (
(426,-47,o),
(412,-40,o),
(354,-40,cs),
(283,-40,o),
(266,-47,o),
(266,-119,cs),
(266,-176,o),
(286,-189,o),
(322,-189,c),
(309,-289,l),
(353,-295,l),
(403,-248,o),
(426,-187,o),
(426,-119,cs,{
name = hr00;
})
);
}
);
};
layerId = master01;
shapes = (
{
ref = n;
},
{
pos = (216,0);
ref = commaaccentcomb;
}
);
width = 692;
}
);
unicode = 326;
},
{
glyphname = ntilde;
lastChange = "2023-02-17 14:19:58 +0000";
layers = (
{
background = {
shapes = (
{
closed = 1;
nodes = (
(617,38,l),
(577,38,l),
(577,415,ls),
(577,532,o),
(501,565,o),
(380,565,cs),
(280,565,o),
(221,554,o),
(191,474,c),
(178,474,l),
(143,550,l,{
name = hr01;
}),
(10,550,l),
(10,512,l),
(50,512,l),
(50,38,l),
(10,38,l),
(10,0,l),
(240,0,l),
(240,474,l,{
name = hr02;
}),
(387,474,l),
(387,0,l),
(617,0,l)
);
},
{
closed = 1;
nodes = (
(416,755,l),
(388,703,l),
(376,703,l),
(350,742,o),
(313,765,o),
(263,765,cs),
(206,765,o),
(159,736,o),
(146,663,cs),
(136,606,l),
(208,593,l),
(236,644,l),
(248,644,l),
(274,606,o),
(311,583,o),
(360,583,cs),
(418,583,o),
(464,611,o),
(478,684,cs),
(489,741,l,{
name = hr00;
})
);
}
);
};
layerId = master01;
shapes = (
{
ref = n;
},
{
pos = (144,0);
ref = tildecomb;
}
);
width = 692;
}
);
unicode = 241;
},
{
glyphname = eng;
lastChange = "2023-02-17 14:07:39 +0000";
layers = (
{
anchors = (
{
name = bottom;
pos = (346,0);
},
{
name = top;
pos = (346,550);
}
);
background = {
shapes = (
{
closed = 1;
nodes = (
(549,-195,o),
(612,-132,o),
(612,20,cs),
(612,415,ls),
(612,532,o),
(536,565,o),
(415,565,cs),
(315,565,o),
(256,554,o),
(226,474,c),
(213,474,l),
(178,550,l,{
name = hr01;
}),
(45,550,l),
(45,512,l),
(85,512,l),
(85,38,l),
(45,38,l),
(45,0,l),
(275,0,l),
(275,474,l,{
name = hr02;
}),
(422,474,l),
(422,49,l),
(458,49,ls),
(474,49,o),
(488,49,o),
(488,23,cs,{
name = hr03;
}),
(488,-30,l),
(366,-30,l),
(346,-187,l),
(374,-193,o),
(402,-195,o),
(430,-195,cs)
);
}
);
};
layerId = master01;
shapes = (
{
closed = 1;
nodes = (
(549,-195,o),
(612,-132,o),
(612,20,cs),
(612,415,ls),
(612,532,o),
(536,565,o),
(415,565,cs),
(315,565,o),
(256,554,o),
(226,474,c),
(213,474,l),
(178,550,l,{
name = hr01;
}),
(45,550,l),
(45,512,l),
(85,512,l),
(85,38,l),
(45,38,l),
(45,0,l),
(275,0,l),
(275,474,l,{
name = hr02;
}),
(422,474,l),
(422,49,l),
(458,49,ls),
(474,49,o),
(488,49,o),
(488,23,cs,{
name = hr03;
}),
(488,-30,l),
(366,-30,l),
(346,-187,l),
(374,-193,o),
(402,-195,o),
(430,-195,cs)
);
}
);
width = 692;
}
);
unicode = 331;
},
{
glyphname = o;
lastChange = "2023-02-17 14:20:05 +0000";
layers = (
{
anchors = (
{
name = bottom;
pos = (324,0);
},
{
name = center;
pos = (324,275);
},
{
name = ogonek;
pos = (582,10);
},
{
name = top;
pos = (324,550);
},
{
name = topright;
pos = (627,550);
}
);
background = {
shapes = (
{
closed = 1;
nodes = (
(587,565,o),
(469,565,o),
(337,565,cs),
(191,565,o),
(60,565,o),
(60,314,cs),
(60,236,ls),
(60,-15,o),
(178,-15,o),
(310,-15,cs),
(456,-15,o),
(587,-15,o),
(587,236,cs),
(587,314,ls,{
name = hr00;
})
);
},
{
closed = 1;
nodes = (
(250,60,l),
(250,490,l),
(397,490,l),
(397,60,l)
);
}
);
};
layerId = master01;
shapes = (
{
closed = 1;
nodes = (
(587,565,o),
(469,565,o),
(337,565,cs),
(191,565,o),
(60,565,o),
(60,314,cs),
(60,236,ls),
(60,-15,o),
(178,-15,o),
(310,-15,cs),
(456,-15,o),
(587,-15,o),
(587,236,cs),
(587,314,ls,{
name = hr00;
})
);
},
{
closed = 1;
nodes = (
(250,60,l),
(250,490,l),
(397,490,l),
(397,60,l)
);
}
);
width = 647;
}
);
unicode = 111;
},
{
glyphname = oacute;
lastChange = "2023-02-17 14:20:05 +0000";
layers = (
{
background = {
shapes = (
{
closed = 1;
nodes = (
(587,565,o),
(469,565,o),
(337,565,cs),
(191,565,o),
(60,565,o),
(60,314,cs),
(60,236,ls),
(60,-15,o),
(178,-15,o),
(310,-15,cs),
(456,-15,o),
(587,-15,o),
(587,236,cs),
(587,314,ls,{
name = hr00;
})
);
},
{
closed = 1;
nodes = (
(250,60,l),
(250,490,l),
(397,490,l),
(397,60,l)
);
},
{
closed = 1;
nodes = (
(272,586,l),
(499,645,l),
(450,780,l),
(239,678,l,{
name = hr00;
})
);
}
);
};
layerId = master01;
shapes = (
{
ref = o;
},
{
pos = (143,0);
ref = acutecomb;
}
);
width = 647;
}
);
unicode = 243;
},
{
glyphname = obreve;
lastChange = "2023-02-17 14:20:05 +0000";
layers = (
{
background = {
shapes = (
{
closed = 1;
nodes = (
(587,565,o),
(469,565,o),
(337,565,cs),
(191,565,o),
(60,565,o),
(60,314,cs),
(60,236,ls),
(60,-15,o),
(178,-15,o),
(310,-15,cs),
(456,-15,o),
(587,-15,o),
(587,236,cs),
(587,314,ls,{
name = hr00;
})
);
},
{
closed = 1;
nodes = (
(250,60,l),
(250,490,l),
(397,490,l),
(397,60,l)
);
},
{
closed = 1;
nodes = (
(286,710,o),
(235,727,o),
(203,749,c),
(188,725,o),
(173,699,o),
(157,674,c),
(194,617,o),
(253,588,o),
(323,588,cs),
(393,588,o),
(452,617,o),
(489,674,c),
(471,703,o),
(462,719,o),
(443,749,c),
(411,727,o),
(360,710,o),
(323,710,cs,{
name = hr00;
})
);
}
);
};
layerId = master01;
shapes = (
{
ref = o;
},
{
pos = (125,0);
ref = brevecomb;
}
);
width = 647;
}
);
unicode = 335;
},
{
glyphname = ocircumflex;
lastChange = "2023-02-17 14:20:05 +0000";
layers = (
{
background = {
shapes = (
{
closed = 1;
nodes = (
(587,565,o),
(469,565,o),
(337,565,cs),
(191,565,o),
(60,565,o),
(60,314,cs),
(60,236,ls),
(60,-15,o),
(178,-15,o),
(310,-15,cs),
(456,-15,o),
(587,-15,o),
(587,236,cs),
(587,314,ls,{
name = hr00;
})
);
},
{
closed = 1;
nodes = (
(250,60,l),
(250,490,l),
(397,490,l),
(397,60,l)
);
},
{
closed = 1;
nodes = (
(275,787,l),
(157,657,l),
(216,586,l),
(323,662,l),
(430,586,l),
(489,657,l),
(371,787,l,{
name = hr00;
})
);
}
);
};
layerId = master01;
shapes = (
{
ref = o;
},
{
pos = (123,0);
ref = circumflexcomb;
}
);
width = 647;
}
);
unicode = 244;
},
{
glyphname = odieresis;
lastChange = "2023-02-17 14:20:05 +0000";
layers = (
{
background = {
shapes = (
{
closed = 1;
nodes = (
(587,565,o),
(469,565,o),
(337,565,cs),
(191,565,o),
(60,565,o),
(60,314,cs),
(60,236,ls),
(60,-15,o),
(178,-15,o),
(310,-15,cs),
(456,-15,o),
(587,-15,o),
(587,236,cs),
(587,314,ls,{
name = hr00;
})
);
},
{
closed = 1;
nodes = (
(250,60,l),
(250,490,l),
(397,490,l),
(397,60,l)
);
},
{
closed = 1;
nodes = (
(296,757,o),
(284,765,o),
(233,765,cs),
(175,765,o),
(162,757,o),
(162,682,cs),
(162,607,o),
(175,599,o),
(233,599,cs),
(284,599,o),
(296,607,o),
(296,682,cs,{
name = hr00;
})
);
},
{
closed = 1;
nodes = (
(494,757,o),
(482,765,o),
(431,765,cs),
(373,765,o),
(360,757,o),
(360,682,cs),
(360,607,o),
(373,599,o),
(431,599,cs),
(482,599,o),
(494,607,o),
(494,682,cs)
);
}
);
};
layerId = master01;
shapes = (
{
ref = o;
},
{
pos = (108,0);
ref = dieresiscomb;
}
);
width = 647;
}
);
unicode = 246;
},
{
glyphname = ograve;
lastChange = "2023-02-17 14:20:05 +0000";
layers = (
{
background = {
shapes = (
{
closed = 1;
nodes = (
(587,565,o),
(469,565,o),
(337,565,cs),
(191,565,o),
(60,565,o),
(60,314,cs),
(60,236,ls),
(60,-15,o),
(178,-15,o),
(310,-15,cs),
(456,-15,o),
(587,-15,o),
(587,236,cs),
(587,314,ls,{
name = hr00;
})
);
},
{
closed = 1;
nodes = (
(250,60,l),
(250,490,l),
(397,490,l),
(397,60,l)
);
},
{
closed = 1;
nodes = (
(214,645,l),
(441,586,l),
(474,678,l),
(263,780,l,{
name = hr00;
})
);
}
);
};
layerId = master01;
shapes = (
{
ref = o;
},
{
pos = (194,0);
ref = gravecomb;
}
);
width = 647;
}
);
unicode = 242;
},
{
glyphname = ohungarumlaut;
lastChange = "2023-02-17 14:20:05 +0000";
layers = (
{
background = {
shapes = (
{
closed = 1;
nodes = (
(587,565,o),
(469,565,o),
(337,565,cs),
(191,565,o),
(60,565,o),
(60,314,cs),
(60,236,ls),
(60,-15,o),
(178,-15,o),
(310,-15,cs),
(456,-15,o),
(587,-15,o),
(587,236,cs),
(587,314,ls,{
name = hr00;
})
);
},
{
closed = 1;
nodes = (
(250,60,l),
(250,490,l),
(397,490,l),
(397,60,l)
);
},
{
closed = 1;
nodes = (
(184,580,l),
(339,701,l),
(243,804,l),
(116,650,l,{
name = hr00;
})
);
},
{
closed = 1;
nodes = (
(416,580,l),
(571,701,l),
(475,804,l),
(348,650,l)
);
}
);
};
layerId = master01;
shapes = (
{
ref = o;
},
{
pos = (76,0);
ref = hungarumlautcomb;
}
);
width = 647;
}
);
unicode = 337;
},
{
glyphname = omacron;
lastChange = "2023-02-17 14:20:05 +0000";
layers = (
{
background = {
shapes = (
{
closed = 1;
nodes = (
(587,565,o),
(469,565,o),
(337,565,cs),
(191,565,o),
(60,565,o),
(60,314,cs),
(60,236,ls),
(60,-15,o),
(178,-15,o),
(310,-15,cs),
(456,-15,o),
(587,-15,o),
(587,236,cs),
(587,314,ls,{
name = hr00;
})
);
},
{
closed = 1;
nodes = (
(250,60,l),
(250,490,l),
(397,490,l),
(397,60,l)
);
},
{
closed = 1;
nodes = (
(469,610,l),
(469,734,l),
(177,734,l),
(177,610,l,{
name = hr00;
})
);
}
);
};
layerId = master01;
shapes = (
{
ref = o;
},
{
pos = (138,0);
ref = macroncomb;
}
);
width = 647;
}
);
unicode = 333;
},
{
glyphname = oslash;
lastChange = "2023-02-17 14:20:11 +0000";
layers = (
{
background = {
shapes = (
{
ref = o;
},
{
pos = (204,-23);
ref = slash;
}
);
};
layerId = master01;
shapes = (
{
closed = 1;
nodes = (
(237,-152,l,{
name = hr00;
}),
(459,706,l),
(408,706,l),
(187,-152,l)
);
},
{
ref = o;
}
);
width = 647;
}
);
unicode = 248;
},
{
glyphname = oslashacute;
lastChange = "2023-02-17 14:20:17 +0000";
layers = (
{
background = {
shapes = (
{
closed = 1;
nodes = (
(226,586,l),
(453,645,l),
(404,780,l),
(193,678,l,{
name = hr00;
})
);
},
{
closed = 1;
nodes = (
(587,565,o),
(469,565,o),
(337,565,cs),
(191,565,o),
(60,565,o),
(60,314,cs),
(60,236,ls),
(60,-15,o),
(178,-15,o),
(310,-15,cs),
(456,-15,o),
(587,-15,o),
(587,236,cs),
(587,314,ls,{
name = hr00;
})
);
},
{
closed = 1;
nodes = (
(250,60,l),
(250,490,l),
(397,490,l),
(397,60,l)
);
},
{
closed = 1;
nodes = (
(459,618,l),
(408,618,l),
(187,-68,l),
(237,-68,l,{
name = hr00;
})
);
}
);
};
layerId = master01;
shapes = (
{
closed = 1;
nodes = (
(456,-15,o),
(587,-15,o),
(587,236,cs),
(587,314,ls,{
name = hr00;
}),
(587,565,o),
(469,565,o),
(337,565,cs),
(191,565,o),
(60,565,o),
(60,314,cs),
(60,236,ls),
(60,-15,o),
(178,-15,o),
(310,-15,cs)
);
},
{
closed = 1;
nodes = (
(237,-68,l,{
name = hr00;
}),
(459,618,l),
(408,618,l),
(187,-68,l)
);
},
{
closed = 1;
nodes = (
(250,490,l),
(397,490,l),
(397,60,l),
(250,60,l)
);
},
{
pos = (143,0);
ref = acutecomb;
}
);
width = 647;
}
);
unicode = 511;
},
{
glyphname = otilde;
lastChange = "2023-02-17 14:20:05 +0000";
layers = (
{
background = {
shapes = (
{
closed = 1;
nodes = (
(587,565,o),
(469,565,o),
(337,565,cs),
(191,565,o),
(60,565,o),
(60,314,cs),
(60,236,ls),
(60,-15,o),
(178,-15,o),
(310,-15,cs),
(456,-15,o),
(587,-15,o),
(587,236,cs),
(587,314,ls,{
name = hr00;
})
);
},
{
closed = 1;
nodes = (
(250,60,l),
(250,490,l),
(397,490,l),
(397,60,l)
);
},
{
closed = 1;
nodes = (
(427,755,l),
(399,703,l),
(387,703,l),
(361,742,o),
(324,765,o),
(274,765,cs),
(217,765,o),
(170,736,o),
(157,663,cs),
(147,606,l),
(219,593,l),
(247,644,l),
(259,644,l),
(285,606,o),
(322,583,o),
(371,583,cs),
(429,583,o),
(475,611,o),
(489,684,cs),
(500,741,l,{
name = hr00;
})
);
}
);
};
layerId = master01;
shapes = (
{
ref = o;
},
{
pos = (122,0);
ref = tildecomb;
}
);
width = 647;
}
);
unicode = 245;
},
{
glyphname = oe;
lastChange = "2023-02-17 14:07:39 +0000";
layers = (
{
anchors = (
{
name = bottom;
pos = (465,0);
},
{
name = top;
pos = (465,550);
}
);
background = {
shapes = (
{
closed = 1;
nodes = (
(587,235,l),
(668,235,ls),
(781,235,o),
(880,235,o),
(880,400,cs),
(880,565,o),
(781,565,o),
(668,565,cs),
(605,565,o),
(544,565,o),
(496,542,c),
(452,565,o),
(396,565,o),
(337,565,cs),
(191,565,o),
(60,565,o),
(60,314,cs),
(60,236,ls),
(60,-15,o),
(178,-15,o),
(310,-15,cs),
(376,-15,o),
(440,-15,o),
(489,9,c),
(535,-12,o),
(591,-15,o),
(643,-15,cs),
(712,-15,o),
(801,-2,o),
(868,15,c),
(845,171,l),
(738,171,l),
(712,60,l),
(587,60,l,{
name = hr00;
})
);
},
{
closed = 1;
nodes = (
(436,490,l),
(411,453,o),
(397,397,o),
(397,314,cs),
(397,184,ls),
(397,129,o),
(408,89,o),
(428,60,c),
(250,60,l),
(250,490,l)
);
},
{
closed = 1;
nodes = (
(724,490,l),
(724,310,l),
(587,310,l),
(587,490,l)
);
}
);
};
layerId = master01;
shapes = (
{
closed = 1;
nodes = (
(587,235,l),
(668,235,ls),
(781,235,o),
(880,235,o),
(880,400,cs),
(880,565,o),
(781,565,o),
(668,565,cs),
(605,565,o),
(544,565,o),
(496,542,c),
(452,565,o),
(396,565,o),
(337,565,cs),
(191,565,o),
(60,565,o),
(60,314,cs),
(60,236,ls),
(60,-15,o),
(178,-15,o),
(310,-15,cs),
(376,-15,o),
(440,-15,o),
(489,9,c),
(535,-12,o),
(591,-15,o),
(643,-15,cs),
(712,-15,o),
(801,-2,o),
(868,15,c),
(845,171,l),
(738,171,l),
(712,60,l),
(587,60,l,{
name = hr00;
})
);
},
{
closed = 1;
nodes = (
(436,490,l),
(411,453,o),
(397,397,o),
(397,314,cs),
(397,184,ls),
(397,129,o),
(408,89,o),
(428,60,c),
(250,60,l),
(250,490,l)
);
},
{
closed = 1;
nodes = (
(724,490,l),
(724,310,l),
(587,310,l),
(587,490,l)
);
}
);
width = 930;
}
);
unicode = 339;
},
{
glyphname = p;
lastChange = "2023-02-17 14:07:39 +0000";
layers = (
{
anchors = (
{
name = bottom;
pos = (334,0);
},
{
name = top;
pos = (334,550);
}
);
background = {
shapes = (
{
closed = 1;
nodes = (
(40,512,l),
(80,512,l),
(80,-180,l),
(325,-180,l),
(325,-142,l),
(271,-142,l),
(271,2,l),
(291,0,o),
(311,0,o),
(331,0,cs),
(477,0,o),
(608,0,o),
(608,251,cs),
(608,314,ls),
(608,563,o),
(492,565,o),
(373,565,cs,{
name = hr01;
}),
(290,565,o),
(246,554,o),
(216,474,c),
(203,474,l),
(163,550,l,{
name = hr02;
}),
(40,550,l)
);
},
{
closed = 1;
nodes = (
(271,75,l),
(271,474,l,{
name = hr03;
}),
(418,474,l),
(418,75,l)
);
}
);
};
layerId = master01;
shapes = (
{
closed = 1;
nodes = (
(40,512,l),
(80,512,l),
(80,-180,l),
(325,-180,l),
(325,-142,l),
(271,-142,l),
(271,2,l),
(291,0,o),
(311,0,o),
(331,0,cs),
(477,0,o),
(608,0,o),
(608,251,cs),
(608,314,ls),
(608,563,o),
(492,565,o),
(373,565,cs,{
name = hr01;
}),
(290,565,o),
(246,554,o),
(216,474,c),
(203,474,l),
(163,550,l,{
name = hr02;
}),
(40,550,l)
);
},
{
closed = 1;
nodes = (
(271,75,l),
(271,474,l,{
name = hr03;
}),
(418,474,l),
(418,75,l)
);
}
);
width = 668;
}
);
unicode = 112;
},
{
glyphname = thorn;
lastChange = "2023-02-17 14:07:39 +0000";
layers = (
{
anchors = (
{
name = bottom;
pos = (334,0);
},
{
name = top;
pos = (334,550);
}
);
background = {
shapes = (
{
closed = 1;
nodes = (
(325,-142,l),
(270,-142,l),
(270,-9,l),
(293,-12,o),
(316,-15,o),
(338,-15,cs),
(475,-15,o),
(607,-15,o),
(607,236,cs),
(607,304,ls),
(607,555,o),
(496,555,o),
(373,555,cs),
(303,555,o),
(251,544,o),
(221,464,c),
(203,464,l,{
name = hr01;
}),
(203,550,ls),
(203,566,o),
(205,571,o),
(229,580,cs),
(270,595,l,{
name = hr02;
}),
(270,729,l),
(40,729,l),
(40,691,l),
(80,691,l),
(80,-180,l),
(325,-180,l)
);
},
{
closed = 1;
nodes = (
(270,60,l),
(270,464,l),
(417,464,l),
(417,60,l)
);
}
);
};
layerId = master01;
shapes = (
{
closed = 1;
nodes = (
(325,-142,l),
(270,-142,l),
(270,-9,l),
(293,-12,o),
(316,-15,o),
(338,-15,cs),
(475,-15,o),
(607,-15,o),
(607,236,cs),
(607,304,ls),
(607,555,o),
(496,555,o),
(373,555,cs),
(303,555,o),
(251,544,o),
(221,464,c),
(203,464,l,{
name = hr01;
}),
(203,550,ls),
(203,566,o),
(205,571,o),
(229,580,cs),
(270,595,l,{
name = hr02;
}),
(270,729,l),
(40,729,l),
(40,691,l),
(80,691,l),
(80,-180,l),
(325,-180,l)
);
},
{
closed = 1;
nodes = (
(270,60,l),
(270,464,l),
(417,464,l),
(417,60,l)
);
}
);
width = 668;
}
);
unicode = 254;
},
{
glyphname = q;
lastChange = "2023-02-17 14:07:39 +0000";
layers = (
{
anchors = (
{
name = bottom;
pos = (334,0);
},
{
name = top;
pos = (334,550);
}
);
background = {
shapes = (
{
closed = 1;
nodes = (
(627,-142,l),
(587,-142,l),
(587,550,l),
(559,550,l),
(544,515,l),
(499,539,o),
(405,565,o),
(329,565,cs,{
name = hr01;
}),
(192,565,o),
(60,565,o),
(60,314,cs),
(60,246,ls),
(60,-5,o),
(171,-5,o),
(294,-5,cs),
(364,-5,o),
(416,6,o),
(446,86,c),
(464,86,l),
(464,0,ls),
(464,-16,o),
(462,-21,o),
(438,-30,cs),
(397,-45,l,{
name = hr02;
}),
(397,-180,l),
(627,-180,l)
);
},
{
closed = 1;
nodes = (
(397,490,l),
(397,86,l),
(250,86,l),
(250,490,l)
);
}
);
};
layerId = master01;
shapes = (
{
closed = 1;
nodes = (
(627,-142,l),
(587,-142,l),
(587,550,l),
(559,550,l),
(544,515,l),
(499,539,o),
(405,565,o),
(329,565,cs,{
name = hr01;
}),
(192,565,o),
(60,565,o),
(60,314,cs),
(60,246,ls),
(60,-5,o),
(171,-5,o),
(294,-5,cs),
(364,-5,o),
(416,6,o),
(446,86,c),
(464,86,l),
(464,0,ls),
(464,-16,o),
(462,-21,o),
(438,-30,cs),
(397,-45,l,{
name = hr02;
}),
(397,-180,l),
(627,-180,l)
);
},
{
closed = 1;
nodes = (
(397,490,l),
(397,86,l),
(250,86,l),
(250,490,l)
);
}
);
width = 667;
}
);
unicode = 113;
},
{
glyphname = r;
lastChange = "2023-02-17 14:21:04 +0000";
layers = (
{
anchors = (
{
name = bottom;
pos = (184,0);
},
{
name = top;
pos = (226,550);
}
);
background = {
shapes = (
{
closed = 1;
nodes = (
(45,512,l),
(85,512,l),
(85,38,l),
(45,38,l),
(45,0,l),
(356,0,l),
(356,38,l),
(275,38,l),
(275,315,l),
(239,315,ls),
(223,315,o),
(209,315,o),
(209,341,cs,{
name = hr01;
}),
(209,394,l),
(351,394,l),
(372,559,l),
(349,563,o),
(328,565,o),
(309,565,cs),
(254,565,o),
(217,544,o),
(194,474,c),
(186,474,l),
(166,550,l,{
name = hr02;
}),
(45,550,l)
);
}
);
};
layerId = master01;
shapes = (
{
closed = 1;
nodes = (
(45,512,l),
(85,512,l),
(85,38,l),
(45,38,l),
(45,0,l),
(356,0,l),
(356,38,l),
(275,38,l),
(275,315,l),
(239,315,ls),
(223,315,o),
(209,315,o),
(209,341,cs,{
name = hr01;
}),
(209,394,l),
(351,394,l),
(372,559,l),
(349,563,o),
(328,565,o),
(309,565,cs),
(254,565,o),
(217,544,o),
(194,474,c),
(186,474,l),
(166,550,l,{
name = hr02;
}),
(45,550,l)
);
}
);
width = 391;
}
);
unicode = 114;
},
{
glyphname = racute;
lastChange = "2023-02-17 14:21:01 +0000";
layers = (
{
background = {
shapes = (
{
closed = 1;
nodes = (
(45,512,l),
(85,512,l),
(85,38,l),
(45,38,l),
(45,0,l),
(356,0,l),
(356,38,l),
(275,38,l),
(275,315,l),
(239,315,ls),
(223,315,o),
(209,315,o),
(209,341,cs,{
name = hr01;
}),
(209,394,l),
(351,394,l),
(372,559,l),
(349,563,o),
(328,565,o),
(309,565,cs),
(254,565,o),
(217,544,o),
(194,474,c),
(186,474,l),
(166,550,l,{
name = hr02;
}),
(45,550,l)
);
},
{
closed = 1;
nodes = (
(128,586,l),
(355,645,l),
(306,780,l),
(95,678,l,{
name = hr00;
})
);
}
);
};
layerId = master01;
shapes = (
{
ref = r;
},
{
pos = (45,0);
ref = acutecomb;
}
);
width = 391;
}
);
unicode = 341;
},
{
glyphname = rcaron;
lastChange = "2023-02-17 14:21:01 +0000";
layers = (
{
background = {
shapes = (
{
closed = 1;
nodes = (
(45,512,l),
(85,512,l),
(85,38,l),
(45,38,l),
(45,0,l),
(356,0,l),
(356,38,l),
(275,38,l),
(275,315,l),
(239,315,ls),
(223,315,o),
(209,315,o),
(209,341,cs,{
name = hr01;
}),
(209,394,l),
(351,394,l),
(372,559,l),
(349,563,o),
(328,565,o),
(309,565,cs),
(254,565,o),
(217,544,o),
(194,474,c),
(186,474,l),
(166,550,l,{
name = hr02;
}),
(45,550,l)
);
},
{
closed = 1;
nodes = (
(333,788,l),
(226,712,l),
(119,788,l),
(60,717,l),
(178,587,l),
(274,587,l),
(392,717,l,{
name = hr00;
})
);
}
);
};
layerId = master01;
shapes = (
{
ref = r;
},
{
pos = (25,0);
ref = caroncomb;
}
);
width = 391;
}
);
unicode = 345;
},
{
glyphname = rcommaaccent;
lastChange = "2023-02-17 14:21:04 +0000";
layers = (
{
background = {
shapes = (
{
closed = 1;
nodes = (
(45,512,l),
(85,512,l),
(85,38,l),
(45,38,l),
(45,0,l),
(356,0,l),
(356,38,l),
(275,38,l),
(275,315,l),
(239,315,ls),
(223,315,o),
(209,315,o),
(209,341,cs,{
name = hr01;
}),
(209,394,l),
(351,394,l),
(372,559,l),
(349,563,o),
(328,565,o),
(309,565,cs),
(254,565,o),
(217,544,o),
(194,474,c),
(186,474,l),
(166,550,l,{
name = hr02;
}),
(45,550,l)
);
},
{
closed = 1;
nodes = (
(262,-47,o),
(248,-40,o),
(190,-40,cs),
(119,-40,o),
(102,-47,o),
(102,-119,cs),
(102,-176,o),
(122,-189,o),
(158,-189,c),
(145,-289,l),
(189,-295,l),
(239,-248,o),
(262,-187,o),
(262,-119,cs,{
name = hr00;
})
);
}
);
};
layerId = master01;
shapes = (
{
ref = r;
},
{
pos = (54,0);
ref = commaaccentcomb;
}
);
width = 391;
}
);
unicode = 343;
},
{
glyphname = s;
lastChange = "2023-02-17 14:21:10 +0000";
layers = (
{
anchors = (
{
name = bottom;
pos = (275,0);
},
{
name = top;
pos = (285,550);
}
);
background = {
shapes = (
{
closed = 1;
nodes = (
(408,-15,o),
(520,0,o),
(520,135,cs),
(520,216,o),
(492,253,o),
(439,289,cs),
(252,418,l),
(252,490,l),
(356,490,l),
(380,379,l),
(485,379,l),
(509,535,l),
(447,553,o),
(364,565,o),
(301,565,cs),
(174,565,o),
(62,550,o),
(62,415,cs),
(62,334,o),
(90,297,o),
(143,261,cs),
(330,132,l),
(330,60,l),
(216,60,l),
(189,171,l),
(74,171,l),
(50,15,l),
(118,-3,o),
(212,-15,o),
(281,-15,cs,{
name = hr00;
})
);
}
);
};
layerId = master01;
shapes = (
{
closed = 1;
nodes = (
(408,-15,o),
(520,0,o),
(520,135,cs),
(520,216,o),
(492,253,o),
(439,289,cs),
(252,418,l),
(252,490,l),
(356,490,l),
(380,379,l),
(485,379,l),
(509,535,l),
(447,553,o),
(364,565,o),
(301,565,cs),
(174,565,o),
(62,550,o),
(62,415,cs),
(62,334,o),
(90,297,o),
(143,261,cs),
(330,132,l),
(330,60,l),
(216,60,l),
(189,171,l),
(74,171,l),
(50,15,l),
(118,-3,o),
(212,-15,o),
(281,-15,cs,{
name = hr00;
})
);
}
);
width = 570;
}
);
unicode = 115;
},
{
glyphname = sacute;
lastChange = "2023-02-17 14:08:22 +0000";
layers = (
{
background = {
shapes = (
{
closed = 1;
nodes = (
(408,-15,o),
(520,0,o),
(520,135,cs),
(520,216,o),
(492,253,o),
(439,289,cs),
(252,418,l),
(252,490,l),
(356,490,l),
(380,379,l),
(485,379,l),
(509,535,l),
(447,553,o),
(364,565,o),
(301,565,cs),
(174,565,o),
(62,550,o),
(62,415,cs),
(62,334,o),
(90,297,o),
(143,261,cs),
(330,132,l),
(330,60,l),
(216,60,l),
(189,171,l),
(74,171,l),
(50,15,l),
(118,-3,o),
(212,-15,o),
(281,-15,cs,{
name = hr00;
})
);
},
{
closed = 1;
nodes = (
(208,586,l),
(435,645,l),
(386,780,l),
(175,678,l,{
name = hr00;
})
);
}
);
};
layerId = master01;
shapes = (
{
ref = s;
},
{
pos = (104,0);
ref = acutecomb;
}
);
width = 570;
}
);
unicode = 347;
},
{
glyphname = scaron;
lastChange = "2023-02-17 14:08:22 +0000";
layers = (
{
background = {
shapes = (
{
closed = 1;
nodes = (
(408,-15,o),
(520,0,o),
(520,135,cs),
(520,216,o),
(492,253,o),
(439,289,cs),
(252,418,l),
(252,490,l),
(356,490,l),
(380,379,l),
(485,379,l),
(509,535,l),
(447,553,o),
(364,565,o),
(301,565,cs),
(174,565,o),
(62,550,o),
(62,415,cs),
(62,334,o),
(90,297,o),
(143,261,cs),
(330,132,l),
(330,60,l),
(216,60,l),
(189,171,l),
(74,171,l),
(50,15,l),
(118,-3,o),
(212,-15,o),
(281,-15,cs,{
name = hr00;
})
);
},
{
closed = 1;
nodes = (
(397,788,l),
(290,712,l),
(183,788,l),
(124,717,l),
(242,587,l),
(338,587,l),
(456,717,l,{
name = hr00;
})
);
}
);
};
layerId = master01;
shapes = (
{
ref = s;
},
{
pos = (84,0);
ref = caroncomb;
}
);
width = 570;
}
);
unicode = 353;
},
{
glyphname = scedilla;
lastChange = "2023-02-17 14:21:10 +0000";
layers = (
{
background = {
shapes = (
{
closed = 1;
nodes = (
(408,-15,o),
(520,0,o),
(520,135,cs),
(520,216,o),
(492,253,o),
(439,289,cs),
(252,418,l),
(252,490,l),
(356,490,l),
(380,379,l),
(485,379,l),
(509,535,l),
(447,553,o),
(364,565,o),
(301,565,cs),
(174,565,o),
(62,550,o),
(62,415,cs),
(62,334,o),
(90,297,o),
(143,261,cs),
(330,132,l),
(330,60,l),
(216,60,l),
(189,171,l),
(74,171,l),
(50,15,l),
(118,-3,o),
(212,-15,o),
(281,-15,cs,{
name = hr00;
})
);
},
{
closed = 1;
nodes = (
(386,-4,o),
(326,6,o),
(283,6,c),
(283,-104,l),
(256,-104,l),
(222,-52,l),
(170,-52,l),
(163,-149,l),
(192,-157,o),
(232,-165,o),
(275,-165,cs),
(327,-165,o),
(386,-146,o),
(386,-76,cs,{
name = hr00;
})
);
}
);
};
layerId = master01;
shapes = (
{
ref = s;
},
{
pos = (150,0);
ref = cedillacomb;
}
);
width = 570;
}
);
unicode = 351;
},
{
glyphname = scircumflex;
lastChange = "2023-02-17 14:08:22 +0000";
layers = (
{
background = {
shapes = (
{
closed = 1;
nodes = (
(408,-15,o),
(520,0,o),
(520,135,cs),
(520,216,o),
(492,253,o),
(439,289,cs),
(252,418,l),
(252,490,l),
(356,490,l),
(380,379,l),
(485,379,l),
(509,535,l),
(447,553,o),
(364,565,o),
(301,565,cs),
(174,565,o),
(62,550,o),
(62,415,cs),
(62,334,o),
(90,297,o),
(143,261,cs),
(330,132,l),
(330,60,l),
(216,60,l),
(189,171,l),
(74,171,l),
(50,15,l),
(118,-3,o),
(212,-15,o),
(281,-15,cs,{
name = hr00;
})
);
},
{
closed = 1;
nodes = (
(247,787,l),
(129,657,l),
(188,586,l),
(295,662,l),
(402,586,l),
(461,657,l),
(343,787,l,{
name = hr00;
})
);
}
);
};
layerId = master01;
shapes = (
{
ref = s;
},
{
pos = (84,0);
ref = circumflexcomb;
}
);
width = 570;
}
);
unicode = 349;
},
{
glyphname = scommaaccent;
lastChange = "2023-02-17 14:21:10 +0000";
layers = (
{
background = {
shapes = (
{
closed = 1;
nodes = (
(408,-15,o),
(520,0,o),
(520,135,cs),
(520,216,o),
(492,253,o),
(439,289,cs),
(252,418,l),
(252,490,l),
(356,490,l),
(380,379,l),
(485,379,l),
(509,535,l),
(447,553,o),
(364,565,o),
(301,565,cs),
(174,565,o),
(62,550,o),
(62,415,cs),
(62,334,o),
(90,297,o),
(143,261,cs),
(330,132,l),
(330,60,l),
(216,60,l),
(189,171,l),
(74,171,l),
(50,15,l),
(118,-3,o),
(212,-15,o),
(281,-15,cs,{
name = hr00;
})
);
},
{
closed = 1;
nodes = (
(365,-47,o),
(351,-40,o),
(293,-40,cs),
(222,-40,o),
(205,-47,o),
(205,-119,cs),
(205,-176,o),
(225,-189,o),
(261,-189,c),
(248,-289,l),
(292,-295,l),
(342,-248,o),
(365,-187,o),
(365,-119,cs,{
name = hr00;
})
);
}
);
};
layerId = master01;
shapes = (
{
ref = s;
},
{
pos = (145,0);
ref = commaaccentcomb;
}
);
width = 570;
}
);
unicode = 537;
},
{
glyphname = germandbls;
lastChange = "2023-02-17 14:07:39 +0000";
layers = (
{
anchors = (
{
name = bottom;
pos = (326,0);
},
{
name = top;
pos = (326,873);
}
);
background = {
shapes = (
{
closed = 1;
nodes = (
(85,444,l),
(85,38,l),
(45,38,l),
(45,0,l),
(275,0,l),
(275,663,l),
(423,663,l),
(423,595,ls),
(423,505,o),
(420,431,o),
(326,396,c),
(326,313,l),
(423,313,l),
(423,50,l,{
name = hr01;
}),
(326,50,l),
(326,-11,l),
(352,-14,o),
(378,-15,o),
(404,-15,cs),
(581,-15,o),
(631,71,o),
(631,179,cs),
(631,282,o),
(558,361,o),
(482,372,c),
(482,379,l),
(553,403,o),
(589,454,o),
(589,550,cs,{
name = hr02;
}),
(589,695,o),
(467,744,o),
(352,744,cs),
(183,744,o),
(85,692,o),
(85,540,cs),
(85,492,l),
(45,492,l),
(45,444,l)
);
}
);
};
layerId = master01;
shapes = (
{
closed = 1;
nodes = (
(85,444,l),
(85,38,l),
(45,38,l),
(45,0,l),
(275,0,l),
(275,663,l),
(423,663,l),
(423,595,ls),
(423,505,o),
(420,431,o),
(326,396,c),
(326,313,l),
(423,313,l),
(423,50,l,{
name = hr01;
}),
(326,50,l),
(326,-11,l),
(352,-14,o),
(378,-15,o),
(404,-15,cs),
(581,-15,o),
(631,71,o),
(631,179,cs),
(631,282,o),
(558,361,o),
(482,372,c),
(482,379,l),
(553,403,o),
(589,454,o),
(589,550,cs,{
name = hr02;
}),
(589,695,o),
(467,744,o),
(352,744,cs),
(183,744,o),
(85,692,o),
(85,540,cs),
(85,492,l),
(45,492,l),
(45,444,l)
);
}
);
width = 651;
}
);
unicode = 223;
},
{
glyphname = t;
lastChange = "2023-02-17 14:21:41 +0000";
layers = (
{
anchors = (
{
name = bottom;
pos = (195,0);
},
{
name = center;
pos = (195,275);
},
{
name = top;
pos = (195,550);
},
{
name = topright;
pos = (280,949);
}
);
background = {
shapes = (
{
closed = 1;
nodes = (
(40,502,l),
(80,502,l),
(80,150,ls),
(80,-15,o),
(164,-15,o),
(232,-15,cs),
(318,-15,o),
(375,0,o),
(375,76,cs),
(375,149,l),
(327,149,l),
(327,50,l,{
name = hr01;
}),
(270,50,l),
(270,502,l),
(375,502,l),
(375,550,l),
(270,550,l),
(270,668,l),
(198,668,l),
(90,550,l),
(40,550,l)
);
}
);
};
layerId = master01;
shapes = (
{
closed = 1;
nodes = (
(40,502,l),
(80,502,l),
(80,150,ls),
(80,-15,o),
(164,-15,o),
(232,-15,cs),
(318,-15,o),
(375,0,o),
(375,76,cs),
(375,149,l),
(327,149,l),
(327,50,l,{
name = hr01;
}),
(270,50,l),
(270,502,l),
(375,502,l),
(375,550,l),
(270,550,l),
(270,668,l),
(198,668,l),
(90,550,l),
(40,550,l)
);
}
);
width = 390;
}
);
unicode = 116;
},
{
glyphname = tbar;
lastChange = "2023-02-17 14:21:18 +0000";
layers = (
{
background = {
shapes = (
{
alignment = -1;
ref = t;
},
{
alignment = -1;
pos = (0,-34);
ref = barra;
scale = (1.116,1);
}
);
};
layerId = master01;
shapes = (
{
closed = 1;
nodes = (
(375,252,l),
(375,314,l),
(0,314,l),
(0,252,l)
);
},
{
alignment = -1;
ref = t;
}
);
width = 390;
}
);
unicode = 359;
},
{
glyphname = tcaron;
lastChange = "2023-02-17 14:21:25 +0000";
layers = (
{
background = {
shapes = (
{
closed = 1;
nodes = (
(40,502,l),
(80,502,l),
(80,150,ls),
(80,-15,o),
(164,-15,o),
(232,-15,cs),
(318,-15,o),
(375,0,o),
(375,76,cs),
(375,149,l),
(327,149,l),
(327,50,l,{
name = hr01;
}),
(270,50,l),
(270,502,l),
(375,502,l),
(375,550,l),
(270,550,l),
(270,668,l),
(198,668,l),
(90,550,l),
(40,550,l)
);
},
{
closed = 1;
nodes = (
(460,851,o),
(446,858,o),
(388,858,cs),
(317,858,o),
(300,851,o),
(300,779,cs),
(300,722,o),
(320,709,o),
(356,709,c),
(343,609,l),
(387,603,l),
(437,650,o),
(460,711,o),
(460,779,cs,{
name = hr00;
})
);
}
);
};
layerId = master01;
shapes = (
{
ref = t;
},
{
pos = (265,76);
ref = caroncomb.alt;
}
);
width = 390;
}
);
unicode = 357;
},
{
glyphname = tcedilla;
lastChange = "2023-02-17 14:21:41 +0000";
layers = (
{
background = {
shapes = (
{
closed = 1;
nodes = (
(40,502,l),
(80,502,l),
(80,150,ls),
(80,-15,o),
(164,-15,o),
(232,-15,cs),
(318,-15,o),
(375,0,o),
(375,76,cs),
(375,149,l),
(327,149,l),
(327,50,l,{
name = hr01;
}),
(270,50,l),
(270,502,l),
(375,502,l),
(375,550,l),
(270,550,l),
(270,668,l),
(198,668,l),
(90,550,l),
(40,550,l)
);
},
{
closed = 1;
nodes = (
(286,-4,o),
(226,6,o),
(183,6,c),
(183,-104,l),
(156,-104,l),
(122,-52,l),
(70,-52,l),
(63,-149,l),
(92,-157,o),
(132,-165,o),
(175,-165,cs),
(227,-165,o),
(286,-146,o),
(286,-76,cs,{
name = hr00;
})
);
}
);
};
layerId = master01;
shapes = (
{
ref = t;
},
{
pos = (70,0);
ref = cedillacomb;
}
);
width = 390;
}
);
unicode = 355;
},
{
glyphname = tcommaaccent;
lastChange = "2023-02-17 14:21:41 +0000";
layers = (
{
background = {
shapes = (
{
closed = 1;
nodes = (
(40,502,l),
(80,502,l),
(80,150,ls),
(80,-15,o),
(164,-15,o),
(232,-15,cs),
(318,-15,o),
(375,0,o),
(375,76,cs),
(375,149,l),
(327,149,l),
(327,50,l,{
name = hr01;
}),
(270,50,l),
(270,502,l),
(375,502,l),
(375,550,l),
(270,550,l),
(270,668,l),
(198,668,l),
(90,550,l),
(40,550,l)
);
},
{
closed = 1;
nodes = (
(275,-47,o),
(261,-40,o),
(203,-40,cs),
(132,-40,o),
(115,-47,o),
(115,-119,cs),
(115,-176,o),
(135,-189,o),
(171,-189,c),
(158,-289,l),
(202,-295,l),
(252,-248,o),
(275,-187,o),
(275,-119,cs,{
name = hr00;
})
);
}
);
};
layerId = master01;
shapes = (
{
ref = t;
},
{
pos = (65,0);
ref = commaaccentcomb;
}
);
width = 390;
}
);
unicode = 539;
},
{
glyphname = u;
lastChange = "2023-02-17 14:21:57 +0000";
layers = (
{
anchors = (
{
name = bottom;
pos = (346,0);
},
{
name = ogonek;
pos = (688,38);
},
{
name = top;
pos = (346,550);
},
{
name = topright;
pos = (672,550);
}
);
background = {
shapes = (
{
closed = 1;
nodes = (
(80,-15,o),
(210,-15,o),
(316,-15,cs),
(410,-15,o),
(471,0,o),
(471,76,c),
(484,76,l),
(524,0,l,{
name = hr01;
}),
(647,0,l),
(647,38,l),
(607,38,l),
(607,550,l),
(417,550,l),
(417,76,l,{
name = hr02;
}),
(270,76,l),
(270,550,l),
(40,550,l),
(40,512,l),
(80,512,l),
(80,150,ls)
);
}
);
};
layerId = master01;
shapes = (
{
closed = 1;
nodes = (
(80,-15,o),
(210,-15,o),
(316,-15,cs),
(410,-15,o),
(471,0,o),
(471,76,c),
(484,76,l),
(524,0,l,{
name = hr01;
}),
(647,0,l),
(647,38,l),
(607,38,l),
(607,550,l),
(417,550,l),
(417,76,l,{
name = hr02;
}),
(270,76,l),
(270,550,l),
(40,550,l),
(40,512,l),
(80,512,l),
(80,150,ls)
);
}
);
width = 692;
}
);
unicode = 117;
},
{
glyphname = uacute;
lastChange = "2023-02-17 14:08:22 +0000";
layers = (
{
background = {
shapes = (
{
closed = 1;
nodes = (
(80,-15,o),
(210,-15,o),
(316,-15,cs),
(410,-15,o),
(471,0,o),
(471,76,c),
(484,76,l),
(524,0,l,{
name = hr01;
}),
(647,0,l),
(647,38,l),
(607,38,l),
(607,550,l),
(417,550,l),
(417,76,l,{
name = hr02;
}),
(270,76,l),
(270,550,l),
(40,550,l),
(40,512,l),
(80,512,l),
(80,150,ls)
);
},
{
closed = 1;
nodes = (
(274,586,l),
(501,645,l),
(452,780,l),
(241,678,l,{
name = hr00;
})
);
}
);
};
layerId = master01;
shapes = (
{
ref = u;
},
{
pos = (165,0);
ref = acutecomb;
}
);
width = 692;
}
);
unicode = 250;
},
{
glyphname = ubreve;
lastChange = "2023-02-17 14:08:22 +0000";
layers = (
{
background = {
shapes = (
{
closed = 1;
nodes = (
(80,-15,o),
(210,-15,o),
(316,-15,cs),
(410,-15,o),
(471,0,o),
(471,76,c),
(484,76,l),
(524,0,l,{
name = hr01;
}),
(647,0,l),
(647,38,l),
(607,38,l),
(607,550,l),
(417,550,l),
(417,76,l,{
name = hr02;
}),
(270,76,l),
(270,550,l),
(40,550,l),
(40,512,l),
(80,512,l),
(80,150,ls)
);
},
{
closed = 1;
nodes = (
(309,710,o),
(258,727,o),
(226,749,c),
(211,725,o),
(196,699,o),
(180,674,c),
(217,617,o),
(276,588,o),
(346,588,cs),
(416,588,o),
(475,617,o),
(512,674,c),
(494,703,o),
(485,719,o),
(466,749,c),
(434,727,o),
(383,710,o),
(346,710,cs,{
name = hr00;
})
);
}
);
};
layerId = master01;
shapes = (
{
ref = u;
},
{
pos = (147,0);
ref = brevecomb;
}
);
width = 692;
}
);
unicode = 365;
},
{
glyphname = ucircumflex;
lastChange = "2023-02-17 14:08:22 +0000";
layers = (
{
background = {
shapes = (
{
closed = 1;
nodes = (
(80,-15,o),
(210,-15,o),
(316,-15,cs),
(410,-15,o),
(471,0,o),
(471,76,c),
(484,76,l),
(524,0,l,{
name = hr01;
}),
(647,0,l),
(647,38,l),
(607,38,l),
(607,550,l),
(417,550,l),
(417,76,l,{
name = hr02;
}),
(270,76,l),
(270,550,l),
(40,550,l),
(40,512,l),
(80,512,l),
(80,150,ls)
);
},
{
closed = 1;
nodes = (
(298,787,l),
(180,657,l),
(239,586,l),
(346,662,l),
(453,586,l),
(512,657,l),
(394,787,l,{
name = hr00;
})
);
}
);
};
layerId = master01;
shapes = (
{
ref = u;
},
{
pos = (145,0);
ref = circumflexcomb;
}
);
width = 692;
}
);
unicode = 251;
},
{
glyphname = udieresis;
lastChange = "2023-02-17 14:08:22 +0000";
layers = (
{
background = {
shapes = (
{
closed = 1;
nodes = (
(80,-15,o),
(210,-15,o),
(316,-15,cs),
(410,-15,o),
(471,0,o),
(471,76,c),
(484,76,l),
(524,0,l,{
name = hr01;
}),
(647,0,l),
(647,38,l),
(607,38,l),
(607,550,l),
(417,550,l),
(417,76,l,{
name = hr02;
}),
(270,76,l),
(270,550,l),
(40,550,l),
(40,512,l),
(80,512,l),
(80,150,ls)
);
},
{
closed = 1;
nodes = (
(313,757,o),
(301,765,o),
(250,765,cs),
(192,765,o),
(179,757,o),
(179,682,cs),
(179,607,o),
(192,599,o),
(250,599,cs),
(301,599,o),
(313,607,o),
(313,682,cs,{
name = hr00;
})
);
},
{
closed = 1;
nodes = (
(511,757,o),
(499,765,o),
(448,765,cs),
(390,765,o),
(377,757,o),
(377,682,cs),
(377,607,o),
(390,599,o),
(448,599,cs),
(499,599,o),
(511,607,o),
(511,682,cs)
);
}
);
};
layerId = master01;
shapes = (
{
ref = u;
},
{
pos = (130,0);
ref = dieresiscomb;
}
);
width = 692;
}
);
unicode = 252;
},
